<svg width="29.633mm" height="29.28mm" version="1.1" viewBox="0 0 29.633 29.28" xmlns="http://www.w3.org/2000/svg">
 <g transform="translate(-9.4073 -9.1811)" stroke-width=".26458" aria-label="ꕥ">
  <path d="m24.295 12.709q-1.7639 0-1.7639-1.7639 0-0.81139 0.49389-1.27 0.49389-0.49389 1.27-0.49389 0.77611 0 1.27 0.49389 0.49389 0.45861 0.49389 1.27 0 0.84666-0.49389 1.3053-0.45861 0.45861-1.27 0.45861zm-7.5847 23.989q-2.3636 0-3.9511-1.4817-1.5875-1.4817-1.5875-3.9864 0-1.5875 0.88194-3.0692 0.91722-1.5169 2.5047-2.6458 1.6228-1.1642 3.7394-1.6933v-0.14111q-2.1167-0.45861-3.7394-1.5875-1.5875-1.1642-2.5047-2.6811-0.88194-1.5522-0.88194-3.175 0-2.3989 1.5169-3.9158 1.5522-1.5522 4.0217-1.5522 1.6581 0 3.175 0.84666t2.6811 2.2225q1.1642 1.3406 1.6581 2.9633h0.14111q0.52916-1.6228 1.6581-2.9633 1.1289-1.3758 2.6458-2.2225t3.1397-0.84666q2.5047 0 4.0217 1.5522 1.5169 1.5169 1.5169 3.9158 0 1.5875-0.91722 3.1044-0.88194 1.4817-2.5047 2.6106-1.5875 1.1289-3.7042 1.6933v0.14111q2.1167 0.45861 3.7042 1.6228 1.6228 1.1289 2.5047 2.6458 0.91722 1.5169 0.91722 3.175 0 2.5047-1.5875 3.9864-1.5522 1.4817-3.9511 1.4817-1.6228 0-3.1397-0.84666t-2.6458-2.1872q-1.1289-1.3758-1.6581-2.9986h-0.14111q-0.49389 1.6228-1.6581 2.9986-1.1642 1.3406-2.6811 2.1872t-3.175 0.84666zm5.1505-13.97h1.1994v-1.7286q0-1.4464-0.52917-2.8222-0.49389-1.3758-1.3758-2.5047-0.88194-1.1642-2.0461-1.8344-1.1289-0.67028-2.3989-0.67028-1.2347 0-2.0108 0.88194-0.77611 0.84666-0.77611 2.1872 0 1.3406 0.77611 2.54 0.77611 1.1642 2.0108 2.0814 1.2347 0.88194 2.6106 1.3758 1.3758 0.49389 2.54 0.49389zm3.5983 0h1.1994q1.1642 0 2.54-0.49389 1.3758-0.49389 2.6106-1.3758 1.2347-0.91722 2.0108-2.0814 0.77611-1.1994 0.77611-2.54 0-1.3406-0.77611-2.1872-0.77611-0.88194-2.0108-0.88194-1.27 0-2.4342 0.67028-1.1289 0.67028-2.0108 1.8344-0.88194 1.1289-1.4111 2.5047-0.49389 1.3758-0.49389 2.8222zm-14.287 2.7869q-1.7639 0-1.7639-1.7639 0-0.81139 0.49389-1.27 0.49389-0.49389 1.27-0.49389 0.77611 0 1.27 0.49389 0.49389 0.45861 0.49389 1.27 0 0.84666-0.49389 1.3053-0.45861 0.45861-1.27 0.45861zm26.105 0q-1.7639 0-1.7639-1.7639 0-0.81139 0.49389-1.27 0.49389-0.49389 1.27-0.49389 0.77611 0 1.27 0.49389 0.49389 0.45861 0.49389 1.27 0 0.84666-0.49389 1.3053-0.45861 0.45861-1.27 0.45861zm-20.567 8.7841q1.3406 0 2.4694-0.67028 1.1642-0.67028 2.0108-1.7992 0.88194-1.1289 1.3758-2.5047 0.49389-1.4111 0.49389-2.8575v-1.7286h-1.1994q-1.1642 0-2.54 0.52916-1.3758 0.52917-2.6106 1.4464-1.2347 0.88194-2.0108 2.0814-0.77611 1.1642-0.77611 2.4342 0 1.4111 0.77611 2.2578 0.81139 0.81139 2.0108 0.81139zm15.099 0q1.1994 0 1.9756-0.81139 0.81139-0.84666 0.81139-2.2578 0-1.27-0.77611-2.4342-0.77611-1.1994-2.0108-2.0814-1.2347-0.91722-2.6106-1.4464-1.3758-0.52916-2.54-0.52916h-1.1994v1.7286q0 1.3406 0.49389 2.7164t1.3406 2.54q0.88194 1.1642 2.0461 1.8697t2.4694 0.70555zm-7.5142 4.1628q-1.7639 0-1.7639-1.7639 0-0.81139 0.49389-1.27 0.49389-0.49389 1.27-0.49389 0.77611 0 1.27 0.49389 0.49389 0.45861 0.49389 1.27 0 0.84666-0.49389 1.3053-0.45861 0.45861-1.27 0.45861z"/>
 </g>
</svg>
