<svg width="13.37mm" height="25.188mm" version="1.1" viewBox="0 0 13.37 25.188" xmlns="http://www.w3.org/2000/svg">
 <g transform="translate(-37.283 -16.948)">
  <g stroke-width=".26458" aria-label="Å">
   <g stroke-width=".070004" aria-label="ࡂ">
    <path fill="white" d="m37.283 42.136v-2.6811h9.8425q-1.27-1.5522-2.7164-3.3514-1.4111-1.8344-2.6458-3.8453-1.2347-2.0108-2.0108-4.1628-0.77611-2.1519-0.77611-4.3039 0-1.1289 0.3175-2.293 0.35278-1.1994 1.0231-2.2225 0.67028-1.0583 1.7286-1.6933 1.0583-0.635 2.54-0.635 1.6933 0 2.8575 0.81139 1.1994 0.81139 1.7992 2.1167 0.59972 1.27 0.59972 2.7164 0 2.1167-1.4817 3.4219-1.4464 1.3053-4.5155 1.3053-0.35278 0-0.84666-0.03528-0.45861-0.03528-0.84666-0.07056 0.49389 1.4111 1.5169 3.1044 1.0231 1.6933 2.2578 3.4219 1.27 1.7286 2.5047 3.2455 1.27 1.4817 2.2225 2.5047v2.6458zm6.35-17.18q2.0814 0 2.8575-0.74083 0.81139-0.74083 0.81139-1.7286 0-1.2347-0.70555-2.1167-0.70555-0.91722-2.0108-0.91722-1.4111 0-2.2225 1.27-0.77611 1.2347-0.77611 2.8928 0 0.70555 0.10583 1.1289 0.42333 0.14111 1.0583 0.17639 0.635 0.03528 0.88194 0.03528z"/>
   </g>
  </g>
 </g>
</svg>
