<svg width="17.992mm" height="25.188mm" version="1.1" viewBox="0 0 17.992 25.188" xmlns="http://www.w3.org/2000/svg">
 <g transform="translate(-58.419 -42.769)">
  <g stroke-width=".26458" aria-label="ꓤ">
   <path fill="white" d="m69.461 67.958q-3.1044 0-5.1505-0.77611-2.0461-0.81139-3.0339-2.3989-0.98778-1.5875-0.98778-3.9864 0-2.0108 0.74083-3.3514 0.74083-1.3406 1.8697-2.1519 1.1642-0.81139 2.4342-1.2347-0.07055-0.10583-0.59972-0.91722-0.49389-0.84666-1.27-2.0814-0.74083-1.27-1.5875-2.6458-0.84666-1.3758-1.6228-2.6105-0.74083-1.27-1.27-2.0814-0.49389-0.84666-0.56444-0.9525h3.7042l6.103 10.407h5.0094v-10.407h3.175v25.188zm0.17639-2.7517h3.5983v-9.3486h-3.7747q-3.0692 0-4.4803 1.1994-1.4111 1.1994-1.4111 3.5983 0 2.4694 1.4817 3.5278 1.4817 1.0231 4.5861 1.0231z"/>
  </g>
 </g>
</svg>
