<svg width="25.259mm" height="25.188mm" version="1.1" viewBox="0 0 25.259 25.188" xmlns="http://www.w3.org/2000/svg">
 <g transform="translate(-47.8 -43.588)" stroke-width=".26458" aria-label="ⵣ">
  <path d="m61.982 58.616q2.8222 0.14111 5.1153 1.4817 2.2931 1.3053 3.8453 3.5278 1.5522 2.2225 2.1167 5.1505h-2.8928q-0.84666-3.3867-2.928-5.2917-2.0814-1.905-5.2564-2.1519v7.4436h-3.1397v-7.4436q-3.175 0.24694-5.2564 2.1872-2.0814 1.905-2.928 5.2564h-2.8575q0.56444-2.8928 2.0461-5.1153 1.4817-2.2578 3.7747-3.563 2.2931-1.3406 5.2211-1.4817v-4.8683q-2.9633-0.14111-5.2564-1.4817-2.2931-1.3406-3.7747-3.563-1.4464-2.2578-2.0108-5.1153h2.8575q0.84666 3.3514 2.8928 5.2917 2.0461 1.905 5.2917 2.1519v-7.4436h3.1397v7.4436q3.175-0.24694 5.2564-2.1519 2.0814-1.9403 2.928-5.2917h2.8928q-0.56444 2.8222-2.1167 5.1153-1.5522 2.2578-3.8453 3.6336-2.293 1.3406-5.1153 1.4111z"/>
 </g>
</svg>
