<svg width="29.986mm" height="27.411mm" version="1.1" viewBox="0 0 29.986 27.411" xmlns="http://www.w3.org/2000/svg">
 <g transform="translate(-53.67 -28.185)" stroke-width=".26458" aria-label="߷">
  <path d="m61.925 55.596q-2.2225 0-4.1275-0.81139-1.8697-0.81139-2.9986-2.5753-1.1289-1.7639-1.1289-4.5508 0-2.3636 1.0583-4.0569 1.0936-1.7286 2.8928-2.6458 1.8344-0.9525 4.0922-0.9525-0.52916-0.59972-1.0231-1.6228-0.45861-1.0583-0.45861-2.7869 0-2.5047 1.1994-4.1275 1.2347-1.6581 3.1044-2.4694 1.905-0.81139 3.9511-0.81139 4.0569 0 6.2442 2.0461 2.2225 2.0108 2.2225 5.5739 0 1.3406-0.42333 2.4342-0.38806 1.0936-0.98778 1.7639 2.0814 0 3.9158 0.81139 1.8697 0.77611 3.0339 2.4694 1.1642 1.6933 1.1642 4.3744 0 3.563-2.1519 5.7503-2.1167 2.1872-5.9972 2.1872-2.3283 0-4.0922-0.70555t-2.8222-2.2225q-1.0936 1.5169-2.8575 2.2225t-3.81 0.70555zm0.03528-2.6106q1.4111 0 2.6106-0.52916 1.2347-0.52917 1.9756-1.7286 0.74083-1.1994 0.74083-3.1397h2.7517q0 1.9403 0.70555 3.1397 0.70555 1.1994 1.8697 1.7286 1.1994 0.52916 2.6106 0.52916 1.4464 0 2.6458-0.52916 1.2347-0.56444 1.9403-1.7286 0.74083-1.1642 0.74083-3.0339 0-1.905-0.74083-3.0339-0.70555-1.1289-1.9403-1.6228-1.1994-0.52916-2.6458-0.52916-1.3406 0-2.293 0.35278l-1.5875-2.2225q1.3406-0.81139 1.905-1.9403 0.59972-1.1642 0.59972-2.7164 0-1.905-0.74083-3.0339-0.70555-1.1289-1.9403-1.6228-1.1994-0.52916-2.6458-0.52916-1.4464 0-2.6458 0.52916-1.1642 0.49389-1.8697 1.6228-0.67028 1.1289-0.67028 3.0339 0 1.5875 0.635 2.8222 0.67028 1.1994 2.0108 1.9756l-1.5169 2.1872q-0.67028-0.3175-1.3406-0.38806-0.67028-0.07055-1.1642-0.07055-1.4464 0-2.6458 0.52916-1.1642 0.49389-1.8697 1.6228-0.67028 1.1289-0.67028 3.0339 0 2.7869 1.5169 4.0569 1.5169 1.2347 3.6689 1.2347zm6.5969-14.57q-0.88194 0-1.5169-0.56444-0.635-0.56444-0.635-1.8344 0-1.3053 0.635-1.8344 0.635-0.52917 1.5169-0.52917 0.91722 0 1.5522 0.52917 0.67028 0.52916 0.67028 1.8344 0 1.27-0.67028 1.8344-0.635 0.56444-1.5522 0.56444zm-6.5617 11.712q-0.88194 0-1.5169-0.56444-0.635-0.56444-0.635-1.8344 0-1.3053 0.635-1.8344 0.635-0.52917 1.5169-0.52917 0.91722 0 1.5522 0.52917 0.67028 0.52916 0.67028 1.8344 0 1.27-0.67028 1.8344-0.635 0.56444-1.5522 0.56444zm13.264 0q-0.88194 0-1.5169-0.56444-0.635-0.56444-0.635-1.8344 0-1.3053 0.635-1.8344 0.635-0.52917 1.5169-0.52917 0.91722 0 1.5522 0.52917 0.67028 0.52916 0.67028 1.8344 0 1.27-0.67028 1.8344-0.635 0.56444-1.5522 0.56444z"/>
 </g>
</svg>
