<svg width="28.939mm" height="26.114mm" version="1.1" viewBox="0 0 28.939 26.114" xmlns="http://www.w3.org/2000/svg">
 <g transform="translate(-57.915 -51.289)" stroke-width=".26458" aria-label="Ѥ">
  <path fill="white" d="m86.854 69.031q-2.1876 8.3716-10.542 8.3716-5.96 0-8.8883-3.8585-2.5149-3.3245-2.7216-8.1132h-3.4451v11.541h-3.3417v-25.252h3.3417v10.731h3.5312q0.25838-2.601 1.2058-4.6681 1.4125-3.1006 4.203-4.8231 2.7216-1.6709 6.1839-1.6709 3.8068 0 6.4423 1.8431 2.7388 1.912 3.7035 5.5121l-3.2728 0.86127q-1.4297-5.2882-6.8902-5.2882-3.7035 0-5.8394 2.291-2.0326 2.1704-2.2393 5.9428h9.2501v2.98h-9.3879q0.17225 3.8757 2.0671 6.3562 2.1532 2.8077 5.8566 2.8077 6.0289 0 7.562-6.4079z"/>
 </g>
</svg>
