<svg width="23.185mm" height="25.304mm" version="1.1" viewBox="0 0 23.185 25.304" xmlns="http://www.w3.org/2000/svg">
 <g transform="translate(-50.228 -36.274)" stroke-width=".26458" aria-label="Ã">
  <path d="m50.228 46.678h2.2738v-10.404h9.6807q6.2873 0 9.1467 4.3236 2.0843 3.1523 2.0843 7.9065 0 4.203-1.602 7.5103-2.6872 5.5638-9.095 5.5638h-10.215v-11.834h-2.2738zm5.7188 0h7.2175v3.0661h-7.2175v8.9056h6.115q1.7398 0 2.8594-0.36173 1.9982-0.67179 3.2728-2.5838 1.0163-1.5331 1.4642-3.9274 0.25838-1.4297 0.25838-2.6527 0-4.7025-1.8776-7.3036-1.8603-2.601-6.0117-2.601h-6.0806z"/>
 </g>
</svg>
