<svg width="26.458mm" height="39.793mm" version="1.1" viewBox="0 0 26.458 39.793" xmlns="http://www.w3.org/2000/svg">
 <g transform="translate(-19.606 -35.564)" stroke-width=".26458" aria-label="ᧀ">
  <path d="m40.208 75.358q-1.8697 0-3.175-1.1642-1.3053-1.1642-1.9756-3.1044-0.67028-1.9403-0.67028-4.3039v-4.445q-1.0936 1.5875-2.5753 2.5753-1.4464 0.98778-3.3161 0.98778-2.9986 0-4.9742-1.905-1.9756-1.905-2.9633-5.2211-0.9525-3.3514-0.9525-7.6905 0-4.5508 0.88194-8.0433 0.91722-3.4925 2.8575-5.468 1.9756-2.0108 5.1505-2.0108 3.2103 0 5.1858 1.9756 1.9756 1.9403 2.8575 5.4328 0.91722 3.4925 0.91722 8.1139v15.734q0 1.7639 0.17639 3.175 0.17639 1.4111 0.74083 2.1872 0.59972 0.81139 1.8344 0.81139 1.2347 0 1.8344-0.81139 0.59972-0.77611 0.77611-2.1872 0.17639-1.4111 0.17639-3.175v-20.179h3.0692v20.355q0 1.3758-0.35278 2.8222-0.3175 1.4464-1.0231 2.7164-0.70555 1.27-1.8344 2.0461-1.0936 0.77611-2.6458 0.77611zm-5.9267-25.153q-0.07056-6.0678-1.3758-9.1369-1.3053-3.1044-4.4097-3.1044-2.1519 0-3.3867 1.4111-1.2347 1.3758-1.7639 4.0922-0.49389 2.7164-0.56444 6.6322 1.1642-0.91722 2.6106-1.4111 1.4817-0.49389 2.9986-0.49389 1.5875 0 3.1044 0.52916 1.5522 0.52917 2.7869 1.4817zm-5.7855 13.3q2.928 0 4.198-2.6106 1.3053-2.6106 1.5169-7.3378-0.98778-1.6228-2.6458-2.2931-1.6228-0.70555-3.2808-0.70555-1.4464 0-2.9633 0.70555-1.4817 0.67028-2.5047 2.1167 0.21167 4.7625 1.5169 7.4436t4.1628 2.6811z"/>
 </g>
</svg>
