<svg width="34.89mm" height="41.063mm" version="1.1" viewBox="0 0 34.89 41.063" xmlns="http://www.w3.org/2000/svg">
 <g transform="translate(-44.155 -27.478)" stroke-width=".26458" aria-label="இ">
  <path d="m51.458 68.541q-2.2931 0-3.9511-0.81139-1.6228-0.77611-2.5047-2.2578-0.84666-1.4817-0.84666-3.5278 0-2.5047 1.27-4.4097 1.3053-1.905 3.4572-3.175 2.0814-1.2347 4.7978-1.8344 2.7164-0.635 5.6444-0.635 2.8222 0 5.1153 0.49389 2.3283 0.45861 4.0922 1.3053 2.0108 0.9525 3.3514 2.293 1.3406 1.3053 1.9756 2.8222 0.67028 1.5522 0.67028 3.1397 0 3.0692-1.9403 4.833-1.905 1.7639-5.5386 1.7639-2.4694 0-4.833-0.70555-2.3283-0.67028-4.5155-2.0461-1.8344-0.88194-3.563-2.3989t-3.2103-3.4219q-1.4464-1.8697-2.4694-3.81-1.6228-2.928-2.5047-5.8914-0.84666-2.9986-0.84666-6.4205 0-3.0692 1.0231-5.9972 1.0583-2.928 3.175-5.2564 2.1519-2.3283 5.3975-3.7042 3.2808-1.4111 7.7258-1.4111 4.3392 0 7.4436 1.1994 3.1397 1.1994 5.1858 3.5983 1.3406 1.5875 2.2225 3.5278 0.88194 1.9403 1.3053 4.4097 0.45861 2.4342 0.45861 5.6444v11.359h-3.0339v-9.5955q0-3.3867-0.38806-6.0325-0.38805-2.6458-1.2347-4.6214-0.84666-2.0108-2.2225-3.4219-1.6581-1.7286-4.0217-2.5753t-5.715-0.84666q-2.9633 0-5.5739 0.91722-2.5753 0.88194-4.5508 2.6458-1.9403 1.7639-3.0692 4.3392-1.0936 2.5753-1.0936 5.9619 0 2.1872 0.3175 4.0217 0.3175 1.7992 0.9525 3.4572 0.635 1.6581 1.5169 3.3867 0.81139 1.7286 2.1872 3.5278 1.3758 1.7992 3.2103 3.3867 1.8344 1.5875 3.9511 2.7164 1.5169 0.84666 3.0692 1.1642 1.5875 0.35278 3.3867 0.35278 2.6106 0 3.6689-1.1994 1.0936-1.1642 1.0936-3.0339 0-1.7992-1.0936-3.2808t-2.8222-2.3636q-1.6933-0.88194-3.8453-1.27-2.1167-0.42333-4.3392-0.42333-3.1044 0-5.4328 0.635-2.293 0.59972-3.7747 1.5875-1.5522 1.0231-2.2931 2.3283-0.74083 1.3406-0.74083 2.7517 0 1.9403 1.0936 3.1044 1.1289 1.1642 3.6336 1.1642 1.5522 0 2.9633-0.24694 1.4111-0.21167 2.7869-0.98778 2.1872-0.98778 4.0217-2.6811 1.8344-1.6933 3.1397-3.7394 1.3406-2.0461 1.905-4.0569 0.49389-1.4464 0.70555-2.8928 0.24694-1.4817 0.24694-2.9986 0-2.54-0.70555-4.2686-0.67028-1.7639-1.7639-2.7869-1.0936-1.0231-2.293-1.4111l-1.7639-0.17639q-0.24694-0.03528-0.59972-0.03528-0.3175-0.03528-0.635-0.03528-1.27 0-2.2931 0.38805-0.98778 0.35278-1.5875 1.1289-0.59972 0.77611-0.59972 1.9403 0 1.3053 0.77611 2.1872 0.81139 0.88194 2.2578 0.88194 1.3053 0 2.1167-0.81139 0.81139-0.84666 0.81139-2.3636 0-1.1289-0.42333-2.0814-0.42333-0.9525-1.3406-1.905l2.8222 0.17639q0.49389 0.49389 0.84666 1.1642 0.38805 0.635 0.59972 1.4111 0.24694 0.74083 0.24694 1.5875 0 1.5169-0.67028 2.7164-0.67028 1.1642-1.9403 1.8344t-3.1397 0.67028q-1.5875 0-2.8928-0.67028-1.3053-0.67028-2.0814-1.905-0.77611-1.2347-0.77611-2.8575 0-2.0108 1.0231-3.3161 1.0583-1.3406 2.8575-1.9756 1.7992-0.635 4.0217-0.635 3.3867 0 5.6444 1.3758 2.2578 1.3758 3.3867 3.8453 1.1642 2.4694 1.1642 5.7855 0 1.5522-0.3175 3.6336-0.3175 2.0814-1.1994 4.0922-0.77611 2.1519-2.0461 4.0217-1.2347 1.8697-2.8575 3.3867t-3.5278 2.6106q-2.2578 1.1994-4.5861 1.8697-2.3283 0.67028-4.7272 0.67028z"/>
 </g>
</svg>
