<svg width="25.294mm" height="25.506mm" version="1.1" viewBox="0 0 25.294 25.506" xmlns="http://www.w3.org/2000/svg">
 <g transform="translate(-51.866 -54.058)" stroke-width=".26458" aria-label="áˆ">
  <path fill="white" d="m52.889 79.564q-0.35278-0.52917-0.70555-1.5522-0.3175-1.0583-0.3175-2.8928 0-3.4219 1.3053-5.9619 1.3406-2.5753 4.0922-3.9864 2.7869-1.4111 7.1614-1.4111 3.2103 0 5.3269 0.56444t3.3161 1.5875q1.2347 0.98778 1.7286 2.3283 0.49389 1.3406 0.49389 2.8575 0 0.45861-0.03528 1.1642t-0.07055 1.4111q0 0.67028 0 1.1642 0 1.7639 0.45861 2.3636 0.49389 0.56444 1.5169 0.635v1.4111l-4.5155 0.3175q-0.42333-0.56444-0.59972-1.27-0.17639-0.74083-0.17639-1.7639 0-0.77611 0-1.7639 0.03528-0.98778 0.03528-1.9403 0.03528-0.98778 0.03528-1.6228 0-1.7639-0.70555-3.0339-0.70555-1.3053-2.3989-2.0108-1.6933-0.70555-4.6919-0.70555-3.2808 0-5.2564 1.0583-1.9403 1.0231-2.8222 3.1044t-0.88194 5.2211q0 1.6933 0.49389 2.3283 0.52917 0.635 1.5875 0.67028v1.4111zm10.054 0q-0.45861-0.45861-0.74083-1.0936-0.28222-0.67028-0.28222-1.6581v-18.944q0-1.0231-0.42333-1.5522-0.42333-0.52916-1.1994-0.52916v-1.4111l4.0569-0.3175q0.49389 0.28222 0.74083 0.98778 0.28222 0.70555 0.28222 1.5169v18.909q0 1.4111 0.45861 1.905 0.45861 0.45861 1.27 0.45861v1.4111z"/>
 </g>
</svg>
