<svg width="20.205mm" height="23.874mm" version="1.1" viewBox="0 0 20.205 23.874" xmlns="http://www.w3.org/2000/svg">
 <g transform="translate(-30.903 -24.841)" stroke-width=".26458" aria-label="ଞ">
  <path fill="white" d="m48.25 35.142q1.378 0.58566 2.1187 1.9465 0.74069 1.3436 0.74069 3.2728 0 3.9619-2.6183 6.1667-2.601 2.1876-7.2864 2.1876-3.2384 0-5.5466-1.0852-2.3082-1.1024-3.5312-3.1867-1.223-2.0843-1.223-4.7542 0-3.6001 1.7742-6.3734-1.0335-1.6709-1.0335-3.824 0-2.4632 1.0852-4.6509l2.1532 0.70624q-0.91295 1.7225-0.91295 3.8068 0 2.7561 1.8603 4.1686 1.8603 1.4125 5.581 1.4125 3.6001 0 5.3054-1.1886 1.7225-1.2058 1.7225-3.7896 0-3.0661-2.1532-3.0661-0.98185 0-1.4986 0.56844-0.51676 0.55121-0.51676 2.1015v2.8594h-2.2221v-2.8594q0-1.4642-0.44786-2.0671-0.43064-0.60289-1.3436-0.60289-0.74069 0-1.2919 0.53399-0.55121 0.51676-0.55121 1.5847 0 1.378 0.70624 3.0317l-2.0498 0.63734q-0.8785-1.9292-0.8785-3.7724 0-1.7914 1.1369-2.9283 1.1541-1.1369 2.7044-1.1369 1.068 0 1.8087 0.41341 0.74069 0.39618 1.3264 1.223 0.53399-0.77514 1.4125-1.2058 0.8785-0.43064 1.9465-0.43064 1.8776 0 3.0661 1.3264 1.2058 1.3091 1.2058 3.6862 0 3.5484-2.5494 5.2882zm-11.317 1.3608q-1.5331-0.51676-2.601-1.3436-1.068 1.7742-1.068 4.358 0 3.2556 2.0154 5.0987 2.0326 1.8431 5.8911 1.8431 3.6518 0 5.6155-1.5675 1.9637-1.5847 1.9637-4.5303 0-1.757-0.70624-2.7561-0.68902-1.0163-1.8259-1.0163-0.65457 0-1.068 0.24116-0.39618 0.24116-0.60289 0.82682-0.20671 0.56844-0.20671 1.5503v3.4795h-2.2221v-3.135q0-1.6709-0.56844-2.2221-0.43064-0.56844-1.2919-0.56844-0.53399 0-0.99908 0.27561-0.44786 0.25838-0.74069 0.82682-0.27561 0.55121-0.27561 1.378 0 1.2919 0.77514 3.0661l-2.0843 0.63734q-0.91295-1.9982-0.91295-3.8585 0-1.5331 0.91295-2.5838z"/>
 </g>
</svg>
