<svg width="31.144mm" height="28.336mm" version="1.1" viewBox="0 0 31.144 28.336" xmlns="http://www.w3.org/2000/svg">
 <g transform="translate(-44.807 -56.311)" stroke-width=".26458" aria-label="Ꮊ">
  <path d="m56.176 84.647q-5.7016 0-8.7333-4.3925-2.6355-3.8068-2.6355-9.784 0-5.9772 2.6355-9.784 3.0317-4.3753 8.7333-4.3753 5.3399 0 8.3371 3.8585 2.6183 3.359 2.9628 8.8366h4.9954v-11.903h3.4795v26.734h-3.4795v-12.161h-4.9782q-0.27561 5.5638-2.9111 9.0089-3.0145 3.9619-8.406 3.9619zm0-2.6872q4.0997 0 6.1495-3.9102 1.602-3.0661 1.602-7.5792t-1.602-7.5792q-2.0498-3.9102-6.1495-3.9102-4.1169 0-6.1495 3.9102-1.602 3.0661-1.602 7.5792 0 4.5303 1.602 7.5964 2.0326 3.8929 6.1495 3.8929z"/>
 </g>
</svg>
