<svg width="25.365mm" height="25.541mm" version="1.1" viewBox="0 0 25.365 25.541" xmlns="http://www.w3.org/2000/svg">
 <g transform="translate(-45.344 -53.126)" stroke-width=".26458" aria-label="Ա">
  <path fill="white" d="m54.869 78.667q-4.5861 0-7.0555-2.4694t-2.4694-6.8439v-16.228h3.175v15.769q0 3.6689 1.6581 5.3975 1.6581 1.6933 4.7978 1.6933 3.0692 0 4.7272-1.6933 1.6933-1.7286 1.6933-5.1858v-15.981h3.175v16.298q0 0.56444-0.03528 1.1289 0.35278-0.07055 0.77611-0.07055 2.6105 0 3.9864 1.4817 1.4111 1.4464 1.4111 4.7272v1.6228h-2.8222v-1.4464q0-2.1519-0.77611-3.0339-0.77611-0.88194-2.2578-0.88194-0.45861 0-0.81139 0.03528-0.91722 2.7164-3.2808 4.198-2.3283 1.4817-5.8914 1.4817z"/>
 </g>
</svg>
