<svg width="20.461mm" height="34.219mm" version="1.1" viewBox="0 0 20.461 34.219" xmlns="http://www.w3.org/2000/svg">
 <g transform="translate(-34.178 -38.099)" stroke-width=".26458" aria-label="ð’¾">
  <path d="m52.311 72.318q-0.3175-0.88194-0.67028-1.5169-0.35278-0.59972-0.635-1.0936-0.59972 1.0231-1.9403 1.6581-1.3053 0.635-2.9633 0.635-2.4342 0-4.0569-1.1289-1.5875-1.1289-1.5875-2.9633 0-1.7992 1.4817-2.9633 1.4817-1.1289 4.0569-1.1289 0.67028 0 1.4111 0.10583 0.77611 0.10583 1.3406 0.3175v-7.4789q0-3.2103-1.3406-4.6214-1.3053-1.4111-3.9864-1.4111-3.1397 0-4.6214 2.0814-1.4464 2.0461-1.4464 5.3975v5.08h-3.175v-25.188h3.175v12.065l12.206-12.065h4.0569l-10.301 9.913q0.17639-0.03528 0.3175-0.03528 0.17639 0 0.3175 0 3.81 0 5.8914 2.0461 2.0814 2.0461 2.0814 6.35v10.054q0.74083 0.88194 1.4111 1.9403 0.70555 1.0936 1.3053 2.7869zm-6.1736-2.8575q1.2347 0 1.905-0.56444 0.67028-0.56444 0.70555-1.8344-0.52916-0.42333-1.2347-0.56444-0.70555-0.14111-1.27-0.14111-1.1994 0-1.9756 0.35278-0.74083 0.35278-0.74083 1.2347 0 0.635 0.70555 1.0583 0.74083 0.45861 1.905 0.45861z"/>
 </g>
</svg>
