<svg width="22.86mm" height="27.728mm" version="1.1" viewBox="0 0 22.86 27.728" xmlns="http://www.w3.org/2000/svg">
 <g transform="translate(-39.184 -19.386)" stroke-width=".26458" aria-label="ð‘‚">
  <path d="m39.184 20.479 2.0108-1.0936q0.70555 1.0936 1.7992 1.6581 1.0936 0.52917 2.2931 0.52917 1.4111 0 2.54-0.59972t1.8697-1.3758h2.1167q0.88194 0.98778 2.0461 1.4817t2.2931 0.49389q1.4817 0 2.2225-0.56444 0.74083-0.56444 1.5169-1.6228l2.1519 1.0583q-1.0936 1.8697-2.6811 2.7164-1.5875 0.81139-3.7394 0.81139-1.5875 0-2.8575-0.56444-1.2347-0.56444-2.0108-1.5522-0.81139 1.0231-2.1872 1.5875-1.3758 0.52916-3.0339 0.52916-2.0461 0-3.6689-0.81139-1.5875-0.81139-2.6811-2.6811zm5.715 16.722q-2.1519 0-3.5278-1.3758-1.3758-1.4111-1.3758-3.563 0-1.3406 0.56444-2.4342 0.56444-1.1289 1.6581-1.7992 1.1289-0.67028 2.6811-0.67028 2.2578 0 3.563 1.4111 1.3053 1.4111 1.3053 3.4925 0 2.0461-1.3053 3.4925-1.3053 1.4464-3.563 1.4464zm11.642 0q-2.1519 0-3.5278-1.3758-1.3758-1.4111-1.3758-3.563 0-1.3406 0.56444-2.4342 0.56444-1.1289 1.6581-1.7992 1.1289-0.67028 2.6811-0.67028 2.2578 0 3.563 1.4111 1.3053 1.4111 1.3053 3.4925 0 2.0461-1.3053 3.4925-1.3053 1.4464-3.563 1.4464zm-11.642-2.3283q1.2347 0 1.7992-0.70555 0.59972-0.74083 0.59972-1.905 0-1.1289-0.59972-1.8344-0.56444-0.74083-1.7992-0.74083-1.3053 0-1.8697 0.77611-0.56444 0.74083-0.56444 1.7992 0 1.1642 0.59972 1.905 0.635 0.70555 1.8344 0.70555zm11.642 0q1.2347 0 1.7992-0.70555 0.59972-0.74083 0.59972-1.905 0-1.1289-0.59972-1.8344-0.56444-0.74083-1.7992-0.74083-1.3053 0-1.8697 0.77611-0.56444 0.74083-0.56444 1.7992 0 1.1642 0.59972 1.905 0.635 0.70555 1.8344 0.70555zm-6.5617 5.0447q3.5278 0 6.103 1.5875 2.6106 1.5522 4.7625 4.2333l-2.3989 1.3758q-1.905-2.1872-3.81-3.4219-1.905-1.2347-4.0922-1.2347-0.21167 0-0.42333 0-0.17639 0-0.35278 0.03528 0.28222 0.67028 0.28222 1.3758 0 1.3406-0.84666 2.2578-0.84666 0.9525-2.0814 0.9525-1.2347 0-2.0814-0.9525-0.84666-0.91722-0.84666-2.293 0-1.7992 1.5522-2.8575 1.5875-1.0583 4.2333-1.0583z"/>
 </g>
</svg>
