<svg width="32.491mm" height="23.248mm" version="1.1" viewBox="0 0 32.491 23.248" xmlns="http://www.w3.org/2000/svg">
 <g transform="translate(-36.93 -37.322)" stroke-width=".26458" aria-label="ꯄ">
  <path fill="white" d="m37.741 60.57-0.81139-2.5753q2.2931-0.49389 3.563-1.6581 1.3053-1.1994 1.8344-2.7517 0.52917-1.5522 0.52917-3.0692 0-2.4342-1.3758-5.2917-1.3758-2.8575-4.0217-5.3269v-2.5753h31.432v2.5753q-2.7517 2.4694-4.0922 5.2917-1.3053 2.7869-1.3053 5.3269 0 1.5169 0.52917 3.0692 0.56444 1.5522 1.8344 2.7517 1.3053 1.1642 3.563 1.6581l-0.77611 2.5753q-2.7164-0.45861-4.5155-1.905t-2.6811-3.4572q-0.84666-2.0461-0.84666-4.2333 0-2.6811 1.1994-5.5386 1.2347-2.8928 3.4219-5.5386h-7.3025v20.673h-2.8928v-20.673h-3.7042v20.673h-2.8928v-20.673h-7.3378q2.2225 2.6458 3.4219 5.5386 1.2347 2.8575 1.2347 5.5386 0 2.1872-0.88194 4.2333-0.84666 2.0108-2.6458 3.4572-1.7639 1.4464-4.4803 1.905z"/>
 </g>
</svg>
