<svg width="34.89mm" height="41.063mm" version="1.1" viewBox="0 0 34.89 41.063" xmlns="http://www.w3.org/2000/svg">
 <g transform="translate(-50.68 -82.915)">
  <g stroke-width=".26458" aria-label="இ">
   <path d="m57.982 123.98c-1.5287 0-2.8457-0.27046-3.9511-0.81138-1.0818-0.51741-1.9168-1.27-2.5047-2.2578-0.56444-0.98777-0.84666-2.1637-0.84666-3.5278 0-1.6698 0.42333-3.1397 1.27-4.4097 0.87018-1.27 2.0226-2.3283 3.4572-3.175 1.3876-0.82315 2.9868-1.4346 4.7978-1.8344 1.8109-0.42333 3.6924-0.635 5.6444-0.635 1.8815 0 3.5866 0.16463 5.1153 0.49389 1.5522 0.30574 2.9163 0.74083 4.0922 1.3053 1.3406 0.635 2.4577 1.3994 3.3514 2.293 0.8937 0.87019 1.5522 1.8109 1.9756 2.8222 0.44685 1.0348 0.67028 2.0814 0.67028 3.1397 0 2.0461-0.64676 3.6571-1.9403 4.833-1.27 1.1759-3.1162 1.7639-5.5386 1.7639-1.6463 0-3.2573-0.23518-4.833-0.70555-1.5522-0.44685-3.0574-1.1289-4.5155-2.0461-1.223-0.58796-2.4106-1.3876-3.563-2.3989s-2.2225-2.1519-3.2103-3.4219c-0.96426-1.2465-1.7874-2.5165-2.4694-3.81-1.0818-1.952-1.9168-3.9158-2.5047-5.8914-0.56444-1.9991-0.84666-4.1392-0.84666-6.4205 0-2.0461 0.34102-4.0452 1.0231-5.9972 0.70555-1.952 1.7639-3.7042 3.175-5.2564 1.4346-1.5522 3.2338-2.7869 5.3975-3.7042 2.1872-0.94074 4.7625-1.4111 7.7258-1.4111 2.8928 0 5.374 0.39981 7.4436 1.1994 2.0931 0.79963 3.8218 1.9991 5.1858 3.5983 0.8937 1.0583 1.6345 2.2343 2.2225 3.5278 0.58796 1.2935 1.0231 2.7634 1.3053 4.4097 0.30574 1.6228 0.45861 3.5042 0.45861 5.6444l-0.01137 18.212-3.0102 5e-3 -0.01226-16.454c-0.0017-2.2578-0.12935-4.2686-0.38805-6.0325s-0.67028-3.3043-1.2347-4.6214c-0.56444-1.3406-1.3053-2.4812-2.2225-3.4219-1.1054-1.1524-2.4459-2.0108-4.0217-2.5753s-3.4807-0.84666-5.715-0.84666c-1.9756 0-3.8335 0.30574-5.5739 0.91722-1.7168 0.58796-3.2338 1.4699-4.5508 2.6458-1.2935 1.1759-2.3166 2.6223-3.0692 4.3392-0.72907 1.7168-1.0936 3.7042-1.0936 5.9619 0 1.4581 0.10583 2.7987 0.3175 4.0217 0.21167 1.1994 0.52916 2.3518 0.9525 3.4572 0.42333 1.1054 0.92898 2.2342 1.5169 3.3867 0.54092 1.1524 1.27 2.3283 2.1872 3.5278 0.91722 1.1994 1.9873 2.3283 3.2103 3.3866 1.223 1.0583 2.54 1.9638 3.9511 2.7164 1.0113 0.56444 2.0343 0.95249 3.0692 1.1642 1.0583 0.23519 2.1872 0.35278 3.3867 0.35278 1.7404 0 2.9633-0.39981 3.6689-1.1994 0.72907-0.77611 1.0936-1.7874 1.0936-3.0339 0-1.1994-0.36454-2.293-1.0936-3.2808s-1.6698-1.7756-2.8222-2.3636c-1.1289-0.58796-2.4106-1.0113-3.8453-1.27-1.4111-0.28223-2.8575-0.42334-4.3392-0.42334-2.0696 0-3.8805 0.21167-5.4328 0.635-1.5287 0.39981-2.7869 0.92898-3.7747 1.5875-1.0348 0.68203-1.7992 1.4581-2.2931 2.3283-0.49389 0.8937-0.74083 1.8109-0.74083 2.7517 0 1.2935 0.36454 2.3283 1.0936 3.1044 0.75259 0.77611 1.9638 1.1642 3.6336 1.1642 1.0348 0 2.0226-0.0823 2.9633-0.24695 0.94074-0.14111 1.8697-0.47036 2.7869-0.98777 1.4581-0.65852 2.7987-1.5522 4.0217-2.6811s2.2695-2.3754 3.1397-3.7394c0.8937-1.3641 1.5287-2.7164 1.905-4.0569 0.32926-0.96425 0.56444-1.9285 0.70555-2.8928 0.16463-0.98777 0.24694-1.9873 0.24694-2.9986 0-1.6933-0.23518-3.1162-0.70555-4.2686-0.44685-1.1759-1.0348-2.1049-1.7639-2.7869-0.72907-0.68204-1.4934-1.1524-2.2931-1.4111l-1.7639-0.17639c-0.16463-0.02352-0.36454-0.03528-0.59972-0.03528-0.21167-0.02352-0.42333-0.03528-0.635-0.03528-0.84666 0-1.611 0.12935-2.293 0.38806-0.65852 0.23518-1.1877 0.61148-1.5875 1.1289-0.39981 0.51741-0.59972 1.1642-0.59972 1.9403 0 0.87018 0.2587 1.5993 0.77611 2.1872 0.54092 0.58796 1.2935 0.88194 2.2578 0.88194 0.87018 0 1.5757-0.27047 2.1167-0.81139 0.54092-0.56445 0.81139-1.3523 0.81139-2.3636 0-0.75259-0.14111-1.4464-0.42333-2.0814-0.28222-0.635-0.72907-1.27-1.3406-1.905l2.8222 0.17639c0.32926 0.32926 0.61148 0.71731 0.84666 1.1642 0.2587 0.42333 0.45861 0.8937 0.59972 1.4111 0.16463 0.49389 0.24694 1.0231 0.24694 1.5875 0 1.0113-0.22342 1.9168-0.67028 2.7164-0.44685 0.7761-1.0936 1.3876-1.9403 1.8344-0.84666 0.44684-1.8932 0.67027-3.1397 0.67027-1.0583 0-2.0226-0.22343-2.8928-0.67027-0.87018-0.44686-1.564-1.0819-2.0814-1.905-0.51741-0.82315-0.77611-1.7756-0.77611-2.8575 0-1.3406 0.34102-2.4459 1.0231-3.3161 0.70555-0.8937 1.6581-1.5522 2.8575-1.9756 1.1994-0.42333 2.54-0.635 4.0217-0.635 2.2578 0 4.1392 0.45861 5.6444 1.3758 1.5052 0.91722 2.6341 2.199 3.3867 3.8453 0.77611 1.6463 1.1642 3.5748 1.1642 5.7856 0 1.0348-0.10583 2.246-0.3175 3.6336-0.21167 1.3876-0.61148 2.7516-1.1994 4.0922-0.51741 1.4346-1.1994 2.7752-2.0461 4.0217-0.82315 1.2465-1.7756 2.3754-2.8575 3.3867-1.0818 1.0113-2.2578 1.8815-3.5278 2.6106-1.5052 0.79962-3.0339 1.4229-4.5861 1.8697-1.5522 0.44684-3.128 0.67027-4.7272 0.67027z"/>
  </g>
 </g>
</svg>
