<svg width="25.365mm" height="28.01mm" version="1.1" viewBox="0 0 25.365 28.01" xmlns="http://www.w3.org/2000/svg">
 <text x="-76.188065" y="38.172123" fill="#000000" font-family="'Noto Serif Ethiopic'" font-size="35.278px" stroke-width=".26458" xml:space="preserve"><tspan x="-76.188065" y="38.172123" stroke-width=".26458"/></text>
 <g transform="translate(-116.76 -32.394)" stroke-width=".26458" aria-label="ಔ">
  <path fill="white" d="m135.64 60.405q-2.1519 0-3.6689-0.91722-1.4817-0.9525-2.7164-3.175h1.0936q-0.81139 1.5875-1.7992 2.4694-0.9525 0.88194-2.1872 1.2347-1.1994 0.38806-2.8222 0.38806-1.9756 0-3.3161-0.74083-1.3406-0.77611-2.0108-1.9756-0.635-1.1994-0.635-2.5047 0-1.5169 0.56445-2.6106 0.59972-1.0936 1.6933-2.0108 1.0936-0.9525 2.6106-1.905 1.3406-0.88194 2.1519-1.6581 0.81138-0.77611 0.81138-1.905 0-0.74083-0.28222-1.27-0.28222-0.56444-0.91722-0.84666-0.59972-0.28222-1.658-0.28222-1.5169 0-2.2225 0.67028-0.70555 0.635-0.70555 1.7286 0 0.56444 0.17639 1.0936 0.17639 0.49389 0.52916 0.98778l-2.4694 1.0936q-0.56445-0.88194-0.84667-1.7286-0.24694-0.88194-0.24694-1.7639 0-1.2347 0.635-2.2931 0.63499-1.0583 1.9403-1.6933 1.3053-0.67028 3.2456-0.67028 2.1167 0 3.3514 0.77611 1.27 0.74083 1.7992 1.8697 0.52917 1.1289 0.52917 2.293 0 1.27-0.56445 2.2931-0.52916 0.98778-1.5522 1.8697-0.98778 0.88194-2.3989 1.7992-1.6228 1.0583-2.4694 1.8697-0.81138 0.81139-0.81138 2.1167 0 1.3758 0.91722 2.0108 0.91722 0.59972 2.3283 0.59972 2.3636 0 3.4925-1.2347 1.1289-1.2347 1.27-3.2808h2.6811q0.17639 2.3636 1.4817 3.4572 1.3053 1.0583 2.9986 1.0583 1.9403 0 2.7517-0.9525 0.84666-0.98778 0.84666-2.2578 0-1.0936-0.42333-2.0461-0.38806-0.98778-1.0936-1.7992l2.5047-1.6228q0.91722 1.1642 1.4111 2.4694 0.49389 1.3053 0.49389 2.928 0 1.7992-0.70555 3.175-0.67028 1.3406-2.1167 2.1167-1.4111 0.77611-3.6689 0.77611zm-17.251-17.992v-2.2931h3.3161q1.4464 0 2.0814-0.14111 0.67028-0.17639 1.0583-0.42333 0.45861-0.3175 0.59972-0.74083 0.14111-0.42333 0.14111-0.88194 0-0.77611-0.3175-1.4817-0.3175-0.74083-0.98777-1.4817l2.9633-0.24694q0.49389 0.635 0.84667 1.4464t0.35278 1.905q0 1.1994-0.56445 2.1167-0.56444 0.91722-1.9756 1.5875-0.70555 0.35278-1.6933 0.49389-0.98777 0.14111-2.4342 0.14111zm16.757 6.0678q-1.7286 0-2.928-0.70555t-1.8697-1.905q-0.635-1.2347-0.635-2.6811 0-2.1872 1.0936-3.2808 1.0936-1.0936 2.6458-1.0936 1.27 0 1.9403 0.635 0.70556 0.59972 0.70556 1.6581 0 0.9525-0.52917 1.5522-0.49389 0.56444-1.3053 0.56444-0.98778 0-1.4817-0.49389-0.49389-0.52916-0.49389-1.4464l0.28223-0.35278q-0.24695 0.635-0.35278 1.0936-0.10583 0.42333-0.10583 0.91722 0 0.81139 0.28222 1.5169 0.3175 0.70555 0.9525 1.1289 0.67027 0.42333 1.7639 0.42333 1.7992 0 2.8575-1.1642 1.0583-1.1642 1.0583-3.5983 0-1.4464-0.45862-2.54-0.42333-1.0936-1.27-1.8697-0.59972-0.56444-1.4111-0.9525-0.77611-0.38806-1.9756-0.56444-1.1994-0.21167-3.1044-0.21167h-13.511v-2.7164h13.935q2.1519 0 3.7042 0.3175 1.5875 0.28222 2.7164 0.84666 1.1642 0.56444 2.0108 1.4464 1.0583 1.0583 1.6228 2.6458 0.59972 1.5522 0.59972 3.5983 0 2.2578-0.84667 3.8805-0.81138 1.6228-2.3283 2.5047-1.517 0.84666-3.563 0.84666z"/>
 </g>
</svg>
