<svg width="18.38mm" height="19.465mm" version="1.1" viewBox="0 0 18.38 19.465" xmlns="http://www.w3.org/2000/svg">
 <g transform="translate(-36.419 -32.169)" stroke-width=".26458" aria-label="๒">
  <path d="m54.799 45.88q0 5.7533-6.0978 5.7533h-12.282v-19.465h3.2384v16.399h9.0434q2.9628 0 2.9628-2.7561v-4.9782q0-1.4814-1.3436-2.0843l-1.9465 1.4125-1.9292-1.4125q-0.68902 0.2067-1.3091 1.1024 1.4642 0.10335 2.3427 1.068 0.89572 0.9474 0.89572 2.2049 0 1.3436-0.96462 2.3082-0.96462 0.9474-2.3082 0.9474-1.6364 0-2.7388-1.2402-1.1024-1.2402-1.1024-3.1695 0-2.0843 1.4642-3.8585 1.4814-1.7742 3.7207-2.1704l1.9292 1.5158 1.9465-1.5158q2.0326 0.36173 3.2556 1.7053 1.223 1.3436 1.223 3.1523zm-9.6979-1.4469q0.53399 0 0.91295-0.37896 0.39618-0.39618 0.39618-0.96462 0-0.51676-0.39618-0.8785-0.37896-0.37896-0.91295-0.37896t-0.93017 0.37896q-0.37896 0.36173-0.37896 0.8785 0 0.56844 0.37896 0.96462 0.37896 0.37896 0.93017 0.37896z"/>
 </g>
</svg>
