<svg width="28.293mm" height="27.693mm" version="1.1" viewBox="0 0 28.293 27.693" xmlns="http://www.w3.org/2000/svg">
 <g transform="translate(-24.04 -30.199)" stroke-width=".26458" aria-label="ツ">
  <path d="m36.669 30.199-2.7164 0.91722c0.88194 1.8344 2.8928 7.3025 3.4572 9.3133l2.7517-0.9525c-0.59972-1.9756-2.7164-7.5847-3.4925-9.278zm15.663 2.2578-3.2455-0.91722c-0.70555 5.2917-2.8575 10.936-5.6444 14.499-3.563 4.5155-8.8194 7.9022-13.864 9.3839l2.4342 2.4694c4.9742-1.7639 10.195-5.3975 13.829-10.195 2.8928-3.81 4.7978-8.8547 5.8561-13.229 0.14111-0.56444 0.38806-1.4111 0.635-2.0108zm-25.506-0.14111-2.7869 1.0231c0.84666 1.5169 3.2808 7.4789 3.9511 9.6661l2.7869-1.0231c-0.81139-2.293-3.0339-7.6905-3.9511-9.6661z"/>
 </g>
</svg>
