<svg width="21.202mm" height="34.678mm" version="1.1" viewBox="0 0 21.202 34.678" xmlns="http://www.w3.org/2000/svg">
 <g transform="translate(-37.282 -2.4977)" stroke-width=".26458" aria-label="Å">
  <path fill="white" d="m45.184 22.712c0.91722-2.928 1.7639-5.715 2.5753-8.7489h0.14111c0.84666 2.9986 1.6581 5.8208 2.6105 8.7489l1.2347 3.9511h-7.8316zm-7.9022 14.464h3.3161l2.5047-7.9022h9.4544l2.4694 7.9022h3.4572l-8.7841-25.894h-3.6336zm10.583-28.963c-1.1289 0-2.0461-0.77611-2.0461-2.1519 0-1.3053 0.91722-2.1519 2.0461-2.1519 1.0583 0 2.0108 0.84666 2.0108 2.1519 0 1.3758-0.9525 2.1519-2.0108 2.1519zm0 1.4111c2.1519 0 3.81-1.4111 3.81-3.563 0-2.1872-1.6581-3.563-3.81-3.563-2.2225 0-3.81 1.3758-3.81 3.563 0 2.1519 1.5875 3.563 3.81 3.563z"/>
 </g>
</svg>
