<svg width="27.905mm" height="29.492mm" version="1.1" viewBox="0 0 27.905 29.492" xmlns="http://www.w3.org/2000/svg">
 <g transform="translate(-46.145 -33.238)" stroke-width=".26458" aria-label="キ">
  <path d="m56.2 36.201c0.10583 0.42333 0.35278 1.7992 0.74083 3.7042-3.3161 0.52917-6.3853 0.98778-7.7611 1.1289-1.1289 0.14111-2.0461 0.21167-2.928 0.24694l0.59972 3.175c1.0583-0.24694 1.8697-0.42333 2.8575-0.59972 1.3406-0.24694 4.4097-0.74083 7.7611-1.27 0.42333 2.1872 0.91722 4.6919 1.4111 7.0908-4.0217 0.635-7.8669 1.2347-9.6308 1.4817-0.91722 0.14111-2.293 0.28222-3.1044 0.3175l0.635 3.0692c0.74083-0.21167 1.7286-0.38805 3.1044-0.635 1.7286-0.3175 5.5033-0.9525 9.4897-1.6228 0.67028 3.4925 1.2347 6.35 1.3758 7.1261 0.24694 1.0583 0.35278 2.1167 0.52916 3.3161l3.2103-0.59972c-0.3175-0.98778-0.59972-2.1872-0.84666-3.2103-0.17639-0.81139-0.74083-3.6336-1.4464-7.0908 3.4572-0.52917 6.738-1.0583 8.6783-1.3758 1.3053-0.21167 2.4342-0.38805 3.175-0.45861l-0.56444-2.9633c-0.77611 0.21167-1.7639 0.42333-3.1397 0.67028-1.7639 0.3175-5.1153 0.91722-8.6783 1.4817-0.45861-2.3636-0.9525-4.8683-1.4111-7.0555 3.3867-0.52916 6.5969-1.0583 8.2197-1.3053 0.91722-0.14111 2.0108-0.28222 2.54-0.35278l-0.59972-2.9633c-0.59972 0.17639-1.4817 0.42333-2.5047 0.59972-1.4817 0.28222-4.7272 0.81139-8.1491 1.3758-0.42333-1.9756-0.67028-3.4219-0.74083-3.81-0.10583-0.77611-0.28222-1.7639-0.3175-2.4342l-3.175 0.56444c0.24694 0.70555 0.49389 1.4817 0.67028 2.3989z"/>
 </g>
</svg>
