<svg width="23.46mm" height="18.062mm" version="1.1" viewBox="0 0 23.46 18.062" xmlns="http://www.w3.org/2000/svg">
 <g transform="translate(-41.335 -40.055)">
  <g stroke-width=".26458" aria-label="ఒ">
   <path d="m58.762 58.117q-1.3406 0-2.3989-0.38805-1.0231-0.35278-1.8697-1.1289-0.81139-0.77611-1.5169-2.0461l0.70555-0.03528q-0.91722 1.4464-1.8697 2.2225-0.9525 0.77611-2.0461 1.0583-1.0936 0.3175-2.4694 0.3175-1.9403 0-3.2455-0.67028-1.27-0.70555-1.905-1.8344-0.635-1.1642-0.635-2.5047 0-1.4464 0.56444-2.4694 0.59972-1.0231 1.7639-1.7639 1.1642-0.77611 2.8928-1.3758 1.4464-0.52916 2.2931-1.1289 0.84666-0.59972 0.84666-1.7639 0-0.56444-0.24694-0.98778-0.24694-0.45861-0.84666-0.70555-0.56444-0.28222-1.5522-0.28222-1.5169 0-2.2578 0.59972-0.74083 0.56444-0.74083 1.5875 0 0.45861 0.10583 0.84666 0.14111 0.38806 0.24694 0.635l-2.6458 0.74083q-0.28222-0.52916-0.45861-1.1642-0.14111-0.67028-0.14111-1.4111 0-1.1289 0.59972-2.1167 0.59972-1.0231 1.905-1.6581 1.3053-0.635 3.3867-0.635 2.1167 0 3.3161 0.70555 1.1994 0.70555 1.6933 1.7639 0.52917 1.0583 0.52917 2.1167 0 1.3406-0.52917 2.293-0.52916 0.91722-1.5875 1.5875-1.0231 0.67028-2.5753 1.2347-1.8697 0.70555-2.7869 1.4464-0.88194 0.70555-0.88194 1.8697 0 1.0231 0.70555 1.6581 0.74083 0.59972 2.2578 0.59972 1.4817 0 2.4342-0.49389 0.98778-0.52916 1.4817-1.4817 0.52917-0.9525 0.635-2.1872h2.7517q0.10583 1.4464 0.635 2.3636 0.56444 0.91722 1.4111 1.3758 0.88194 0.42333 1.9403 0.42333 1.7639 0 2.4694-0.70555 0.74083-0.74083 0.74083-1.9403 0-1.3758-0.81139-2.3636-0.77611-0.98778-2.0108-1.7639l1.8697-2.3636q1.4111 0.91722 2.2578 2.0108t1.2347 2.1872q0.38806 1.0583 0.38806 2.0108 0 1.9756-0.77611 3.2455-0.74083 1.27-2.0814 1.8697-1.3406 0.59972-3.175 0.59972z"/>
  </g>
 </g>
</svg>
