<svg width="23.22mm" height="29.335mm" version="1.1" viewBox="0 0 23.22 29.335" xmlns="http://www.w3.org/2000/svg">
 <g transform="translate(-22.823 -21.373)" stroke-width=".26458" aria-label="ме">
  <path d="m46.043 50.708q-5.1332-0.29283-8.5266-3.4623-1.2402 0.24116-2.825 0.24116-5.8566 0-8.9917-3.8413-2.8766-3.514-2.8766-9.4051 0-5.7188 3.135-9.2328 3.2556-3.6346 8.785-3.6346 4.1169 0 6.8213 2.291l-2.1876 2.2565q-1.8087-1.6881-4.7025-1.6881-4.2891 0-6.494 2.9972-1.912 2.6355-1.912 6.9935 0 4.4958 1.8259 7.2175 2.1187 3.1867 6.3217 3.1867-0.31006 0 0.98185-0.08613-1.8776-3.359-1.8776-7.338 0-3.8585 1.3091-5.8222 1.5675-2.3771 5.2021-2.3771 6.0117 0 6.0117 8.0271 0 2.8766-1.3436 5.2538-1.3436 2.3771-3.8413 3.7724 2.6527 1.6709 5.1849 1.7053zm-3.135-13.625q0-5.1676-2.8766-5.1676-1.9982 0-2.7388 1.7742-0.46509 1.1541-0.46509 3.514 0 4.0135 1.757 6.5629 4.3236-1.8948 4.3236-6.6835z"/>
 </g>
</svg>
