<svg width="30.024mm" height="31.281mm" version="1.1" viewBox="0 0 30.024 31.281" xmlns="http://www.w3.org/2000/svg">
 <g transform="translate(-34.624 -40.586)" stroke-width=".26458" aria-label="한">
  <path d="m64.648 53.815h-5.6155v10.611h-2.6699v-23.84h2.6699v10.508h5.6155zm-16.364-9.2501h-8.2682v-2.7561h8.2682zm5.3571 4.2375h-19.017v-2.6183h19.017zm-2.0498 5.9945q0 1.9292-2.2049 3.2901-2.1876 1.3608-5.271 1.3608-3.0834 0-5.271-1.3608-2.1704-1.3608-2.1704-3.2901 0-1.9809 2.1532-3.3073 2.1704-1.3436 5.2882-1.3436 3.2728 0 5.3743 1.3264 2.1015 1.3091 2.1015 3.3245zm-3.0661 0q0-0.8785-1.2058-1.4469-1.1886-0.56844-3.2039-0.56844t-3.2384 0.56844q-1.2058 0.56844-1.2058 1.4469 0 0.89572 1.2058 1.4814 1.2058 0.56844 3.2384 0.56844 2.0154 0 3.2039-0.56844 1.2058-0.58566 1.2058-1.4814zm10.542 17.07h-20.774v-10.749h2.7561v7.9582h18.018z"/>
 </g>
</svg>
