<svg width="32.47mm" height="31.712mm" version="1.1" viewBox="0 0 32.47 31.712" xmlns="http://www.w3.org/2000/svg">
 <g transform="translate(-30.283 -15.573)" stroke-width=".26458" aria-label="é¾">
  <path d="m62.753 41.222q-0.70624 5.3916-3.5657 5.3916h-8.7161q-1.5158 0-2.4805-1.1197-0.9474-1.1024-0.9474-2.6872v-14.917h-16.76v-2.5838h4.9437q-0.31006-1.6192-2.1532-3.5312 1.223-0.48231 1.4469-0.55121v-0.0689h-2.8594v-2.446h5.9256v-3.1006h2.7216v3.1006h5.3571v2.446h-3.0661v0.03445q1.0508 0.43064 1.6192 0.74069-1.0335 2.7216-1.7225 3.3762h4.5475v1.2747h10.094v-1.8431h-10.094v-9.1639h2.6183v2.3599h11.524v2.5838h-11.524v1.7914h10.163v6.7007h-10.094v1.6709h9.7668v2.4288h-9.7668v1.8603h9.7668v2.446h-9.7668v1.7225h9.5257v2.4288h-9.5257v1.5158q0 0.96462 1.0852 0.96462h7.7687q1.4125 0 1.5847-3.8413zm-21.101-20.068h-5.8911q1.5158 1.757 2.1187 4.1513h1.9292q1.1369-1.6709 1.8431-4.1513zm3.0317 22.996q0 1.0508-0.93017 1.8431t-1.9982 0.79237h-2.6527q-0.58566-1.4814-0.77514-2.5666l2.0843 0.0689q1.5847 0.05168 1.5847-1.4814v-1.378h-6.6318v5.8566h-2.6699v-17.38h11.989zm-2.6872-9.9219v-1.757h-6.6318v1.757zm0 4.7714v-2.1876h-6.6318v2.1876z"/>
 </g>
</svg>
