<svg width="17.462mm" height="25.753mm" version="1.1" viewBox="0 0 17.462 25.753" xmlns="http://www.w3.org/2000/svg">
 <g transform="translate(-32.528 -22.619)" stroke-width=".26458" aria-label="𞋢">
  <path fill="white" d="m39.125 48.372q-1.905 0-3.2808-0.42333-1.3406-0.42333-2.293-0.9525l1.3406-1.9756q0.56444 0.35278 1.5875 0.70555t2.6811 0.35278q2.2578 0 4.1275-0.84666 1.905-0.84666 3.0339-2.4694 1.1289-1.6228 1.1289-3.9511 0-1.9756-0.74083-3.2103-0.74083-1.27-2.0108-1.905l-0.74083 1.3406q-1.3758 2.5047-3.0692 3.8453-1.6581 1.3406-3.8453 1.3406-1.9756 0-3.1397-1.0583t-1.1642-2.8928q0-1.6933 1.1642-2.928 1.1642-1.2347 3.1044-1.905 1.9403-0.70555 4.2686-0.70555 1.27 0 2.3989 0.17639l3.0339-5.5386-13.547 3.4219-0.635-2.1872 15.91-3.9864 1.1642 2.1519-3.7394 6.8086q1.905 0.81139 2.9986 2.54 1.1289 1.6933 1.1289 4.4803 0 2.9986-1.4817 5.1858-1.4817 2.1872-3.9511 3.3867-2.4342 1.1994-5.4328 1.1994zm-3.8453-12.136q0 0.70555 0.56444 1.1994 0.59972 0.49389 1.4817 0.49389 1.0231 0 1.905-0.67028 0.91722-0.67028 1.6933-1.6933 0.77611-1.0583 1.3758-2.1519l0.17639-0.3175q-0.56444-0.07056-1.1642-0.07056-1.7639 0-3.1397 0.49389-1.3758 0.45861-2.1519 1.1994-0.74083 0.70555-0.74083 1.5169z"/>
 </g>
</svg>
