<svg width="22.296mm" height="26.07mm" version="1.1" viewBox="0 0 22.296 26.07" xmlns="http://www.w3.org/2000/svg">
 <g transform="translate(-34.395 -35.097)" stroke-width=".26458" aria-label="𞠊">
  <path d="m43.356 61.167q-2.7869 0-4.5861-0.77611-1.7992-0.81139-2.6811-2.1167-0.84666-1.3406-0.84666-2.9633 0-2.2578 1.6228-3.6336t4.4803-1.3758q2.5047 0 4.4097 1.2347 1.9403 1.2347 3.2455 2.8928l-1.7639 1.6933q-0.91722-1.3406-2.5047-2.3636-1.5522-1.0583-3.5278-1.0583-1.4111 0-2.54 0.70555-1.1289 0.67028-1.1289 1.8697t0.88194 1.9756q0.91722 0.74083 2.2578 1.0936 1.3758 0.35278 2.7869 0.35278 3.175 0 5.5386-1.3406 2.3989-1.3406 3.7042-3.7042 1.3053-2.3989 1.3053-5.5033 0-3.3867-1.4464-5.7503-1.4111-2.3636-3.7394-3.5983-2.2931-1.2347-4.9742-1.2347-2.0461 0-4.2333 0.84666-2.1519 0.81139-3.6336 2.4342l-1.5875-1.8697q1.7286-1.8697 4.1628-2.8575 2.4694-1.0231 5.3622-1.0231 2.8575 0 5.1858 1.0583 2.3636 1.0231 4.0569 2.8575 1.6933 1.7992 2.6106 4.1628 0.91722 2.3283 0.91722 4.9742 0 2.5047-0.88194 4.833-0.84666 2.3283-2.54 4.198-1.6933 1.8344-4.198 2.928-2.4694 1.0583-5.715 1.0583zm-0.91722-15.346q0 0.88194-0.52916 1.3758-0.52917 0.49389-1.3758 0.49389-1.8697 0-1.8697-1.8697 0-0.88194 0.52917-1.3758 0.52916-0.52917 1.3406-0.52917 0.84666 0 1.3758 0.52917 0.52916 0.49389 0.52916 1.3758zm6.3853 0q0 0.88194-0.52917 1.3758-0.52916 0.49389-1.3758 0.49389-1.8697 0-1.8697-1.8697 0-0.88194 0.52916-1.3758 0.52917-0.52917 1.3406-0.52917t1.3406 0.52917q0.56444 0.49389 0.56444 1.3758z"/>
 </g>
</svg>
