<svg width="21.237mm" height="25.964mm" version="1.1" viewBox="0 0 21.237 25.964" xmlns="http://www.w3.org/2000/svg">
 <g transform="translate(-18.162 -5.7406)" stroke-width=".26458" aria-label="ð’Œ">
  <path fill="white" d="m32.873 31.705q-2.3636 0-3.7747-1.3758-1.3758-1.3758-1.3758-4.1628 0-0.91722 0.14111-1.7992 0.17639-0.91722 0.17639-1.8697 0-2.0461-1.5169-3.3867l-1.3053-1.1642q-0.9525 0.84666-1.5875 1.5875-0.635 0.70555-0.98778 1.5169-0.3175 0.81139-0.45861 1.9403l-0.84666 8.3255h-3.175l0.84666-8.4666q0.14111-1.4111 0.3175-2.293 0.21167-0.88194 0.59972-1.5522 0.38806-0.70555 1.0936-1.4111 0.70555-0.70555 1.905-1.7286-1.1994-1.2347-2.0108-2.5753t-0.81139-3.0339q0-1.1289 0.52917-2.1519 0.56444-1.0231 1.6933-1.6933 1.1289-0.67028 2.8222-0.67028 1.905 0 3.0339 0.635 1.1642 0.635 1.6581 1.6228 0.52917 0.98778 0.52917 2.0814 0 1.8697-0.84666 3.2455-0.84666 1.3758-2.0461 2.54l0.88194 0.70555q1.5522 1.1994 2.2578 2.4342 0.70555 1.2347 0.70555 2.8222 0 0.9525-0.17639 1.8697-0.14111 0.91722-0.14111 2.0108 0 1.7286 0.52917 2.5047 0.52916 0.74083 1.5169 0.74083 1.4111 0 2.0814-0.81139 0.70555-0.81139 0.91722-1.9756 0.24694-1.1642 0.24694-2.1519 0-0.28222-0.03528-1.0231t-0.21167-1.6228l3.0339-0.74083q0.21167 0.9525 0.24694 1.8697 0.07056 0.88194 0.07056 1.2347 0 2.0461-0.635 3.8805-0.59972 1.7992-2.0461 2.9633-1.4111 1.1289-3.8453 1.1289zm-7.6905-17.78q0.91722-0.81139 1.4464-1.5875 0.52916-0.77611 0.52916-2.0108 0-0.88194-0.59972-1.3406-0.56444-0.45861-1.3758-0.45861-1.0231 0-1.4817 0.635-0.42333 0.635-0.42333 1.1289 0 0.98778 0.49389 1.905 0.52916 0.88194 1.4111 1.7286z"/>
 </g>
</svg>
