<svg width="29.527mm" height="27.834mm" version="1.1" viewBox="0 0 29.527 27.834" xmlns="http://www.w3.org/2000/svg">
 <g transform="translate(-37.651 -18.492)" stroke-width=".26458" aria-label="ã²">
  <path d="m59.699 18.492-2.7869 0.77611c0.24694 0.91722 0.52917 1.7639 0.81139 2.6105 2.2931 13.088-0.70555 21.59-8.8194 21.59-3.5983 0-6.8792-1.6933-6.8792-6.6675 0-7.2319 5.3622-13.441 7.62-15.064 0.49389-0.24694 1.4111-0.49389 1.8697-0.635l-0.81139-2.5047c-2.0814 0.77611-8.0433 1.6228-11.183 1.7639-0.635 0.03528-1.3758 0.03528-1.8697 0l0.21167 2.9633c0.70555-0.10583 1.3053-0.21167 1.9756-0.28222 1.27-0.17639 4.198-0.52916 5.9972-0.81139-3.1397 3.4925-6.5969 8.5725-6.5969 15.169 0 5.8208 4.0569 8.9253 9.5955 8.9253 9.7719 0 12.453-8.4666 11.712-17.357 1.3406 2.6458 2.8928 4.9389 4.7978 6.9497l1.8344-2.5047c-5.2211-4.6567-6.738-10.654-7.4789-14.922z"/>
 </g>
</svg>
