<svg width="24.667mm" height="30.696mm" version="1.1" viewBox="0 0 24.667 30.696" xmlns="http://www.w3.org/2000/svg">
 <g transform="translate(-24.811 -12.494)" stroke-width=".26458" aria-label="Ō">
  <path fill="white" d="m37.042 16.456q6.7007 0 9.9219 4.3064 2.5149 3.359 2.5149 8.5955 0 5.6672-2.8766 9.4223-3.3762 4.4097-9.629 4.4097-5.8394 0-9.1812-3.8585-2.98-3.7207-2.98-9.4051 0-5.1332 2.5494-8.785 3.2728-4.6853 9.6807-4.6853zm0.34451 23.668q4.5303 0 6.5457-3.2384 2.0326-3.2556 2.0326-7.4758 0-4.4614-2.3427-7.183-2.3254-2.7216-6.3734-2.7216-3.9274 0-6.4079 2.7044-2.4805 2.6872-2.4805 7.9409 0 4.203 2.1187 7.0969 2.136 2.8766 6.9074 2.8766zm-0.24116-23.668m-5.8222-3.9619h11.024v2.0326h-11.024z"/>
 </g>
</svg>
