<svg width="20.108mm" height="25.576mm" version="1.1" viewBox="0 0 20.108 25.576" xmlns="http://www.w3.org/2000/svg">
 <g transform="translate(-28.29 -18.85)" stroke-width=".26458" aria-label="𖬕">
  <path d="m33.017 44.426q-2.1519 0-3.4572-1.3406-1.27-1.3406-1.27-3.3867 0-1.4111 0.67028-2.9633l7.7258-17.886h2.8575l8.8547 25.188h-3.3161l-7.1261-21.202-5.5739 13.017q0.17639-0.03528 0.3175-0.03528 0.17639-0.03528 0.3175-0.03528 1.1994 0 2.1872 0.56444 1.0231 0.56444 1.6228 1.5522 0.635 0.9525 0.635 2.1872 0 1.1994-0.635 2.1872-0.59972 0.98778-1.6228 1.5875-0.98778 0.56444-2.1872 0.56444zm0-2.4694q0.81139 0 1.3053-0.52917 0.52916-0.52916 0.52916-1.3406t-0.52916-1.3053q-0.49389-0.52917-1.3053-0.52917-0.77611 0-1.3406 0.49389-0.52916 0.49389-0.52916 1.3406 0 0.81139 0.52916 1.3406 0.56444 0.52917 1.3406 0.52917z"/>
 </g>
</svg>
