<svg width="23.243mm" height="31.953mm" version="1.1" viewBox="0 0 23.243 31.953" xmlns="http://www.w3.org/2000/svg">
 <g transform="translate(-25.196 -36.389)" stroke-width=".26458" aria-label="ཫ">
  <path d="m40.012 39.265q-0.74626 0.5563-1.2076 2.7679-0.17639 0.84124-0.73269 4.8168-0.47489 3.3378-0.93622 5.3731-0.36635-0.36635-0.63771-1.289-0.09498-0.28494-0.09498-0.84124v-10.828h-4.8168q-0.65128 3.6092-1.3975 7.2184-1.479 7.8696-2.5916 13.623-1.5739 7.5847-1.8453 8.236h-0.5563q0.09498 0 0.73269-7.3133 0.74626-8.1546 1.2076-14.26 0.65128-8.0596 0.65128-9.9185v-0.46132h16.201q0.65128 0 1.4382 0.09498t1.2483 0.46132q0 0.5563-0.46132 1.4789-0.17639 0.46132-0.36635 1.0176-0.18996 0.09498-0.28494 0.05427-0.08141-0.05427-0.92265-0.23066 0.37991 1.8453 1.0176 3.0529 1.0176 1.8453 2.7815 3.4192h-0.27137q-1.3026 0-2.5101-0.46132-2.0353-1.8453-3.0529-4.7218-0.09498-0.46132-0.27137-1.289z"/>
 </g>
</svg>
