<svg width="22.376mm" height="26.596mm" version="1.1" viewBox="0 0 22.376 26.596" xmlns="http://www.w3.org/2000/svg">
 <g transform="translate(-30.338 -39.304)" stroke-width=".26458" aria-label="Э">
  <path fill="white" d="m39.364 50.724h9.7496q0.01723-1.602-0.44786-3.1178-0.46509-1.5331-1.4642-2.7216-0.98185-1.1886-2.5321-1.8948-1.5331-0.72347-3.669-0.72347-1.2919 0-2.4805 0.29283-1.1886 0.29283-2.136 0.93017-0.93017 0.63734-1.5503 1.6192-0.62012 0.98185-0.79237 2.3427h-3.3073q0-0.93017 0.27561-1.8948 0.29283-0.96462 0.86127-1.8603 0.58566-0.91295 1.4469-1.7053 0.8785-0.8096 2.0326-1.3953 1.1541-0.60289 2.5838-0.9474 1.4469-0.34451 3.1695-0.34451 1.5158 0 2.9628 0.31006 1.4642 0.29283 2.7561 0.96462 1.2919 0.65457 2.3771 1.6881 1.0852 1.0335 1.8603 2.4977 0.77514 1.4469 1.2058 3.359 0.44786 1.912 0.44786 4.3064 0 2.6527-0.55121 4.7025-0.55121 2.0326-1.4814 3.5312-0.91295 1.4814-2.1187 2.4977-1.2058 0.99908-2.5321 1.6192-1.3091 0.60289-2.6699 0.86127-1.3436 0.25838-2.5321 0.25838-2.446 0-4.3925-0.8096-1.9292-0.8096-3.2728-2.1532t-2.0843-3.0834q-0.72347-1.757-0.74069-3.6518h3.2901q0 1.3608 0.53399 2.5838 0.55121 1.223 1.5331 2.1532 0.98185 0.91295 2.3254 1.4642 1.3608 0.53399 2.98 0.53399 0.84405 0 1.7742-0.18948 0.93017-0.18948 1.8259-0.62012 0.89572-0.44786 1.7053-1.1541 0.82682-0.70624 1.4469-1.7225 0.62012-1.0335 0.98185-2.4116 0.36174-1.378 0.37896-3.1523h-9.7496z"/>
 </g>
</svg>
