<svg width="18.944mm" height="23.777mm" version="1.1" viewBox="0 0 18.944 23.777" xmlns="http://www.w3.org/2000/svg">
 <g transform="translate(-50.1 -50.967)">
  <g stroke-width=".26458" aria-label="рнк">
   <path fill="white" d="m52.781 50.967q0.17639 0.98778 0.49389 1.905 0.3175 0.88194 0.77611 1.5875 0.91722 1.5169 2.1872 2.6811 1.3053 1.1642 2.7517 2.1519 1.4464 0.98778 2.8222 1.9403 1.4111 0.91722 2.54 1.9756 1.1289 1.0231 1.7992 2.3283 0.70555 1.27 0.70555 2.9633 0 1.9403-0.9525 3.3514-0.91722 1.3758-2.5753 2.1519-1.6581 0.74083-3.81 0.74083-1.905 0-3.5983-0.635-1.6581-0.67028-2.7164-2.0461-1.0231-1.3758-1.0231-3.4925 0-1.7639 0.67028-3.0339 0.70555-1.3053 1.8697-2.293 1.1642-1.0231 2.54-1.905 1.4111-0.91722 2.8575-1.8344 1.4817-0.9525 2.7869-2.1167 1.3053-1.1994 2.2225-2.7517 0.49389-0.81139 0.81139-1.7286 0.35278-0.91722 0.49389-1.9403l2.6106 0.35278q-0.3175 2.1872-1.27 3.8453-0.91722 1.6228-2.1872 2.8928-1.27 1.27-2.7164 2.2931-1.4464 1.0231-2.8575 1.905-1.3758 0.88194-2.5047 1.7639-1.1289 0.88194-1.8344 1.905-0.67028 1.0231-0.67028 2.2931 0 1.1642 0.56444 2.0814 0.59972 0.88194 1.6228 1.3758t2.293 0.49389q1.2347 0 2.2578-0.45861t1.6581-1.3406q0.635-0.88194 0.635-2.1167 0-1.4817-0.91722-2.6105-0.88194-1.1289-2.3283-2.1519-1.4111-1.0583-3.0692-2.1519-1.6581-1.1289-3.2455-2.4694-1.5875-1.3758-2.7869-3.2103-1.1642-1.8344-1.5875-4.3039z"/>
  </g>
 </g>
</svg>
