<svg width="24.805mm" height="27.475mm" version="1.1" viewBox="0 0 24.805 27.475" xmlns="http://www.w3.org/2000/svg">
 <g transform="translate(-39.785 -36.586)" stroke-width=".26458" aria-label="ฬ">
  <path fill="white" d="m64.59 36.586q-0.60289 3.3934-3.7724 5.2882v22.186h-3.8413q0-1.6536-2.7216-9.3017-1.3953-3.9274-1.6881-5.0126-0.29283 1.0852-1.6881 5.0126-2.7216 7.6481-2.7216 9.3017h-3.8413v-13.47q-0.53399 0.2067-1.2402 0.2067-1.3436 0-2.3254-0.9474-0.96462-0.96462-0.96462-2.291 0-1.3608 0.96462-2.3254 0.98185-0.96462 2.3254-0.96462 2.0326 0 3.2556 1.2575 1.223 1.2402 1.223 3.359v9.6807q0-0.70624 1.7225-5.4777 2.5494-7.0108 2.5494-8.4921h1.4814q0 1.4642 2.4805 8.3027 1.7914 4.9092 1.7914 5.6672v-15.382q-0.55121 0.1378-1.2058 0.1378-1.3436 0-2.3082-0.9474-0.96462-0.96462-0.96462-2.3082t0.96462-2.3082q0.96462-0.96462 2.3082-0.96462 1.602 0 2.6872 0.79237 1.0852 0.79237 1.4814 2.0671 1.7225-1.1886 2.0326-3.0661zm-8.2165 4.7542q0.53399 0 0.91295-0.36173 0.39618-0.37896 0.39618-0.91295 0-0.56844-0.39618-0.9474-0.37896-0.37896-0.91295-0.37896t-0.93017 0.37896q-0.37896 0.37896-0.37896 0.9474 0 0.53399 0.37896 0.91295 0.39618 0.36173 0.93017 0.36173zm-13.298 7.4758q0.53399 0 0.91295-0.36173 0.39618-0.37896 0.39618-0.89572 0-0.58566-0.39618-0.96462-0.37896-0.37896-0.91295-0.37896-0.53399 0-0.93017 0.39618-0.37896 0.37896-0.37896 0.9474 0 0.51676 0.37896 0.89572 0.39618 0.36173 0.93017 0.36173z"/>
 </g>
</svg>
