<svg width="24.659mm" height="23.389mm" version="1.1" viewBox="0 0 24.659 23.389" xmlns="http://www.w3.org/2000/svg">
 <g transform="translate(-24.731 -11.604)" stroke-width=".26458" aria-label="ܧ">
  <path d="m36.091 15.591q-0.74083 0-1.2347-0.45861t-0.49389-1.5169q0-2.0108 1.7286-2.0108 1.8344 0 1.8344 2.0108 0 0.9525-0.49389 1.4817-0.49389 0.49389-1.3406 0.49389zm6.5264 0q-0.74083 0-1.2347-0.45861-0.49389-0.45861-0.49389-1.5169 0-2.0108 1.7286-2.0108 1.8344 0 1.8344 2.0108 0 0.9525-0.49389 1.4817-0.49389 0.49389-1.3406 0.49389zm-11.148 19.403q-2.928 0-4.5861-0.77611-1.6228-0.77611-2.1519-1.9756l1.5875-2.1167q0.56444 0.77611 1.2347 1.27 0.70555 0.45861 1.7992 0.70555 1.1289 0.21167 2.8928 0.21167h1.4464q0.49389 0 1.0583 0.03528 0.56444 0 1.1289 0.03528v-0.14111q-1.3406-0.59972-2.2225-1.7286-0.88194-1.1642-1.3053-2.6105-0.38806-1.4464-0.38806-2.8928 0-2.1872 0.98778-3.8805 0.98778-1.7286 2.7164-2.6811 1.7286-0.98778 3.8805-0.98778 2.0461 0 3.6336 0.77611 1.5875 0.77611 2.5047 2.1167 0.9525 1.3053 0.9525 3.0339 0 2.1167-1.1289 3.5278-1.1289 1.4111-3.6689 1.4111-2.0461 0-3.2808-1.1994-1.2347-1.1994-1.2347-3.1397l2.0814-0.24694q0.14111 1.1994 0.77611 1.7286 0.67028 0.52916 1.5522 0.52916 1.27 0 1.8344-0.74083 0.59972-0.74083 0.59972-1.8344 0-1.1289-0.635-1.8697-0.635-0.74083-1.6933-1.0936-1.0231-0.38805-2.2225-0.38805-1.3053 0-2.4694 0.56444t-1.8697 1.6581q-0.70555 1.0583-0.70555 2.5753 0 1.9403 0.74083 3.2455 0.77611 1.3053 2.0814 2.1519 1.3053 0.81139 2.928 1.27 1.6228 0.45861 3.3161 0.635 1.7286 0.14111 3.3161 0.14111h2.4342v2.6811z"/>
 </g>
</svg>
