<svg width="21.308mm" height="31.891mm" version="1.1" viewBox="0 0 21.308 31.891" xmlns="http://www.w3.org/2000/svg">
 <g transform="translate(-34.93 -54.223)" stroke-width=".26458" aria-label="𑣿">
  <path fill="white" d="m46.783 65.547q0 0.56444-0.38805 0.9525-0.38806 0.38806-1.0936 0.38806-0.28222 0-0.70555-0.10583t-0.91722-0.24694q-0.9525-0.28222-2.2225-0.28222-3.4219 0-3.4219 4.833 0 8.8194 8.1491 12.488 6.9497-3.4572 6.9497-11.889 0-4.3039-3.0339-4.3039-2.1519 0-3.1397 3.3161 0.91722 2.0108 0.91722 3.81 0 2.9986-1.4817 4.5508-1.5169-1.4817-1.5169-4.5508 0-1.8697 1.0583-3.81-0.42333-1.2347-2.2578-1.2347-1.8697 0-1.8697 2.293 0 4.7272 4.4803 9.4544l-0.635 0.74083q-5.9972-3.7747-5.9972-10.442 0-2.0814 0.98778-3.1044 1.0231-1.0583 2.54-1.0583t2.6106 0.84666h0.17639q1.4817-3.5278 4.7272-3.5278 2.6811 0 4.0922 1.6228 1.4464 1.5875 1.4464 4.2686 0 5.3975-2.5753 9.3839-2.54 3.9864-7.4789 6.1736-5.5386-2.1872-8.3961-6.2089-2.8575-4.0569-2.8575-9.525 0-3.0339 1.6228-4.7978 1.6581-1.7992 4.6919-1.7992 1.9403 0 3.5983 1.0231 0.3175 0.21167 0.56444 0.21167 0.28222 0 0.35278-0.21167 0.10583-0.21167 0.10583-0.35278 0-0.28222-0.28222-0.84666-0.84666-1.8697-0.84666-4.2333 0-3.4219 1.4111-5.1505 1.4111 1.8344 1.4111 5.1505 0 1.1994-0.21167 2.2578-0.17639 1.0583-0.59972 1.9756-0.21167 0.42333-0.21167 0.77611 0 0.24694 0.10583 0.52917 0.14111 0.3175 0.14111 0.635z"/>
 </g>
</svg>
