<svg width="36.407mm" height="25.4mm" version="1.1" viewBox="0 0 36.407 25.4" xmlns="http://www.w3.org/2000/svg">
 <text x="-21.247622" y="29.9181" fill="#000000" font-family="Helvetica" font-size="35.278px" stroke-width=".26458" xml:space="preserve"><tspan x="-21.247622" y="29.9181" font-family="'Noto Serif Ethiopic'" stroke-width=".26458"/></text>
 <g transform="translate(-62.915 -38.858)" stroke-width=".26458" aria-label="ጨ">
  <path d="m65.914 64.258q-1.6581-0.35278-2.3283-1.27-0.67028-0.91722-0.67028-2.7164v-8.8547q0-4.0217 1.5522-6.7733 1.5522-2.7517 4.445-4.1628 2.928-1.4111 6.9144-1.4111h3.3514v1.6581q0.42333-0.38805 1.1289-0.81139 0.74083-0.45861 1.7639-0.74083 1.0583-0.3175 2.4694-0.3175 2.7164 0 4.3392 0.98778 1.6581 0.98778 2.3989 2.7869 0.77611 1.7992 0.77611 4.2333 0 1.2347-0.03528 2.3989 0 1.1289 0 2.2931 0 1.1289-0.03528 2.3283 0 1.1994 0 2.54h3.1044q2.0461 0 3.1397 0.84666 1.0936 0.81139 1.0936 2.54 0 1.8344-1.1994 3.1397t-3.3514 1.3053h-3.2455q-1.6581-0.35278-2.3283-1.27-0.67028-0.91722-0.67028-2.7164 0-2.5753 0-4.9036 0.03528-2.3283 0.03528-4.4097 0.03528-2.1167 0.03528-3.9158 0-3.1044-1.1994-4.6919-1.1642-1.6228-3.6689-1.6228-1.6581 0-2.8222 0.635-1.1289 0.635-1.7286 1.3406v13.723h3.1044q2.0461 0 3.1397 0.84666 1.0936 0.81139 1.0936 2.54 0 1.8344-1.1994 3.1397-1.1994 1.3053-3.3514 1.3053h-3.2455q-1.6581-0.35278-2.3283-1.27t-0.67028-2.7164v-19.438q-3.2103 0-5.2917 1.2347-2.0461 1.2347-3.0692 3.7042-0.98778 2.4342-0.98778 6.103v4.5508h3.1044q2.0461 0 3.1397 0.84666 1.0936 0.81139 1.0936 2.54 0 1.8344-1.1994 3.1397t-3.3514 1.3053zm2.2225-1.2347q1.0936 0 1.6228-0.74083 0.56444-0.74083 0.56444-2.1167 0-1.27-0.59972-1.8344-0.56444-0.56444-1.5875-0.56444h-1.7639v2.928q0 1.3053 0.49389 1.8344 0.49389 0.49389 1.27 0.49389zm12.806 0q1.0936 0 1.6228-0.74083 0.56444-0.74083 0.56444-2.1167 0-1.27-0.59972-1.8344-0.56444-0.56444-1.5875-0.56444h-1.7639v2.928q0 1.3053 0.49389 1.8344 0.49389 0.49389 1.27 0.49389zm12.806 0q1.0936 0 1.6228-0.74083 0.56444-0.74083 0.56444-2.1167 0-1.27-0.59972-1.8344-0.56444-0.56444-1.5875-0.56444h-1.7639v2.928q0 1.3053 0.49389 1.8344 0.49389 0.49389 1.27 0.49389z"/>
 </g>
</svg>
