<svg width="20.963mm" height="25.804mm" version="1.1" viewBox="0 0 20.963 25.804" xmlns="http://www.w3.org/2000/svg">
 <g transform="translate(-41.399 -63.174)" stroke-width=".26458" aria-label="Л">
  <path fill="white" d="m58.969 66.137h-9.0434q0 2.9456-0.0689 5.7877t-0.29283 5.3916q-0.22393 2.5321-0.67179 4.6681-0.44786 2.136-1.223 3.7035-0.77514 1.5503-1.9292 2.4288-1.1369 0.86127-2.7733 0.86127-0.49954 0-0.84405-0.08613-0.32728-0.08613-0.72347-0.18948v-3.135q0.18948 0.08613 0.46509 0.15503 0.29283 0.05168 0.82682 0.05168 0.79237 0 1.3608-0.56844 0.58566-0.58566 0.99908-1.6192t0.67179-2.446q0.27561-1.4297 0.43064-3.1006 0.17225-1.6709 0.24116-3.5312 0.08613-1.8603 0.12058-3.7724 0.05168-1.9292 0.05168-3.8413 0.01722-1.9292 0.05168-3.7207h15.744v25.321h-3.3934z"/>
 </g>
</svg>
