<svg width="34.431mm" height="18.45mm" version="1.1" viewBox="0 0 34.431 18.45" xmlns="http://www.w3.org/2000/svg">
 <g transform="translate(-39.463 -65.741)" stroke-width=".26458" aria-label="Þ">
  <path fill="white" d="m58.901 69.304q-0.70555 0-1.1994-0.45861-0.45861-0.49389-0.45861-1.1994 0-0.81139 0.56444-1.3406 0.56444-0.56444 1.3053-0.56444 0.74083 0 1.1994 0.49389 0.49389 0.49389 0.49389 1.1994 0 0.81139-0.59972 1.3406-0.59972 0.52916-1.3053 0.52916zm-3.7394 4.445q-0.70555 0-1.1994-0.45861-0.45861-0.49389-0.45861-1.1994 0-0.81139 0.56444-1.3406 0.59972-0.56444 1.3053-0.56444 0.74083 0 1.1994 0.49389 0.49389 0.49389 0.49389 1.1994 0 0.81139-0.59972 1.3406-0.59972 0.52916-1.3053 0.52916zm6.7028 0q-0.70555 0-1.1642-0.45861-0.45861-0.49389-0.45861-1.1994 0-0.81139 0.56444-1.3406 0.56444-0.56444 1.3053-0.56444 0.70555 0 1.1994 0.49389 0.49389 0.49389 0.49389 1.1994 0 0.81139-0.59972 1.3406-0.59972 0.52916-1.3406 0.52916zm-20.602 10.442q-0.81139 0-1.3053-0.42333-0.49389-0.42333-0.49389-1.0936t0.45861-0.98778q0.45861-0.3175 1.3053-0.635 0.81139-0.3175 1.7639-0.98778 0.9525-0.70555 1.1642-1.5522-0.91722-0.49389-1.5169-1.0936-0.59972-0.59972-0.59972-1.6228 0-0.98778 0.77611-1.8697 0.81139-0.91722 1.9756-0.91722 1.3406 0 2.1872 0.91722 0.88194 0.88194 0.98778 2.3283 1.9756 0.28222 4.2686 0.45861 2.3283 0.14111 5.1858 0.14111 2.2931 0 4.445-0.14111 2.1519-0.14111 3.81-0.38806 1.6933-0.24694 2.4342-0.59972 0.91722-0.42333 1.6228-1.1289 0.70555-0.74083 1.1289-1.5875 0.38806-0.77611 0.74083-1.1289t1.0231-0.35278q1.27 0 1.27 1.4111 0 0.67028-0.21167 1.1994-0.17639 0.52916-0.49389 1.0936-0.81139 1.3758-2.1519 2.2931-1.5522 1.0936-3.7042 1.6228-2.1167 0.49389-4.6214 0.67028-2.4694 0.14111-5.1153 0.14111-3.5278 0-5.9619-0.21167-2.3989-0.21167-4.2333-0.45861-0.52917 1.1994-1.7286 2.3636-1.1642 1.1289-2.3636 1.8344-0.56444 0.3175-1.0936 0.52916-0.49389 0.17639-0.9525 0.17639z"/>
 </g>
</svg>
