<svg width="27.164mm" height="25.224mm" version="1.1" viewBox="0 0 27.164 25.224" xmlns="http://www.w3.org/2000/svg">
 <g transform="translate(-58.828 -54.071)" stroke-width=".26458" aria-label="ࠀ">
  <path d="m59.569 79.294q-0.42333-0.88194-0.59972-2.1167-0.14111-1.2347-0.14111-2.4342 0-2.5047 0.88194-5.2564 0.91722-2.7869 2.2931-5.468 1.3758-2.7164 2.8222-4.9742-1.27-0.59972-2.6106-0.91722l1.0936-4.0569q3.175 0.67028 5.3975 3.0692 2.2578 2.3636 3.8805 6.0325 1.0936-1.4817 2.3989-3.0339 1.3406-1.5875 2.7869-2.9633 1.4817-1.3758 2.928-2.2225l2.0814 3.4925q-5.2211 3.1397-9.1016 7.5142 0.49389 1.3053 0.91722 2.7869 0.42333 1.4464 0.84666 2.9633 0.52916-0.9525 1.4464-2.1872 0.9525-1.27 2.1167-2.5753t2.3989-2.4342q1.27-1.1289 2.4694-1.8344l2.1167 3.7042q-2.9986 1.8344-5.6444 4.2686-2.6458 2.4342-4.6567 5.0447l-1.9403-0.38805q-1.27-5.5033-2.9986-9.2428-1.6933-3.7747-4.1275-5.8208-1.1994 2.1167-2.0108 4.5155-0.77611 2.3636-1.1642 4.6919-0.38805 2.293-0.38805 4.1628 0 1.27 0.14111 2.3283 0.14111 1.0583 0.49389 1.7992z"/>
 </g>
</svg>
