<svg width="25.823mm" height="31.327mm" version="1.1" viewBox="0 0 25.823 31.327" xmlns="http://www.w3.org/2000/svg">
 <g transform="translate(-35.13 -10.406)" stroke-width=".26458" aria-label="উ">
  <path d="m53.404 20.637q-0.03528-1.4464-0.70555-2.0814-0.635-0.635-2.1167-0.635h-4.9389q-2.293 0-3.563-0.3175-1.2347-0.3175-2.1167-0.98778-0.9525-0.70555-1.4464-1.7992-0.45861-1.1289-0.45861-2.54 0-0.45861 0.03528-0.91722 0.07055-0.45861 0.14111-0.9525l2.6105 0.17639q-0.07055 0.42333-0.10583 0.74083-0.03528 0.3175-0.03528 0.59972 0 0.77611 0.14111 1.3758 0.17639 0.59972 0.52917 0.98778 0.49389 0.56444 1.4111 0.84666 0.91722 0.24694 2.6811 0.24694h4.3744q1.8697 0 2.9633 0.28222 1.0936 0.28222 1.8697 1.0231 0.59972 0.56444 0.91722 1.5522 0.3175 0.9525 0.35278 2.3989zm7.5494 0v2.5047h-12.912v6.3147q0 1.0231 0.3175 1.5169 0.3175 0.45861 0.98778 0.45861 0.67028 0 1.3758-0.42333 0.74083-0.42333 1.5875-1.3406 0.84666-0.91722 1.8344-2.3636l2.1167-0.3175q1.1289 1.6581 1.7286 3.4219 0.635 1.7639 0.635 3.5278 0 2.2225-0.98778 3.9864-0.9525 1.7639-2.8575 2.7869-1.8697 1.0231-4.5861 1.0231-2.3283 0-4.3392-0.81139-2.0108-0.81139-3.7042-2.6106-1.6933-1.8344-3.1044-4.7978-1.4111-2.9986-2.54-7.3378l2.6811-0.70555q1.27 4.9036 2.7869 7.9022 1.5522 2.9633 3.5278 4.3392 1.9756 1.3406 4.5508 1.3406 2.8222 0 4.3392-1.4111 1.5522-1.4111 1.5522-3.6336 0-1.5875-0.45861-2.7164-0.42333-1.1289-1.1289-1.8697l1.6228-0.67028q-1.0583 1.7992-2.1872 2.9633-1.0936 1.1642-2.2225 1.7639-1.0936 0.56444-2.1872 0.56444-0.81139 0-1.5169-0.21167-0.70555-0.24694-1.1994-0.70555-0.56444-0.49389-0.9525-1.3758-0.38806-0.91722-0.38806-3.0339v-5.5739h-10.195v-2.5047z"/>
 </g>
</svg>
