<svg width="13.511mm" height="25.647mm" version="1.1" viewBox="0 0 13.511 25.647" xmlns="http://www.w3.org/2000/svg">
 <g transform="translate(-35.042 -20.702)" stroke-width=".26458" aria-label="ꂹ">
  <path fill="white" d="m41.78 46.349q-2.3636 0-3.8805-0.88194-1.4817-0.88194-2.1872-2.4342-0.67028-1.5875-0.67028-3.563v-18.768h2.3989v18.803q0 1.8344 0.59972 2.8928 0.635 1.0231 1.6228 1.4464 1.0231 0.42333 2.1519 0.42333 1.1289 0 2.0814-0.42333 0.98778-0.42333 1.5875-1.4464 0.635-1.0583 0.635-2.8928v-18.803h2.4342v18.768q0 1.9756-0.70555 3.563-0.70555 1.5522-2.1872 2.4342-1.4817 0.88194-3.8805 0.88194zm1.3758-19.826-4.0217-2.8222 1.27-1.8344 4.0569 2.8222zm0 6.35-4.0217-2.7869 1.27-1.8344 4.0569 2.8222zm0 6.3853-4.0217-2.8222 1.27-1.8344 4.0569 2.8222z"/>
 </g>
</svg>
