<svg width="29.28mm" height="29.457mm" version="1.1" viewBox="0 0 29.28 29.457" xmlns="http://www.w3.org/2000/svg">
 <g transform="translate(-18.624 -6.9214)">
  <g stroke-width=".26458" aria-label="む">
   <path d="m28.501 6.9214h-3.1044c0.21167 0.74083 0.28222 1.9403 0.28222 3.3514v1.7992c-0.49389 0.03528-0.98778 0.03528-1.4817 0.03528-1.7286 0-3.4925-0.17639-5.5739-0.49389l0.14111 2.6106c2.0461 0.24694 4.0922 0.35278 5.6092 0.35278 0.42333 0 0.84666 0 1.3053-0.03528v3.4925c-0.28222-0.03528-0.59972-0.07055-0.9525-0.07055-3.4572 0-5.7855 3.3161-5.7855 6.9497 0 4.0922 2.5753 5.5739 4.5508 5.5739 0.38806 0 0.77611-0.03528 1.1289-0.10583-0.03528 0.56444-0.03528 1.1289-0.03528 1.6933 0 2.6458 1.0231 4.3039 8.1139 4.3039 2.3283 0 5.7855-0.28222 7.3025-0.70555 3.2103-0.84666 4.445-2.3989 4.5861-5.715 0.07055-1.4464 0.03528-2.3636 0-3.81l-2.9986-0.91722c0.17639 1.4111 0.21167 2.5753 0.21167 3.9864 0 2.3283-1.0936 3.3867-2.928 3.9158-1.27 0.35278-4.0217 0.635-5.9972 0.635-5.1153 0-5.6444-0.77611-5.6444-2.7164 0-0.635 0.03528-1.4817 0.07056-2.2225 1.4111-1.5875 1.8697-4.0217 1.8697-5.9972 0-1.2347-0.3175-2.3283-0.88194-3.1397v-5.3269c2.1872-0.21167 4.5861-0.56444 6.7733-1.0583v-2.7164c-2.2225 0.59972-4.5508 1.0231-6.7733 1.27v-1.5875c0-1.3053 0.10583-2.6106 0.21167-3.3514zm12.347 3.563-1.7992 1.8344c1.9403 1.4111 5.1505 4.445 6.8792 6.6675l1.9756-2.0108c-1.5875-1.9756-4.9742-5.08-7.0555-6.4911zm-17.074 17.392c-1.27 0-2.4342-1.1289-2.4342-3.1044 0-2.6458 1.4817-4.5155 3.2455-4.5155 1.2347 0 2.0461 1.0231 2.0461 2.7164 0 2.3636-0.74083 4.9036-2.8575 4.9036z"/>
  </g>
 </g>
</svg>
