<svg width="29.774mm" height="31.609mm" version="1.1" viewBox="0 0 29.774 31.609" xmlns="http://www.w3.org/2000/svg">
 <g transform="translate(-40.821 -39.404)">
  <g stroke-width=".26458" aria-label="àª">
   <path d="m51.828 67.379q-1.6228 0-3.0692-0.45861-1.4464-0.45861-2.6811-1.5522-1.2347-1.1289-2.2225-2.9986l0.74083-2.0461q1.9756-0.28222 3.3514-1.4817 1.3758-1.2347 1.3758-2.9986 0-1.6933-0.98778-2.6106-0.9525-0.91722-3.0339-0.91722-0.77611 0-1.7639 0.21167-0.9525 0.17639-1.7639 0.56444l-0.9525-2.3989q0.84666-0.38806 2.0814-0.67028 1.2347-0.28222 2.5047-0.28222 2.1519 0 3.6336 0.74083 1.5169 0.70555 2.293 2.0814 0.81139 1.3758 0.81139 3.3514 0 1.9403-1.1642 3.4925-1.1289 1.5169-2.9986 2.3989-1.8697 0.84666-4.1275 0.84666-0.9525 0-1.5875-0.24694-0.635-0.24694-0.98778-0.70555-0.3175-0.49389-0.3175-1.1642 0-0.70555 0.49389-1.1994 0.52916-0.52917 1.5875-0.52917 1.0936 0 1.7992 0.45861 0.70555 0.42333 1.4817 1.3406l0.49389 1.3758q0.635 1.3758 1.905 2.1167t2.8928 0.74083q1.3406 0 2.293-0.38806 0.9525-0.38806 1.5522-1.0583 0.88194-0.98778 1.1289-2.2578 0.28222-1.27 0.28222-3.2103v-2.6811l2.8222 0.35278v3.1044q0 2.8928-1.0231 4.833-0.98778 1.9403-2.7869 2.8928-1.7639 0.9525-4.0569 0.9525zm9.913-4.4097q-0.88194 0-1.7286-0.3175-0.84666-0.3175-1.5522-1.1289-0.70555-0.81139-1.1994-2.2578l2.0461-0.81139q0.28222 1.1289 0.91722 1.5522 0.635 0.42333 1.4817 0.42333 1.27 0 2.1872-0.67028 0.91722-0.70555 1.6933-1.905l0.59972 2.8928q-0.88194 1.0583-1.905 1.6581-0.98778 0.56444-2.54 0.56444zm8.1844 8.0433q-1.5169 0-2.54-0.3175-0.98778-0.35278-1.5875-0.98778-0.56444-0.59972-0.84666-1.4817-0.24694-0.88194-0.24694-2.4342v-16.051l2.8222 0.38805v15.522q0 0.9525 0.10583 1.4111 0.10583 0.42333 0.3175 0.70555 0.38806 0.49389 1.1289 0.59972 0.77611 0.07055 1.5169 0.07055l-0.28222 2.5753zm-4.8683-22.613q-0.56444-2.5047-1.1642-3.9158-0.59972-1.4464-1.4111-2.0108-0.77611-0.59972-2.0108-0.59972-0.35278 0-0.88194 0.10583-0.49389 0.07056-0.9525 0.24694l-0.81139-2.3989q0.70555-0.24694 1.4464-0.3175 0.74083-0.10583 1.3758-0.10583 1.27 0 2.293 0.42333 1.0231 0.42333 1.8344 1.4464 0.81139 1.0231 1.4464 2.7869 0.635 1.7286 1.0936 4.3392zm-1.5875 0.59972q-1.27-1.1289-2.3283-1.7992-1.0231-0.67028-1.9756-0.9525-0.9525-0.3175-2.0108-0.3175-0.67028 0-1.1994 0.10583-0.52917 0.10583-0.84666 0.24694l-0.81139-2.4342q0.56444-0.17639 1.2347-0.28222 0.70555-0.10583 1.5875-0.10583 1.3758 0 2.5753 0.42333 1.1994 0.38806 2.4342 1.3053 1.27 0.88194 2.7869 2.3636z"/>
  </g>
 </g>
</svg>
