<svg width="31.291mm" height="32.314mm" version="1.1" viewBox="0 0 31.291 32.314" xmlns="http://www.w3.org/2000/svg">
 <g transform="translate(-43.755 -19.133)" stroke-width=".26458" aria-label="⻩">
  <path d="m54.198 45.521c-2.2578 1.4464-6.738 3.1397-10.301 4.0217 0.59972 0.49389 1.4111 1.3758 1.7992 1.905 3.563-0.9525 8.008-2.6811 10.866-4.4097zm8.3608 1.6581c3.9511 1.3758 7.9375 2.9986 10.336 4.1628l1.9403-1.7639c-2.5753-1.1642-6.8439-2.7869-10.689-4.0569zm-7.4436-22.578h8.5725v3.3867h-8.5725zm13.688 10.266v3.1044h-8.1491v-3.1044zm0 8.0786h-8.1491v-3.1397h8.1491zm-18.697-3.1397h7.9022v3.1397h-7.9022zm0-4.9389h7.9022v3.1044h-7.9022zm16.263-6.8792v-3.3867h6.3147v-2.3636h-6.3147v-3.1044h-2.6811v3.1044h-8.5725v-3.1044h-2.6106v3.1044h-6.2089v2.3636h6.2089v3.3867h-8.7489v2.3989h14.252v2.54h-10.442v11.994h23.848v-11.994h-10.76v-2.54h14.393v-2.3989z"/>
 </g>
</svg>
