<svg width="20.24mm" height="31.85mm" version="1.1" viewBox="0 0 20.24 31.85" xmlns="http://www.w3.org/2000/svg">
 <g transform="translate(-35.751 -34.416)" stroke-width=".26458" aria-label="Й">
  <path fill="white" d="m42.504 34.416q0.24116 1.3953 1.1024 1.9809 0.8785 0.58566 2.2565 0.58566 1.3953 0 2.2565-0.63734 0.86127-0.63734 1.1024-1.9292h3.1178q0 1.1197-0.48231 2.0154-0.46509 0.89572-1.3264 1.5331-0.84405 0.63734-2.0498 0.98185-1.1886 0.32728-2.6183 0.32728-1.5158 0-2.7216-0.36173-1.2058-0.37896-2.0498-1.0163-0.82682-0.65457-1.2747-1.5331-0.43064-0.89572-0.41341-1.9465zm-6.7524 6.5284h3.3762v20.481h0.0689l12.885-20.481h3.9102v25.321h-3.3934v-20.602h-0.0689l-12.867 20.602h-3.9102z"/>
 </g>
</svg>
