<svg width="20.355mm" height="21.943mm" version="1.1" viewBox="0 0 20.355 21.943" xmlns="http://www.w3.org/2000/svg">
 <text x="7.6446915" y="33.703804" fill="#000000" font-family="'Noto Serif Ethiopic'" font-size="35.278px" stroke-width=".26458" xml:space="preserve"><tspan x="7.6446915" y="33.703804" stroke-width=".26458"/></text>
 <g transform="translate(-32.931 -36.863)" stroke-width=".26458" aria-label="рдв">
  <path d="m43.761 58.805q-2.7517 0-4.833-0.9525-2.0461-0.98778-3.2103-2.7869-1.1642-1.8344-1.1642-4.4097 0-2.4694 1.27-4.1275 1.27-1.6933 3.3514-2.54 2.1167-0.88194 4.5861-0.91722h0.24694l-0.3175 0.38806v-4.0922h-10.76v-2.5047h20.355v2.5047h-6.7733v6.2089h-1.3758q-2.2578 0-3.4925 0.3175-1.1994 0.28222-2.0814 0.88194-1.0583 0.67028-1.6228 1.7286-0.56444 1.0583-0.56444 2.5047 0 1.5169 0.59972 2.6458 0.635 1.0936 1.8344 1.7639 1.1994 0.67028 2.8575 0.91722 0.28222 0.03528 0.77611 0.03528 0.49389-0.03528 0.77611-0.03528 1.9756 0 3.2455-0.81139 1.27-0.81139 1.27-2.2578 0-1.0583-0.635-1.6581-0.59972-0.59972-1.5875-0.59972-1.2347 0-2.0108 0.77611-0.77611 0.74083-0.77611 2.0814 0 0.98778 0.3175 1.8344 0.3175 0.81139 1.0231 1.8344l-2.5047 0.49389q-0.67028-1.2347-1.0583-2.3283-0.35278-1.1289-0.35278-2.4342 0-1.1994 0.56444-2.2578 0.59972-1.0583 1.7286-1.6933 1.1642-0.67028 2.8928-0.67028 1.7286 0 2.8222 0.67028 1.1289 0.635 1.6581 1.6933 0.56444 1.0583 0.56444 2.2578 0 2.4694-2.0461 4.0217-2.0108 1.5169-5.5739 1.5169z"/>
 </g>
</svg>
