<svg width="20.757mm" height="25.321mm" version="1.1" viewBox="0 0 20.757 25.321" xmlns="http://www.w3.org/2000/svg">
 <g transform="translate(-29.411 -26.044)" stroke-width=".26458" aria-label="Я">
  <path d="m50.168 51.365h-3.3934v-10.766h-6.3045q-1.0508 0-1.7742 0.03445-0.70624 0.01723-1.223 0.10335-0.49954 0.0689-0.86127 0.20671-0.34451 0.12058-0.67179 0.32728-0.39618 0.25838-0.68902 0.58566-0.29283 0.31006-0.51676 0.79237-0.2067 0.48231-0.34451 1.1886-0.1378 0.70624-0.2067 1.7398l-0.17225 2.7561q-0.03445 0.49954-0.08613 0.91295-0.05168 0.39618-0.1378 0.74069-0.08613 0.34451-0.2067 0.68902-0.10335 0.32728-0.27561 0.68902h-3.893q0.20671-0.22393 0.39619-0.49954 0.18948-0.27561 0.34451-0.65457 0.15503-0.39618 0.27561-0.93017t0.18948-1.2747l0.29283-3.4451q0.0689-0.86127 0.2067-1.6536 0.1378-0.79237 0.49954-1.4814 0.36173-0.68902 1.0508-1.2402 0.70624-0.55121 1.912-0.91295-0.55121-0.2067-1.2919-0.55121t-1.4297-1.0163q-0.67179-0.67179-1.1541-1.757-0.46509-1.1024-0.46509-2.7905 0-1.2058 0.27561-2.1876 0.27561-0.98185 0.72347-1.7398 0.44786-0.77514 1.0163-1.3091 0.58566-0.55121 1.1886-0.89572 0.63734-0.36173 1.4642-0.56844 0.84405-0.20671 1.7053-0.29283 0.86127-0.08613 1.6536-0.10335 0.8096-0.01723 1.4125-0.01723h10.49zm-3.3934-22.324h-7.7514q-0.44786 0-0.91295 0.01723-0.46509 0-0.93017 0.05168t-0.89572 0.17226q-0.43064 0.10335-0.79237 0.31006-0.51676 0.29283-0.8785 0.72347t-0.60289 0.9474q-0.22393 0.51676-0.32728 1.068-0.10335 0.55121-0.10335 1.0852 0 0.36173 0.05168 0.8096 0.05168 0.43064 0.22393 0.91295 0.17225 0.46509 0.48231 0.93017 0.31006 0.44786 0.82682 0.82682 0.44786 0.34451 0.89572 0.53399 0.46509 0.17225 0.98185 0.25838 0.51676 0.0689 1.1024 0.0689 0.60289 0 1.3264-0.01722h7.3036z"/>
 </g>
</svg>
