<svg width="15.417mm" height="30.024mm" version="1.1" viewBox="0 0 15.417 30.024" xmlns="http://www.w3.org/2000/svg">
 <g transform="translate(-39.706 -35.049)" stroke-width=".26458" aria-label="ᡲ">
  <path d="m45.39 65.073q1.8431-1.3091 1.8431-3.6346 0-1.3953-0.55121-2.8077-0.55121-1.4297-3.2384-6.115-2.6699-4.7025-3.7379-6.4251h15.417v2.825h-10.852l0.96462 1.5675q2.7216 4.358 3.7379 6.5973 1.0335 2.2221 1.0335 4.358 0 1.1886-0.43064 2.1532-0.41341 0.98185-1.1197 1.4814zm-1.8431-25.838q0 1.0335 0.68902 1.7398 0.68902 0.70624 1.7225 0.70624 1.0163 0 1.7225-0.70624t0.70624-1.7398q0-1.0163-0.70624-1.7053-0.70624-0.68902-1.7225-0.68902-1.0335 0-1.7225 0.68902-0.68902 0.68902-0.68902 1.7053zm-1.7914 0q0-1.7225 1.223-2.9456 1.223-1.2402 2.98-1.2402 1.7225 0 2.9456 1.223 1.2402 1.223 1.2402 2.9628t-1.2402 2.98q-1.223 1.223-2.9456 1.223-1.7398 0-2.98-1.223-1.223-1.2402-1.223-2.98z"/>
 </g>
</svg>
