<svg width="22.996mm" height="26.458mm" version="1.1" viewBox="0 0 22.996 26.458" xmlns="http://www.w3.org/2000/svg">
 <g transform="translate(-58.973 -44.338)" stroke-width=".26458" aria-label="რ">
  <path d="m78.834 61.805q0-3.2556-0.99908-4.8403-0.99908-1.5847-2.8422-1.5847-1.4125 0-2.2049 1.1541-0.79237 1.1541-0.79237 3.0489v6.3734h-3.135v-6.3734q0-1.9809-0.77514-3.0834-0.77514-1.1197-2.1532-1.1197-1.7742 0-2.8077 1.5675-1.0163 1.5675-1.0163 4.8231 0 2.3943 0.67179 4.7025 0.68902 2.3082 1.9465 4.3236h-3.2728q-1.2919-2.0326-1.8948-4.5303-0.58566-2.5149-0.58566-6.5112 0-5.8739 2.4116-9.1984 2.4116-3.3245 7.4069-4.3408l3.2384-0.67179q0.77514-0.17225 1.2919-0.48231 0.53399-0.31006 0.72347-0.72347h3.2039q-0.15503 1.1369-0.74069 1.8776-0.56844 0.72347-1.6536 1.2058-1.0852 0.48231-2.8594 0.82682l-2.8594 0.56844q-2.9283 0.56844-4.8576 2.1876-1.9292 1.6192-2.6527 4.6853h0.10335q0.60289-1.4297 1.7053-2.1876 1.1024-0.77514 2.4977-0.77514 1.2058 0 2.0154 0.37896t1.3608 1.1713q0.55121 0.77514 0.99908 2.0843h0.1378q0.63734-1.8259 1.9637-2.7216 1.3264-0.91295 3.0834-0.91295 2.0326 0 3.4968 1.1369 1.4642 1.1197 2.2221 3.135 0.75792 2.0154 0.75792 4.6681 0 2.6872-0.60289 4.9092-0.58566 2.2221-1.8603 4.2202h-3.3073q1.3264-2.0498 1.9809-4.2547 0.65457-2.2221 0.65457-4.737z"/>
 </g>
</svg>
