<svg width="25.683mm" height="20.137mm" version="1.1" viewBox="0 0 25.683 20.137" xmlns="http://www.w3.org/2000/svg">
 <g transform="translate(-58.167 -68.987)">
  <g stroke-width=".26458" aria-label="ฒ">
   <path fill="white" d="m83.85 88.847h-3.0317q-2.4977-3.1523-5.581-4.0135v0.48231q0 1.8259-0.98185 2.825-0.98185 0.98185-2.6527 0.98185-1.4814 0-2.3599-0.8096-0.8785-0.82682-0.8785-2.2221 0-1.3953 0.93017-2.3599 0.9474-0.98185 2.7044-1.1713v-4.8231q0-3.6518-3.2212-5.8911l-2.3254 1.757-2.3599-1.757q-2.7216 2.0154-2.7216 5.5294 0 2.0843 0.77514 4.8403 0.2067 0.68902 0.60289 3.5312 2.8594-2.6527 3.0317-3.359-2.5666-0.70624-2.5666-3.2039 0-1.3436 0.9474-2.291 0.9474-0.96462 2.291-0.96462 1.3953 0 2.3254 0.99908 0.93017 0.98185 0.93017 2.4632 0 1.6192-1.0852 3.4623-1.068 1.8259-3.1178 3.5829-2.0498 1.757-2.6872 2.4116h-3.2384v-1.4814q0-1.4297-0.70624-4.7542-0.70624-3.3417-0.70624-5.2021 0-3.7551 1.5158-5.5983 1.5331-1.8431 4.4442-2.825l2.3254 1.7914 2.3254-1.7914q6.4595 1.7053 6.4595 8.7505v4.9782q3.0834 0.74069 5.3743 2.9972v-16.123h3.2384zm-17.329-8.3543q0.53399 0 0.91295-0.37896 0.39618-0.37896 0.39618-0.89572 0-0.56844-0.37896-0.9474-0.37896-0.39618-0.93017-0.39618-0.53399 0-0.91295 0.39618-0.37896 0.37896-0.37896 0.9474 0 0.51676 0.37896 0.89572 0.37896 0.37896 0.91295 0.37896zm5.4777 5.3571v-1.3436q-1.6192 0.22393-1.6192 1.5847 0 1.1024 0.77514 1.1024 0.84405 0 0.84405-1.3436z"/>
  </g>
 </g>
</svg>
