<svg width="23.107mm" height="22.331mm" version="1.1" viewBox="0 0 23.107 22.331" xmlns="http://www.w3.org/2000/svg">
 <g transform="translate(-35.655 -36.679)" stroke-width=".26458" aria-label="श">
  <path d="m55.093 39.537v19.438h-2.8575v-19.438h-3.1397v-2.5047h9.6661v2.5047zm-16.545 12.771q-1.2347 0-2.0814-0.59972-0.81139-0.635-0.81139-1.7286 0-1.0231 0.635-1.5522 0.635-0.52917 1.6228-0.52917 0.74083 0 1.5522 0.38806 0.81139 0.35278 2.2578 1.5169l0.42333 0.49389q1.2347 0.9525 2.4342 2.1872 1.2347 1.1994 2.3283 2.5047 1.0936 1.27 1.9403 2.4694l-2.2578 1.5522q-2.1519-3.0692-3.8805-4.833-1.6933-1.7992-3.2103-2.8928l-0.42333-1.7286q1.6581-0.03528 2.9986-0.77611 1.3406-0.74083 2.1167-2.1167 0.81139-1.4111 0.81139-3.3161 0-1.9756-1.0583-3.1397-1.0231-1.1994-2.6811-1.1994-1.0936 0-1.6228 0.49389-0.52916 0.45861-0.52916 1.27 0 0.42333 0.17639 0.88194 0.17639 0.42333 0.635 0.84666 0.49389 0.38806 1.4111 0.67028 0.9525 0.24694 2.4342 0.28222l-0.59972 2.4694q-3.3161-0.21167-4.9742-1.6581-1.6228-1.4817-1.6228-3.5278 0-1.7992 1.2347-2.928 1.27-1.1289 3.6336-1.1289 1.6581 0 3.1044 0.77611 1.4464 0.74083 2.3283 2.2578 0.91722 1.4817 0.91722 3.7394 0 2.3636-1.1642 4.4097-1.1289 2.0108-3.2103 3.2455-2.0814 1.1994-4.8683 1.1994z"/>
 </g>
</svg>
