<svg width="24.2mm" height="36.583mm" version="1.1" viewBox="0 0 24.2 36.583" xmlns="http://www.w3.org/2000/svg">
 <g transform="translate(-43.931 -30.08)">
  <g stroke-width=".26458" aria-label="ਉ">
   <path d="m56.842 60.242q-3.1397 0-5.468-1.5522-2.3283-1.5522-3.5983-4.833t-1.27-8.4666q0-1.6933 0.07056-2.9986 0.10583-1.3053 0.3175-2.4694l0.10583-0.67028q0.77611-3.5278 2.3636-5.5033 1.6228-2.0108 3.7394-2.8222 2.1519-0.84666 4.4097-0.84666 1.9756 0 3.5983 0.635 1.6228 0.635 2.7869 1.905 1.1994 1.27 1.8344 3.2103 0.635 1.905 0.635 4.445 0 2.9633-1.0231 4.8683-0.98778 1.905-2.6811 2.928-1.6933 0.98778-3.7394 1.27l0.45861-0.77611q1.7992 0.45861 2.7869 1.4111 1.0231 0.91722 1.4464 2.0108 0.42333 1.0936 0.42333 2.1167 0 1.905-0.81139 3.2808-0.77611 1.3758-2.3989 2.1167-1.5875 0.74083-3.9864 0.74083zm-0.14111-2.5753q2.3283 0 3.3867-0.88194 1.0583-0.91722 1.0583-2.6811 0-1.0231-0.38806-1.7992-0.38805-0.81139-1.1642-1.27-0.56444-0.35278-1.2347-0.56444-0.635-0.24694-1.7639-0.35278-1.0936-0.14111-3.0692-0.14111h-4.7625l-0.35278-2.5047h5.6797q1.7992 0 2.9986-0.10583 1.2347-0.10583 2.0814-0.3175 0.88194-0.24694 1.5522-0.59972 1.5875-0.84666 2.1872-2.3283 0.59972-1.5169 0.59972-3.4925v-0.635q0-3.4219-1.6228-5.3622-1.5875-1.9756-4.6214-1.9756-1.7286 0-3.2103 0.70555-1.4817 0.70555-2.5753 2.2578-1.0583 1.5169-1.6228 4.0217l-0.07055 0.45861q-0.21167 1.1994-0.3175 2.4694-0.07056 1.2347-0.07056 2.7164 0 3.8453 0.59972 6.2794 0.635 2.4342 1.6933 3.7747 1.0583 1.3053 2.3636 1.8344 1.3053 0.49389 2.6458 0.49389zm-12.771-16.863v-2.5047h24.201v2.5047zm12.1 25.859q-2.1519 0-3.9158-0.56444-1.7286-0.52916-2.8575-1.2347l0.52916-2.3989q1.1994 0.67028 2.6811 1.1642 1.4817 0.52917 3.563 0.52917 2.0461 0 3.563-0.52917 1.5169-0.49389 2.7164-1.1642l0.49389 2.3989q-1.1289 0.70555-2.8928 1.2347-1.7286 0.56444-3.8805 0.56444z"/>
  </g>
 </g>
</svg>
