<svg width="21.026mm" height="19.262mm" version="1.1" viewBox="0 0 21.026 19.262" xmlns="http://www.w3.org/2000/svg">
 <g transform="translate(-47.208 -35.427)">
  <g stroke-width=".26458" aria-label="ꤎ">
   <path fill="white" d="m47.208 54.689v-0.45861l4.3744-6.4558q-1.0231-0.59972-2.0461-1.3406-0.98778-0.74083-1.6581-1.8344-0.67028-1.1289-0.67028-2.8575 0-3.2103 2.5047-4.7625 2.54-1.5522 7.9728-1.5522 3.3514 0 5.3975 0.42333 2.0814 0.42333 3.2103 1.4817 1.1289 1.0583 1.5169 2.9633 0.42333 1.8697 0.42333 4.7978v9.5955h-3.0339v-9.5955q0-2.8928-0.635-4.445-0.635-1.5522-2.2578-2.1519-1.5875-0.59972-4.5155-0.59972-2.8575 0-4.5155 0.45861t-2.3636 1.3406q-0.67028 0.88194-0.67028 2.1519 0 1.1289 0.17639 1.8697 0.21167 0.70555 0.74083 1.2347 0.52917 0.52916 1.5169 1.1994 1.4464-2.0814 2.54-2.8575 1.1289-0.77611 2.5753-0.77611 0.81139 0 1.6228 0.35278 0.84666 0.3175 1.3758 1.0231 0.56444 0.70555 0.56444 1.8697 0 1.3053-0.67028 2.1872-0.67028 0.84666-1.6581 1.27-0.98778 0.42333-1.9756 0.42333-1.1642 0-2.1167-0.35278-0.91722-0.38806-1.27-0.59972l-2.3283 3.563h5.6444v2.4342zm9.8072-6.8086q0.9525 0 1.5875-0.49389 0.635-0.49389 0.635-1.3758 0-0.81139-0.45861-1.2347-0.45861-0.45861-1.0936-0.45861-0.70555 0-1.3406 0.635-0.59972 0.635-1.6581 2.2225 0.17639 0.14111 0.9525 0.42333 0.77611 0.28222 1.3758 0.28222z"/>
  </g>
 </g>
</svg>
