<svg width="26.317mm" height="24.871mm" version="1.1" viewBox="0 0 26.317 24.871" xmlns="http://www.w3.org/2000/svg">
 <g transform="translate(-37.471 -35.145)" stroke-width=".26458" aria-label="ࠌ">
  <path d="m56.38 60.016q-2.54 0-4.4097-0.17639-1.8697-0.17639-3.3161-0.45861-1.4464-0.28222-2.7164-0.56444-1.27-0.24694-2.6105-0.42333-1.3053-0.17639-2.928-0.17639-0.56444 0-1.4817 0.07055-0.91722 0.03528-1.3406 0.14111l0.67028-4.0569q0.35278-0.07056 0.98778-0.10583 0.635-0.03528 1.3406-0.03528 1.4464 0 2.54 0.3175 1.0936 0.3175 2.1872 0.77611 1.0936 0.42333 2.5047 0.88194 1.4111 0.45861 3.4572 0.77611 2.0461 0.3175 5.1153 0.3175 1.5522 0 2.4694-0.67028 0.9525-0.70555 0.9525-2.0814 0-1.6933-0.3175-4.2686-0.3175-2.6106-0.42333-5.6092-0.81139 0.88194-1.905 1.3758-1.0583 0.45861-2.4694 0.45861-2.0108 0-3.4219-0.74083-1.4111-0.77611-2.1519-2.1872-0.88194 1.3053-2.1872 2.1167-1.27 0.81139-3.0692 0.81139-3.1044 0-4.7625-1.7639-1.6228-1.7992-1.6228-4.9389 0-0.91722 0.14111-2.1872 0.14111-1.27 0.49389-2.4694l3.7042 1.0936q-0.24694 0.98778-0.38806 1.9756-0.14111 0.9525-0.14111 1.6581 0 0.91722 0.17639 1.8344 0.21167 0.91722 0.81139 1.5169 0.635 0.56444 1.8697 0.56444 1.1289 0 1.9403-0.81139t1.3758-2.1167q0.56444-1.3406 0.9525-2.8928 0.07056-0.70555 0.21167-1.4111 0.14111-0.74083 0.3175-1.4111l3.7042 1.0936q-0.24694 0.98778-0.38805 1.9756-0.14111 0.9525-0.14111 1.6581 0 0.91722 0.17639 1.8344 0.21167 0.91722 0.81139 1.5169 0.635 0.56444 1.8344 0.56444 1.1642 0 1.9403-0.81139 0.81139-0.81139 1.3758-2.1519 0.56444-1.3406 0.98778-2.8928 0.07056-0.67028 0.14111-1.3053 0.10583-0.67028 0.24694-1.3406l4.1628 0.91722q-0.38806 1.3758-0.635 3.5278-0.21167 2.1519-0.35278 4.6214-0.10583 2.4342-0.14111 4.7272-0.03528 2.293-0.03528 3.9511v2.54q0 0.81139-0.56444 1.8697-0.52917 1.0231-1.905 1.7992-1.3406 0.77611-3.7747 0.77611z"/>
 </g>
</svg>
