<svg width="28.973mm" height="32.057mm" version="1.1" viewBox="0 0 28.973 32.057" xmlns="http://www.w3.org/2000/svg">
 <g transform="translate(-16.502 -13.747)" stroke-width=".26458" aria-label="겅">
  <path fill="white" d="m45.286 32.437h-2.6699v-7.9409h-9.8185v-2.7388h9.8185v-8.0098h2.6699zm-27.078 0.1378q-1.0508-1.5331-1.7053-2.2221 4.2547-1.5331 7.8376-5.0126 3.5829-3.4968 4.6853-7.0108h-11.489v-2.7216h15.158q-1.0335 5.5294-4.9265 10.077-3.8757 4.5475-9.5601 6.8902zm27.268 6.9591q0 2.98-3.3245 4.6164-3.3073 1.6536-8.561 1.6536-5.4605 0-8.7505-1.6536t-3.2901-4.6509q0-2.8939 3.5312-4.6336 3.5312-1.757 8.5094-1.757 5.2021 0 8.5438 1.7053 3.3417 1.6881 3.3417 4.7198zm-2.9283 0q0-1.4986-2.6183-2.5666-2.601-1.068-6.3045-1.068-3.6518 0-6.4079 0.96462-2.7388 0.9474-2.7388 2.6355 0 1.4642 2.8766 2.5494 2.8766 1.0852 6.2356 1.0852 3.669 0 6.3045-1.068 2.6527-1.068 2.6527-2.5321z"/>
 </g>
</svg>
