<svg width="20.461mm" height="25.224mm" version="1.1" viewBox="0 0 20.461 25.224" xmlns="http://www.w3.org/2000/svg">
 <g transform="translate(-34.622 -38.523)">
  <g stroke-width=".26458" aria-label="೧">
   <path fill="white" d="m44.852 38.523q2.6105 0 4.5508 0.98778 1.9403 0.9525 3.175 2.6458 1.27 1.6933 1.8697 3.9158 0.635 2.1872 0.635 4.6919 0 2.5047-0.56444 4.7978-0.56444 2.2931-1.5875 4.3392-1.0231 2.0461-2.4694 3.8453l-2.54-1.7639q1.8344-2.293 2.928-5.2211 1.1289-2.928 1.1289-6.1383 0-1.9403-0.42333-3.5983-0.42333-1.6933-1.3053-2.9633-0.88194-1.27-2.2225-1.9756-1.3406-0.70555-3.175-0.70555-2.3989 0-3.9864 1.2347-1.5875 1.2347-2.3636 3.3161-0.77611 2.0814-0.77611 4.6919 0 3.1044 0.98778 5.9619 0.98778 2.8222 3.0339 5.3975l-2.5047 1.7639q-1.3758-1.7639-2.4342-3.7394-1.0231-1.9756-1.6228-4.2686-0.56444-2.3283-0.56444-5.0094 0-2.5047 0.635-4.7272 0.67028-2.2225 1.9403-3.8805 1.3053-1.6933 3.2103-2.6458 1.905-0.9525 4.445-0.9525z"/>
  </g>
 </g>
</svg>
