<svg width="19.895mm" height="27.32mm" version="1.1" viewBox="0 0 19.895 27.32" xmlns="http://www.w3.org/2000/svg">
 <g transform="translate(-45.814 -55.439)" stroke-width=".26458" aria-label="ზ">
  <path fill="white" d="m48.639 73.577q0-1.6881 0.55121-3.2728 0.56844-1.5847 1.7398-2.7905v-0.1378q-1.4125-0.10335-2.5838-0.84405-1.1541-0.74069-1.8431-2.0154-0.68902-1.2747-0.68902-2.8939 0-1.7914 0.82682-3.2039 0.82682-1.4125 2.2221-2.1876 1.4125-0.79237 3.0834-0.79237 1.6881 0 3.1006 0.77514 1.4125 0.75792 2.2393 2.1015 0.82682 1.3264 0.82682 2.9456 0 0.79237-0.29283 1.7225-0.27561 0.91295-0.86127 1.4642v0.10335q2.6699 0 4.6509 1.1713 1.9809 1.1713 3.0317 3.2212 1.068 2.0498 1.068 4.6336 0 2.6527-1.0163 4.737-1.0163 2.0843-2.9456 3.2728-1.9292 1.1713-4.582 1.1713-2.6355 0-4.5647-1.1541-1.912-1.1541-2.9456-3.2212-1.0163-2.0843-1.0163-4.8059zm6.6662-11.954q0-1.0508-0.41341-1.912-0.39618-0.86127-1.1541-1.3608-0.75792-0.49954-1.7914-0.49954-0.98185 0-1.7398 0.49954-0.75792 0.49954-1.1886 1.378-0.41341 0.86127-0.41341 1.8948 0 1.0852 0.41341 1.9637 0.41341 0.86127 1.1713 1.378 0.75792 0.49954 1.757 0.49954 0.99908 0 1.757-0.49954 0.77514-0.51676 1.1886-1.3953 0.41341-0.8785 0.41341-1.9465zm7.2175 11.954q0-1.7914-0.60289-3.2728-0.60289-1.4986-1.8259-2.3943-1.223-0.89572-2.9628-0.89572-1.6709 0-2.8766 0.91295-1.2058 0.89572-1.8259 2.3943t-0.62012 3.2556q0 1.7398 0.60289 3.2384 0.60289 1.4814 1.8087 2.3943 1.2058 0.89572 2.9456 0.89572 1.7398 0 2.9456-0.89572 1.2058-0.91295 1.8087-2.3943 0.60289-1.4986 0.60289-3.2384z"/>
 </g>
</svg>
