<svg width="15.623mm" height="26.183mm" version="1.1" viewBox="0 0 15.623 26.183" xmlns="http://www.w3.org/2000/svg">
 <g transform="translate(-36.7 -38.378)" stroke-width=".26458" aria-label="ß">
  <path fill="white" d="m36.7 46.422q0-4.9265 2.6355-6.8385 1.757-1.2058 4.3753-1.2058 3.5657 0 5.4777 1.7398 1.912 1.7225 1.912 4.5647 0 1.9982-0.79237 3.3073-0.79237 1.3091-2.0671 1.9465 1.5675 0.39618 2.6355 1.7053 1.4469 1.6536 1.4469 4.6509 0 3.4106-1.9465 5.8394-1.9292 2.4288-5.4777 2.4288-0.82682 0-1.2402-0.03445-0.39618-0.03445-0.99908-0.1378v-2.6872q0.41341 0.05168 0.75792 0.08613 0.34451 0.03445 0.77514 0.03445 1.8603 0 3.3762-1.1713 1.5331-1.1713 1.5331-4.1686 0-2.9111-1.9637-4.1513-1.223-0.75792-2.8594-0.75792-0.29283 0-0.68902 0.03445-0.37896 0.03445-0.77514 0.08613v-2.7733q0.31006 0.05168 0.46509 0.0689 0.17225 0.01723 0.36173 0.01723 2.4977 0 3.4451-1.2575 0.96462-1.2747 0.96462-2.6699 0-1.757-1.0508-2.8766-1.0335-1.1197-3.1006-1.1197-2.6699 0-3.5829 1.9292-0.51676 1.0852-0.51676 3.4106v17.639h-3.1006z"/>
 </g>
</svg>
