<svg width="4.8231mm" height="26.458mm" version="1.1" viewBox="0 0 4.8231 26.458" xmlns="http://www.w3.org/2000/svg">
 <g transform="translate(-48.169 -41.25)" stroke-width=".26458" aria-label="أ">
  <path fill="white" d="m52.992 44.075q0 0.43064-0.53399 0.77514-0.36173 0.22393-1.0852 0.48231l-3.2039 1.1024q0-0.79237 1.7225-1.3953-0.53399-0.27561-0.8096-0.53399-0.36173-0.32728-0.36173-0.68902 0-0.53399 0.91295-1.4986 1.0163-1.068 1.7914-1.068 0.34451 0 0.58566 0.24116 0.25838 0.22393 0.25838 0.60289 0 0.24116-0.10335 0.49954-0.10335 0.24116-0.29283 0.55121-0.53399-0.48231-1.1541-0.48231-0.37896 0-0.75792 0.15503-0.36173 0.15503-0.36173 0.36173 0 0.25838 0.79237 0.70624 0.8096 0.44786 1.378 0.44786 0.37896 0 0.53399-0.01722 0.17225-0.03445 0.68902-0.24116zm-0.48231 18.776q0 1.378-0.49954 2.6699-0.25838 0.68902-1.1197 2.1876l-0.31006-0.17226q0.05168-0.49954 0.08613-1.1541 0.05168-0.65457 0.05168-0.8785 0-1.7914-0.29283-4.9954-0.27561-3.2212-0.67179-6.7179-0.24116-2.1187-0.53399-4.3236 0.34451-0.75792 0.77514-1.6364 0.44786-0.8785 0.84405-1.6536 0.27561 1.9637 0.68902 5.3743 0.43064 3.4106 0.67179 6.1495 0.31006 3.4106 0.31006 5.1504z"/>
 </g>
</svg>
