<svg width="25.435mm" height="25.188mm" version="1.1" viewBox="0 0 25.435 25.188" xmlns="http://www.w3.org/2000/svg">
 <g transform="translate(-37.165 -32.441)" stroke-width=".26458" aria-label="ð´">
  <path d="m39.564 57.629q-0.67028 0-1.4111-0.21167-0.70555-0.21167-0.98778-0.35278v-2.1872h5.8208v-12.524h-3.7747v-2.7517h3.7747v-0.10583q0-3.4572 1.4464-5.2564 1.4817-1.7992 4.1628-1.7992 1.6228 0 2.8222 0.67028 1.1994 0.67028 1.8697 1.7992 0.70555 1.0936 0.70555 2.4342 0 2.4694-1.8344 3.7394-1.7992 1.27-4.7978 1.27h-1.2347v6.8792q1.3758-1.4111 2.9986-2.7164t3.3867-2.1519q1.7992-0.84666 3.6336-0.84666 3.175 0 4.7978 1.7992 1.6581 1.7992 1.6581 4.7625 0 3.6336-2.5753 5.6092-2.54 1.9403-6.8086 1.9403zm9.1369-22.437q-0.635 0-1.2347 0.3175-0.56444 0.28222-0.9525 1.1994-0.38805 0.91722-0.38805 2.7869v0.10583h1.1289q1.7286 0 2.6458-0.635 0.9525-0.635 0.9525-1.6228 0-0.91722-0.635-1.5169-0.59972-0.635-1.5169-0.635zm7.4436 11.077q-1.6228 0-3.3514 1.0231-1.6933 0.98778-3.3867 2.54-1.6933 1.5522-3.2808 3.2455v1.7992h7.0908q3.0339 0 4.6214-1.1994 1.6228-1.2347 1.6228-3.5983 0-1.7639-0.84666-2.7869-0.81139-1.0231-2.4694-1.0231z"/>
 </g>
</svg>
