<svg width="13.97mm" height="28.716mm" version="1.1" viewBox="0 0 13.97 28.716" xmlns="http://www.w3.org/2000/svg">
 <g transform="translate(-34.683 -39.811)" stroke-width=".26458" aria-label="𑃤">
  <path d="m42.726 68.527q-1.9403 0-3.563-0.91722-1.5875-0.91722-2.5753-2.54-0.9525-1.6581-0.9525-3.81 0-2.293 1.1642-4.3392 1.1642-2.0461 2.928-3.5278-1.4817-0.14111-2.1872-1.0231-0.67028-0.91722-0.67028-2.0814 0-1.6581 1.5169-3.8805t3.8453-4.4803h-5.08v3.8805h-2.4694v-5.9972h10.901v1.7286q-2.928 2.6458-4.5155 4.7978-1.5875 2.1167-1.5875 3.4572 0 0.74083 0.42333 1.1994 0.45861 0.42333 1.0231 0.42333 0.59972 0 1.3406-0.45861 0.77611-0.49389 1.4817-1.0583l1.1289 1.7992q-1.8697 1.3758-3.3867 2.8222-1.4817 1.4464-2.3636 3.0692-0.88194 1.5875-0.88194 3.4925 0 1.8344 0.74083 2.9633 0.77611 1.1289 1.8697 1.6581 1.0936 0.49389 2.0814 0.49389 0.67028 0 1.27-0.14111 0.635-0.17639 0.88194-0.42333l-0.03528-0.03528q-0.28222 0.14111-0.84666 0.14111-1.3053 0-2.3283-1.0583-1.0231-1.0583-1.0231-2.928 0-1.8344 1.0583-3.0339 1.0583-1.1994 2.7517-1.1994 1.6933 0 2.8222 1.1994 1.1642 1.1994 1.1642 3.4925 0 2.1167-0.84666 3.5278-0.81139 1.4111-2.1519 2.1167-1.3406 0.67028-2.928 0.67028zm1.9403-4.5861q0.77611 0 1.2347-0.59972 0.49389-0.635 0.49389-1.5875t-0.49389-1.5522q-0.45861-0.635-1.2347-0.635-0.77611 0-1.27 0.635-0.49389 0.59972-0.49389 1.5522t0.49389 1.5875q0.49389 0.59972 1.27 0.59972z"/>
 </g>
</svg>
