<svg width="15.946mm" height="19.121mm" version="1.1" viewBox="0 0 15.946 19.121" xmlns="http://www.w3.org/2000/svg">
 <g transform="translate(-47.758 -37.9)" stroke-width=".26458" aria-label="𑅢">
  <path fill="white" d="m62.221 57.02q-0.38806 0-0.84666-0.3175-0.45861-0.28222-0.56444-0.88194-0.14111-0.84666-0.3175-2.2225-0.17639-1.3758-0.35278-2.9986-0.17639-1.6228-0.28222-3.2808-0.10583-1.6933-0.10583-3.1044 0-2.2578 0.07055-3.6336 0.10583-1.3758 0.35278-1.9403 0.17639-0.35278 0.49389-0.52917 0.35278-0.21167 0.70555-0.21167 0.49389 0 0.81139 0.21167 0.35278 0.21167 0.42333 0.67028 0.07055 0.42333 0.07055 1.7639 0.03528 1.3406 0.03528 3.6336 0 1.0231 0.07055 2.54 0.10583 1.4817 0.24694 2.9986 0.14111 1.4817 0.24694 2.5753 0.14111 1.0936 0.17639 1.3758 0.07056 0.42333 0.14111 0.9525 0.10583 0.52916 0.10583 0.91722 0 0.77611-0.45861 1.1289t-1.0231 0.35278zm-11.994 0q-0.38805 0-0.84666-0.3175-0.45861-0.28222-0.56444-0.88194-0.14111-0.84666-0.3175-2.2225-0.17639-1.3758-0.35278-2.9986-0.17639-1.6228-0.28222-3.2808-0.10583-1.6933-0.10583-3.1044 0-2.2578 0.07055-3.6336 0.10583-1.3758 0.35278-1.9403 0.17639-0.35278 0.49389-0.52917 0.35278-0.21167 0.70555-0.21167 0.49389 0 0.81139 0.21167 0.35278 0.21167 0.42333 0.67028 0.07056 0.42333 0.07056 1.7639 0.03528 1.3406 0.03528 3.6336 0 1.0231 0.07056 2.54 0.10583 1.4817 0.24694 2.9986 0.14111 1.4817 0.24694 2.5753 0.14111 1.0936 0.17639 1.3758 0.07055 0.42333 0.14111 0.9525 0.10583 0.52916 0.10583 0.91722 0 0.77611-0.45861 1.1289t-1.0231 0.35278zm5.9972 0q-0.38805 0-0.84666-0.3175-0.45861-0.28222-0.56444-0.88194-0.14111-0.84666-0.3175-2.2225-0.17639-1.3758-0.35278-2.9986-0.17639-1.6228-0.28222-3.2808-0.10583-1.6933-0.10583-3.1044 0-2.2578 0.07056-3.6336 0.10583-1.3758 0.35278-1.9403 0.17639-0.35278 0.49389-0.52917 0.35278-0.21167 0.70555-0.21167 0.49389 0 0.81139 0.21167 0.35278 0.21167 0.42333 0.67028 0.07056 0.42333 0.07056 1.7639 0.03528 1.3406 0.03528 3.6336 0 1.0231 0.07055 2.54 0.10583 1.4817 0.24694 2.9986 0.14111 1.4817 0.24694 2.5753 0.14111 1.0936 0.17639 1.3758 0.07055 0.42333 0.14111 0.9525 0.10583 0.52916 0.10583 0.91722 0 0.77611-0.45861 1.1289-0.45861 0.35278-1.0231 0.35278z"/>
 </g>
</svg>
