<svg width="35.419mm" height="25.4mm" version="1.1" viewBox="0 0 35.419 25.4" xmlns="http://www.w3.org/2000/svg">
 <g transform="translate(-33.104 -52.215)" stroke-width=".26458" aria-label="அ">
  <path fill="white" d="m43.405 76.556q-3.4219 0-5.715-0.84666-2.2931-0.81139-3.4572-2.293-1.1289-1.4464-1.1289-3.3514 0-0.88194 0.38806-1.7286 0.38805-0.84666 1.1994-1.4111 0.45861-0.3175 0.98778-0.52916 0.52916-0.21167 1.3758-0.3175 0.88194-0.10583 2.293-0.10583h26.352l0.10583 2.54h-26.07q-1.0936 0-1.6933 0.03528-0.56444 0.03528-0.84666 0.14111-0.28222 0.10583-0.56444 0.3175-0.52917 0.42333-0.52917 1.1994 0 1.7286 1.8697 2.7517 1.8697 1.0231 5.6444 1.0231h0.59972q3.563 0 6.103-0.84666 2.5753-0.81139 4.2333-2.2578 1.6933-1.4464 2.54-3.2808l0.14111-0.67028q0.3175-0.88194 0.45861-1.7639 0.14111-0.91722 0.14111-1.8344 0-2.0461-0.70555-3.8805-0.70555-1.8344-2.1872-3.0692-1.4464-1.27-3.7394-1.6228-0.45861-0.07055-0.88194-0.07055-0.38806-0.03528-0.84666-0.03528-1.0936 0-2.0108 0.38806-0.91722 0.38805-1.4817 1.1642-0.52917 0.77611-0.52917 1.9756 0 1.3053 0.77611 2.2225 0.81139 0.88194 2.2578 0.88194 1.3406 0 2.1167-0.81139 0.81139-0.84666 0.81139-2.3989 0-1.1642-0.38805-2.0814-0.35278-0.9525-1.27-1.7992l2.0108-0.59972q0.635 0.52916 1.1642 1.2347 0.56444 0.70555 0.88194 1.5875 0.35278 0.84666 0.35278 1.7992 0 1.2347-0.38806 2.2578-0.35278 0.98778-1.0936 1.7286-0.74083 0.70555-1.8344 1.0936-1.0583 0.38806-2.4342 0.38806-1.5875 0-2.8928-0.59972t-2.0814-1.7992q-0.77611-1.1994-0.77611-2.9633 0-2.1872 1.0231-3.5278 1.0231-1.3406 2.6458-1.9403 1.6581-0.635 3.4925-0.635 2.7164 0 4.7625 0.91722 2.0814 0.91722 3.4572 2.5047 1.4111 1.5875 2.1167 3.563t0.70555 4.0922q0 0.9525-0.10583 1.8697-0.10583 0.88194-0.3175 1.7286l-0.21167 0.77611q-0.98778 2.8928-3.3161 4.8683-2.293 1.9756-5.5739 2.9986-3.2455 1.0231-7.1967 1.0231zm22.084 1.0583v-24.977h3.0339v24.977z"/>
 </g>
</svg>
