<svg width="35.419mm" height="25.4mm" version="1.1" viewBox="0 0 35.419 25.4" xmlns="http://www.w3.org/2000/svg">
 <g transform="translate(-40.974 -47.568)">
  <g stroke-width=".26458" aria-label="௮">
   <path d="m51.275 71.91q-3.4219 0-5.715-0.84666-2.2931-0.81139-3.4572-2.293-1.1289-1.4464-1.1289-3.3514 0-0.88194 0.38805-1.7286 0.38806-0.84666 1.1994-1.4111 0.45861-0.3175 0.98778-0.52916 0.52916-0.21167 1.3758-0.3175 0.88194-0.10583 2.293-0.10583h26.352l0.10583 2.54h-26.07q-1.0936 0-1.6933 0.03528-0.56444 0.03528-0.84666 0.14111-0.28222 0.10583-0.56444 0.3175-0.52917 0.42333-0.52917 1.1994 0 1.7286 1.8697 2.7517t5.6444 1.0231h0.59972q3.563 0 6.1383-0.84666 2.5753-0.81139 4.2333-2.2578 1.6933-1.4464 2.54-3.2808l0.10583-0.70555q0.35278-0.88194 0.45861-1.7639 0.14111-0.91722 0.14111-1.7992 0-2.5047-0.91722-4.4097-0.91722-1.9403-2.5753-3.0339-1.6228-1.0936-3.8453-1.0936-1.3053 0-2.3989 0.49389-1.0936 0.49389-1.7639 1.5169-0.67028 0.98778-0.67028 2.6106t0.67028 2.9633q0.70555 1.3406 1.7992 2.3989 1.1289 1.0231 2.3283 1.7992l-1.7639 1.6581q-1.6228-1.0583-3.0339-2.3636-1.3758-1.3053-2.2578-2.928-0.84666-1.6581-0.84666-3.6689 0-2.1167 0.9525-3.7042 0.9525-1.5875 2.7164-2.4694 1.7992-0.88194 4.3039-0.88194 2.54 0 4.445 0.88194 1.9403 0.88194 3.2455 2.4342 1.3053 1.5169 1.9756 3.5278 0.67028 1.9756 0.67028 4.2333 0 0.98778-0.10583 1.8697-0.07055 0.88194-0.3175 1.7286l-0.17639 0.77611q-0.98778 2.8928-3.3161 4.8683-2.293 1.9756-5.6092 2.9986-3.2808 1.0231-7.2672 1.0231zm22.084 1.0583v-24.977h3.0339v24.977z"/>
  </g>
 </g>
</svg>
