<svg width="28.116mm" height="27.481mm" version="1.1" viewBox="0 0 28.116 27.481" xmlns="http://www.w3.org/2000/svg">
 <g transform="translate(-42.908 -61.551)">
  <g stroke-width=".26458" aria-label="ഋ">
   <path fill="white" d="m64.745 61.551q2.8575 0 4.5508 1.9403 1.7286 1.905 1.7286 5.2564 0 2.4342-0.84666 4.2686-0.84666 1.7992-2.5047 3.1397-1.4111 1.1642-3.6336 1.6581t-6.1383 0.49389h-2.0461q-2.4342 0-4.0922-0.14111-1.6228-0.14111-2.7164-0.49389-1.0936-0.35278-2.0108-0.91722-2.0108-1.3406-3.0692-3.3514-1.0583-2.0461-1.0583-4.5508 0-2.2225 0.81139-3.8453 0.81139-1.6581 2.293-2.54 1.5169-0.91722 3.6336-0.91722 2.0108 0 3.3161 0.81139t1.9403 2.1167q0.635 1.3053 0.635 2.8222 0 1.4464-0.635 2.6811-0.59972 1.1994-1.8344 1.9403-1.1994 0.74083-3.0692 0.74083-1.6228 0-2.7869-0.45861-1.1289-0.49389-1.9403-1.1994-0.77611-0.74083-1.3758-1.4817l0.81139-2.1167q0.52917 0.635 1.0936 1.3053 0.59972 0.635 1.4817 1.0936 0.88194 0.42333 2.2578 0.42333 1.6933 0 2.3989-0.88194 0.74083-0.88194 0.74083-2.1167 0-1.3406-0.77611-2.2578-0.77611-0.9525-2.3989-0.9525-1.3053 0-2.1872 0.59972-0.84666 0.56444-1.27 1.6228-0.38806 1.0583-0.38806 2.5047 0 0.42333 0.03528 0.84666 0.03528 0.38806 0.14111 0.81139l-0.17639 0.49389q0.59972 1.5522 1.4817 2.5753 0.88194 0.98778 2.1167 1.5522 1.27 0.56444 3.0339 0.77611 1.7639 0.21167 4.1275 0.21167h0.84666q2.6106 0 4.445-0.24694 1.8697-0.24694 3.1044-0.81139 1.27-0.56444 2.0814-1.5522 0.81139-0.98778 1.3758-2.5047l-0.17639-0.49389q0.10583-0.42333 0.14111-0.77611 0.03528-0.38806 0.03528-0.56444 0-1.7286-0.42333-2.8222-0.42333-1.1289-1.2347-1.6581-0.81139-0.56444-2.0108-0.56444-1.7286 0-2.54 0.9525-0.81139 0.91722-0.81139 2.2578 0 1.2347 0.74083 2.1167 0.74083 0.88194 2.3989 0.88194 1.3406 0 2.2225-0.38806 0.88194-0.42333 1.4817-1.0231 0.635-0.635 1.1289-1.1994l0.81139 1.9756q-0.56444 0.70555-1.3758 1.4111t-1.9756 1.1994q-1.1289 0.45861-2.7517 0.45861-1.905 0-3.1397-0.74083-1.2347-0.77611-1.8344-2.0108-0.56444-1.27-0.56444-2.6811 0-1.4817 0.67028-2.7869 0.67028-1.3053 2.0814-2.0814 1.4111-0.81139 3.5983-0.81139zm-7.6553 27.481q-4.3392 0-7.2319-0.67028-2.8928-0.635-4.3392-2.1167-1.4464-1.4464-1.4464-3.8453 0-1.5522 0.88194-2.6106 0.91722-1.0936 2.4342-1.7286 1.5169-0.67028 3.4219-0.9525 1.9403-0.3175 3.9511-0.3175h4.2333q2.1167 0 4.0569 0.3175 1.9756 0.28222 3.4925 0.9525 1.5169 0.635 2.3989 1.7639 0.91722 1.0936 0.91722 2.6811 0 2.0814-1.27 3.5278-1.27 1.4817-4.0922 2.2225-2.7869 0.77611-7.4083 0.77611zm-0.03528-2.54q3.5278 0 5.6444-0.45861 2.1519-0.42333 3.1044-1.3406 0.98778-0.88194 0.98778-2.1872 0-1.27-0.77611-2.0461-0.77611-0.77611-2.1167-1.1642-1.3406-0.42333-3.1044-0.56444-1.7639-0.17639-3.7747-0.17639h-0.28222q-2.6811 0-4.8683 0.3175-2.1519 0.3175-3.4572 1.1642-1.27 0.84666-1.27 2.4342 0 1.4111 0.9525 2.293 0.98778 0.88194 3.175 1.3053 2.1872 0.42333 5.7855 0.42333z"/>
  </g>
 </g>
</svg>
