<svg width="27.34mm" height="19.685mm" version="1.1" viewBox="0 0 27.34 19.685" xmlns="http://www.w3.org/2000/svg">
 <g transform="translate(-37.651 -29.765)" stroke-width=".26458" aria-label="ळ">
  <path fill="white" d="m37.651 32.27v-2.5047h27.34v2.5047h-6.3853v5.3622h-2.8575v-5.3622zm13.617 9.8425q-1.4817-1.6228-2.7164-2.5047-1.2347-0.88194-2.7164-0.88194-1.4817 0-2.6105 0.98778-1.0936 0.98778-1.0936 3.175 0 2.1872 0.9525 3.1397 0.9525 0.91722 2.2578 0.91722 0.91722 0 1.6228-0.38806 0.70555-0.42333 1.3053-1.2347 0.59972-0.84666 1.1289-2.0814l0.77611-1.7286q0.74083-1.6228 1.4464-2.6458 0.74083-1.0231 1.5169-1.5875 0.81139-0.59972 1.6933-0.81139 0.91722-0.24694 1.9756-0.24694 1.6933 0 3.0339 0.77611 1.3758 0.77611 2.1872 2.2578 0.81139 1.4817 0.81139 3.6336 0 1.8697-0.77611 3.3867-0.74083 1.4817-2.1519 2.3283-1.3758 0.84666-3.2808 0.84666-2.2225 0-3.81-0.98778-1.5522-1.0231-3.175-2.6458l1.1994-2.2225q1.4464 1.6228 2.6811 2.5047 1.27 0.84666 2.7517 0.84666t2.5753-0.9525q1.1289-0.98778 1.1289-3.175 0-2.2578-0.98778-3.175-0.9525-0.91722-2.2578-0.91722-1.3406 0-2.293 0.9525-0.91722 0.91722-1.7639 2.7869l-0.77611 1.6933q-0.67028 1.5875-1.4111 2.6105-0.74083 1.0231-1.5522 1.6228-0.81139 0.56444-1.7286 0.81139-0.88194 0.24694-1.9403 0.24694-1.6581 0-3.0339-0.74083-1.3406-0.77611-2.1519-2.2578t-0.81139-3.6336q0-1.9756 0.77611-3.4572 0.81139-1.4817 2.2225-2.2931 1.4111-0.84666 3.2103-0.84666 2.2225 0 3.7747 1.0231 1.5875 0.98778 3.2103 2.6458z"/>
 </g>
</svg>
