<svg width="48.401mm" height="19.262mm" version="1.1" viewBox="0 0 48.401 19.262" xmlns="http://www.w3.org/2000/svg">
 <g transform="translate(-36.889 -33.952)" stroke-width=".26458" aria-label="ꦖ">
  <path d="m42.533 53.214c3.7394 0 5.5739-1.7992 5.5739-5.3975v-9.278c0-1.27 0.59972-1.905 1.7286-1.905s1.6581 0.59972 1.6581 1.8344v9.8778c0 3.2455 1.6228 4.8683 4.7625 4.8683 3.175 0 4.7625-1.5522 4.7625-4.6919v-9.9836c0-1.27 0.56444-1.905 1.6933-1.905s1.6581 0.59972 1.6581 1.8344v9.8778c0 3.2455 1.6228 4.8683 4.7978 4.8683 3.1397 0 4.7272-1.5522 4.7272-4.6919v-6.8439c0-3.1044 1.5169-4.9389 4.2686-4.9389 2.3283 0 3.4925 0.81139 3.4925 2.3989 0 2.293-1.27 3.4219-3.81 3.4219h-1.6933v2.54h1.6228c3.0339 0 4.6214 1.1289 4.6214 3.2103 0 1.3406-0.9525 2.1167-2.3989 2.1167-1.3758 0-2.6458-0.49389-3.9158-1.4817l-1.0583 2.4694c1.5875 1.1642 3.2455 1.7992 4.9742 1.7992 3.0692 0 5.2917-1.6228 5.2917-4.9742 0-2.1872-1.3406-3.6336-4.0569-4.3039v-0.17639c2.0108-0.84666 3.5278-2.3636 3.5278-4.6214 0-3.4572-2.6106-5.1505-6.2442-5.1505-4.5508 0-7.6905 3.0339-7.6905 7.4436v7.1261c0 1.3053-0.56444 1.9756-1.6581 1.9756-1.1289 0-1.7286-0.74083-1.7286-2.1167v-9.913c0-3.0339-1.5875-4.5508-4.7272-4.5508s-4.7625 1.5875-4.7625 4.6919v9.913c0 1.3053-0.56444 1.9756-1.6933 1.9756-1.0936 0-1.6933-0.70555-1.6933-2.0814v-9.9483c0-3.0339-1.5875-4.5508-4.7272-4.5508-3.175 0-4.7625 1.5522-4.7625 4.6567v9.2428c0 1.7992-0.84666 2.6811-2.54 2.6811-1.6933 0-2.5753-0.91722-2.5753-2.7869v-8.3608c0-1.7286 0.88194-2.7517 2.6458-3.0339l-0.635-2.3989c-3.1397 0.35278-5.08 1.9403-5.08 5.3622v8.3255c0 3.7042 1.905 5.5739 5.6444 5.5739z"/>
 </g>
</svg>
