<svg fill="white"
   width="29.633266mm"
   height="29.280489mm"
   viewBox="0 0 29.633266 29.280489"
   version="1.1"
   id="svg5"
   xmlns="http://www.w3.org/2000/svg"
   >
  <defs
     id="defs2" />
  <g
     aria-label="ꕥ"
     id="text829"
     transform="translate(-39.38254,-128.33251)">
    <path
       d="m 54.269729,131.86028 q -1.763885,0 -1.763885,-1.76389 0,-0.81138 0.493888,-1.26999 0.493888,-0.49389 1.269997,-0.49389 0.776109,0 1.269997,0.49389 0.493888,0.45861 0.493888,1.26999 0,0.84667 -0.493888,1.30528 -0.45861,0.45861 -1.269997,0.45861 z m -7.584705,23.98883 q -2.363606,0 -3.951102,-1.48166 -1.587497,-1.48166 -1.587497,-3.98638 0,-1.58749 0.881943,-3.06916 0.91722,-1.51694 2.504716,-2.64583 1.622774,-1.16416 3.739436,-1.69333 v -0.14111 q -2.116662,-0.45861 -3.739436,-1.58749 -1.587496,-1.16417 -2.504716,-2.68111 -0.881943,-1.55222 -0.881943,-3.17499 0,-2.39888 1.516941,-3.91582 1.552219,-1.55222 4.021658,-1.55222 1.658052,0 3.174993,0.84666 1.516941,0.84667 2.681105,2.2225 1.164164,1.34055 1.658052,2.96332 h 0.14111 q 0.529166,-1.62277 1.658052,-2.96332 1.128887,-1.37583 2.645828,-2.2225 1.516941,-0.84666 3.139715,-0.84666 2.504716,0 4.021657,1.55222 1.516941,1.51694 1.516941,3.91582 0,1.5875 -0.91722,3.10444 -0.881942,1.48166 -2.504716,2.61055 -1.587497,1.12888 -3.704159,1.69333 v 0.14111 q 2.116662,0.45861 3.704159,1.62277 1.622774,1.12889 2.504716,2.64583 0.91722,1.51694 0.91722,3.17499 0,2.50472 -1.587496,3.98638 -1.552219,1.48166 -3.951102,1.48166 -1.622774,0 -3.139715,-0.84666 -1.516941,-0.84666 -2.645828,-2.18722 -1.128886,-1.37583 -1.658052,-2.9986 h -0.14111 q -0.493888,1.62277 -1.658052,2.9986 -1.164164,1.34056 -2.681105,2.18722 -1.516941,0.84666 -3.174993,0.84666 z m 5.150544,-13.96996 h 1.199442 v -1.72861 q 0,-1.44639 -0.529166,-2.82222 -0.493888,-1.37583 -1.37583,-2.50471 -0.881943,-1.16417 -2.046107,-1.83444 -1.128886,-0.67028 -2.398883,-0.67028 -1.23472,0 -2.010829,0.88194 -0.776109,0.84667 -0.776109,2.18722 0,1.34055 0.776109,2.53999 0.776109,1.16417 2.010829,2.08139 1.234719,0.88194 2.610549,1.37583 1.375831,0.49389 2.539995,0.49389 z m 3.598325,0 h 1.199442 q 1.164164,0 2.539994,-0.49389 1.37583,-0.49389 2.61055,-1.37583 1.234719,-0.91722 2.010829,-2.08139 0.776109,-1.19944 0.776109,-2.53999 0,-1.34055 -0.776109,-2.18722 -0.77611,-0.88194 -2.010829,-0.88194 -1.269997,0 -2.434161,0.67028 -1.128887,0.67027 -2.010829,1.83444 -0.881943,1.12888 -1.411108,2.50471 -0.493888,1.37583 -0.493888,2.82222 z m -14.287468,2.78693 q -1.763885,0 -1.763885,-1.76388 0,-0.81139 0.493888,-1.27 0.493888,-0.49389 1.269997,-0.49389 0.77611,0 1.269997,0.49389 0.493888,0.45861 0.493888,1.27 0,0.84666 -0.493888,1.30527 -0.45861,0.45861 -1.269997,0.45861 z m 26.105497,0 q -1.763885,0 -1.763885,-1.76388 0,-0.81139 0.493888,-1.27 0.493888,-0.49389 1.269997,-0.49389 0.776109,0 1.269997,0.49389 0.493888,0.45861 0.493888,1.27 0,0.84666 -0.493888,1.30527 -0.45861,0.45861 -1.269997,0.45861 z m -20.566898,8.78415 q 1.340552,0 2.469439,-0.67027 1.164164,-0.67028 2.010829,-1.79917 0.881942,-1.12888 1.37583,-2.50471 0.493888,-1.41111 0.493888,-2.8575 v -1.7286 h -1.199442 q -1.164164,0 -2.539995,0.52916 -1.37583,0.52917 -2.610549,1.44639 -1.23472,0.88194 -2.010829,2.08138 -0.776109,1.16416 -0.776109,2.43416 0,1.41111 0.776109,2.25777 0.811387,0.81139 2.010829,0.81139 z m 15.098855,0 q 1.199442,0 1.975551,-0.81139 0.811387,-0.84666 0.811387,-2.25777 0,-1.27 -0.776109,-2.43416 -0.77611,-1.19944 -2.010829,-2.08138 -1.23472,-0.91722 -2.61055,-1.44639 -1.37583,-0.52916 -2.539994,-0.52916 h -1.199442 v 1.7286 q 0,1.34055 0.493888,2.71639 0.493888,1.37583 1.340552,2.53999 0.881943,1.16416 2.046107,1.86972 1.164164,0.70555 2.469439,0.70555 z m -7.51415,4.16277 q -1.763885,0 -1.763885,-1.76389 0,-0.81138 0.493888,-1.26999 0.493888,-0.49389 1.269997,-0.49389 0.776109,0 1.269997,0.49389 0.493888,0.45861 0.493888,1.26999 0,0.84667 -0.493888,1.30528 -0.45861,0.45861 -1.269997,0.45861 z"
       id="path978" />
  </g>
</svg>
