<svg width="210mm" height="297mm" version="1.1" viewBox="0 0 210 297" xmlns="http://www.w3.org/2000/svg">
 <g strokeWidth=".26458" aria-label="𞤦">
  <path d="m17.34 35.97q-1.8344 0-2.7164-0.35278-0.84666-0.38806-1.1289-1.3053-0.24694-0.91722-0.24694-2.54v-20.99h3.1044v14.534q0.59972 0.45861 2.2578 1.1642 1.6581 0.67028 4.2333 0.67028 1.7992 0 3.2455-0.52916 1.4464-0.56444 2.293-1.6933t0.84666-2.928q0-1.6581-0.49389-2.54-0.49389-0.88194-1.2347-1.1994-0.70555-0.3175-1.4111-0.3175-0.74083 0-1.27 0.14111-0.49389 0.14111-0.81139 0.35278v7.2319h-3.1044v-8.6783q0.49389-0.49389 1.7639-1.0583 1.27-0.59972 3.4219-0.59972 3.0692 0 4.6919 1.5169 1.6581 1.5169 1.6581 4.9742 0 2.7869-1.3758 4.5508-1.3406 1.7286-3.5278 2.54t-4.6919 0.81139q-2.4342 0-4.0569-0.52916-1.6228-0.52917-2.2578-0.91722l-0.17639 0.07056v2.6811q0 1.4111 0.38805 1.8697 0.38806 0.45861 1.8344 0.45861h13.476v2.6106z"/>
 </g>
</svg>
