<svg width="23.995mm" height="30.747mm" version="1.1" viewBox="0 0 23.995 30.747" xmlns="http://www.w3.org/2000/svg">
 <g transform="translate(-32.264 -34.921)" stroke-width=".26458" aria-label="Д">
  <path fill="white" d="m32.264 65.668v-8.3888h2.291q0.36173-0.82682 0.67179-1.6709 0.31006-0.86127 0.56844-1.9292 0.27561-1.0852 0.49954-2.4805 0.24116-1.3953 0.44786-3.3073 0.24116-2.0154 0.37896-3.9619 0.1378-1.9637 0.2067-3.669 0.08613-1.7053 0.10335-3.0834 0.03445-1.378 0.05168-2.2565h15.916v22.359h2.8594v8.3888h-3.1695v-5.426h-17.656v5.426zm8.3888-27.785q0 2.4632-0.2067 4.9092-0.18948 2.446-0.46509 4.9265-0.18948 1.9637-0.39618 3.3417-0.18948 1.3608-0.41341 2.4288-0.2067 1.0508-0.48231 1.9465-0.25838 0.8785-0.60289 1.8431h11.834v-19.396z"/>
 </g>
</svg>
