<svg width="35.736mm" height="19.614mm" version="1.1" viewBox="0 0 35.736 19.614" xmlns="http://www.w3.org/2000/svg">
 <g transform="translate(-30.752 -35.096)" stroke-width=".26458" aria-label="ဟ">
  <path fill="white" d="m40.489 54.711q-2.8222 0-5.0447-1.3053-2.1872-1.3053-3.4572-3.5983-1.2347-2.2931-1.2347-5.2564 0-2.928 1.2347-5.4328 1.2347-2.54 3.3161-4.0217l1.7992 2.2578q-1.5169 1.2347-2.3283 2.9986-0.81139 1.7286-0.81139 4.1275 0 3.5278 1.7992 5.5739 1.8344 2.0461 4.7272 2.0461 2.928 0 4.7272-2.0461 1.7992-2.0461 1.7992-5.5739 0-2.3989-0.84666-4.1275-0.81139-1.7639-2.3636-2.9986l1.7992-2.2578q2.0814 1.4817 3.2455 3.7747 1.3406-1.7992 3.3867-2.7869 2.0814-0.98778 4.4803-0.98778 2.9986 0 5.1858 1.3053 2.1872 1.27 3.3867 3.4925 1.1994 2.2225 1.1994 5.0094 0 2.9633-1.1994 5.1858-1.1642 2.1872-3.2455 3.4219-2.0461 1.1994-4.6919 1.1994-1.6228 0-2.7869-0.21167-1.1642-0.21167-2.1872-0.70555l1.1289-2.3283q1.3758 0.635 3.3514 0.635 2.9633 0 4.6919-1.9403 1.7639-1.9756 1.7639-5.1858 0-2.1519-0.81139-3.7747-0.77611-1.6228-2.2578-2.54-1.4464-0.91722-3.4925-0.91722-2.2578 0-3.8805 1.1642-1.6228 1.1642-2.8928 3.3161 0.24694 1.3053 0.24694 2.7517 0 2.6458-1.2347 4.8683-1.2347 2.1872-3.4572 3.5278-2.1872 1.3406-5.0447 1.3406z"/>
 </g>
</svg>
