<svg width="23.213mm" height="26mm" version="1.1" viewBox="0 0 23.213 26" xmlns="http://www.w3.org/2000/svg">
 <g transform="translate(-46.365 -23.788)" stroke-width=".26458" aria-label="ꚸ">
  <path fill="white" d="m56.137 42.485q-2.7164 0-4.5861-0.74083t-3.0339-2.0108q-1.1289-1.27-1.6581-2.8222-0.49389-1.5875-0.49389-3.2808 0-2.3989 0.88194-4.198 0.88194-1.8344 2.3989-3.0339 1.5169-1.2347 3.4219-1.8697 1.9403-0.67028 4.0569-0.74083l0.70555 2.8222q-1.4464 0-2.928 0.42333-1.4464 0.42333-2.6811 1.3053-1.1994 0.84666-1.9403 2.1167-0.70555 1.2347-0.70555 2.8928 0 1.5169 0.635 2.9633 0.635 1.4464 2.1167 2.3989 1.4817 0.91722 4.0217 0.91722 1.7639 0 2.8222-0.42333 1.0936-0.45861 1.7639-0.70555l0.70555 2.7869q-0.77611 0.28222-2.1872 0.74083-1.3758 0.45861-3.3161 0.45861zm2.6811 7.3025-0.70555-2.8222q1.4464 0 2.8928-0.42333 1.4817-0.42333 2.6811-1.27 1.2347-0.88194 1.9403-2.1167 0.74083-1.27 0.74083-2.928 0-1.5522-0.635-2.9633-0.635-1.4464-2.1167-2.3636-1.4464-0.9525-4.0217-0.9525-1.7639 0-2.8575 0.42333-1.0583 0.42333-1.7286 0.70555l-0.70555-2.7869q0.77611-0.28222 2.1519-0.74083 1.4111-0.45861 3.3514-0.45861 2.7164 0 4.5861 0.74083 1.8697 0.74083 2.9986 2.0108 1.1642 1.27 1.6581 2.8575 0.52916 1.5522 0.52916 3.2455 0 2.3989-0.88194 4.2333-0.88194 1.7992-2.3989 3.0339-1.5169 1.1994-3.4572 1.8697-1.905 0.635-4.0217 0.70555z"/>
 </g>
</svg>
