<svg width="45.473mm" height="24.059mm" version="1.1" viewBox="0 0 45.473 24.059" xmlns="http://www.w3.org/2000/svg">
 <g transform="translate(-41.847 -35.237)">
  <g stroke-width=".26458" aria-label="ឈ">
   <path fill="white" d="m43.752 48.537v-4.6919q-1.1642-1.0231-1.5522-1.4817-0.35278-0.49389-0.35278-0.84666t0.28222-0.84666q0.28222-0.49389 1.0231-1.2347 0.77611-0.74083 2.1519-1.8344 1.3406-1.0583 2.5753-1.6933 1.27-0.67028 2.7164-0.67028 0.67028 0 1.4464 0.17639 0.77611 0.17639 1.7992 0.635 1.0583 0.42333 2.4342 1.27 1.5875 0.91722 2.3989 1.6933 0.84666 0.77611 1.1289 1.7639 0.3175 0.9525 0.3175 2.54v10.83q0 0.67028 0.59972 1.3053 0.635 0.635 1.6581 1.0583 1.0583 0.42333 2.2578 0.42333 0.91722 0 1.7286-0.24694t1.4464-0.635q0.635-0.42333 0.98778-0.91722t0.35278-0.98778v-8.5725h3.2455v8.5725q0 0.49389 0.35278 0.98778t0.98778 0.91722q0.635 0.38806 1.4464 0.635t1.7286 0.24694q1.1994 0 2.2225-0.42333 1.0231-0.42333 1.6228-1.0583 0.635-0.635 0.635-1.3053v-8.5725h3.2455v8.5725q0 1.1289-0.98778 2.3283-0.9525 1.1994-2.7164 2.0108-1.7286 0.81139-4.0217 0.81139-1.7639 0-3.3867-0.49389-1.5875-0.52917-2.7517-1.6933-1.0231 0.81139-1.9756 1.3053-0.91722 0.45861-1.905 0.67028-0.98778 0.21167-2.2578 0.21167-2.3989 0-4.1628-0.81139-1.7286-0.81139-2.6811-2.0108-0.91722-1.1994-0.91722-2.3283v-11.183q0-0.67028-0.67028-1.6933-0.635-1.0583-2.5047-2.2578-1.0231-0.67028-1.9756-1.0231-0.91722-0.38806-1.6228-0.38806-0.52917 0-1.0936 0.21167-0.52916 0.21167-1.1994 0.67028-0.635 0.42333-1.4111 1.0936-0.77611 0.635-1.7286 1.5522l2.3283 1.8344v5.5739zm28.645-1.5875h-3.2455v-2.6106q-1.27-1.0583-1.9403-1.6581-0.635-0.59972-0.84666-0.91722-0.21167-0.35278-0.21167-0.59972 0-0.35278 0.3175-0.84666 0.35278-0.49389 1.2347-1.6228 0.88194-1.1289 2.5047-3.3867 1.1289 0.74083 1.8697 1.1642 0.74083 0.42333 1.4111 0.56444 0.70555 0.14111 1.5875 0.07056 0 0.56444-0.28222 1.1642-0.28222 0.59972-0.77611 0.98778-0.49389 0.38805-1.1994 0.38805-0.28222 0-0.67028-0.10583-0.38805-0.10583-0.84666-0.35278-0.45861-0.28222-1.0936-0.70555l-1.5169 2.0461 3.7042 2.9986zm-28.645 1.1994h3.2455v2.4694q1.3406-0.07056 2.1872 0.35278 0.88194 0.38805 1.3053 1.1642 0.42333 0.77611 0.42333 1.8344 0 0.635-0.28222 1.4817-0.24694 0.84666-1.0936 1.8344-0.81139 0.9525-2.54 2.0108h-3.2455zm3.2455 4.7625v3.2455q0.70555-0.42333 1.0583-0.98778t0.35278-1.1642q0-0.67028-0.42333-0.88194-0.38806-0.21167-0.98778-0.21167zm37.641-5.9619h-3.2455v-2.6106q-1.27-1.0583-1.9403-1.6581-0.635-0.59972-0.84666-0.91722-0.21167-0.35278-0.21167-0.59972 0-0.35278 0.3175-0.84666 0.35278-0.49389 1.2347-1.6228 0.88194-1.1289 2.5047-3.3867 1.1289 0.74083 1.8697 1.1642 0.74083 0.42333 1.4111 0.56444 0.70555 0.14111 1.5875 0.07056 0 0.56444-0.28222 1.1642t-0.77611 0.98778q-0.49389 0.38805-1.1994 0.38805-0.28222 0-0.67028-0.10583-0.38806-0.10583-0.84666-0.35278-0.45861-0.28222-1.0936-0.70555l-1.5169 2.0461 3.7042 2.9986z"/>
  </g>
 </g>
</svg>
