<svg width="31.144mm" height="30.506mm" version="1.1" viewBox="0 0 31.144 30.506" xmlns="http://www.w3.org/2000/svg">
 <g transform="translate(-30.822 -55.016)" stroke-width=".26458" aria-label="语">
  <path fill="white" d="m39.521 60.27-2.2221 1.6881q-1.3608-2.8422-4.4786-5.3227l1.8776-1.6192q2.9628 1.9809 4.8231 5.2538zm22.445 10.697h-21.842v-2.5838h5.96l1.0335-5.0815h-4.2719v-2.5666h4.7542l0.56844-2.825h-6.7696v-2.5838h18.414v2.5838h-8.9228l-0.56844 2.825h7.7342l-0.77514 7.6481h4.6853zm-6.8385-7.6653h-5.271l-1.0163 5.0815h5.7533zm-12.523 17.57-5.8566 3.0661-1.602-2.2565q0.12058-0.22393 0.12058-1.2402v-13.109h-4.4442v-2.5838h7.1141v15.623l4.6681-2.3943zm15.623 4.6509h-2.6872v-2.2565h-8.8883v2.2565h-2.6872v-12.557h14.263zm-2.6872-4.8231v-5.1504h-8.8883v5.1504z"/>
 </g>
</svg>
