<svg width="21.015mm" height="25.304mm" version="1.1" viewBox="0 0 21.015 25.304" xmlns="http://www.w3.org/2000/svg">
 <g transform="translate(-58.271 -47.939)" stroke-width=".26458" aria-label="R">
  <path fill="white" d="m69.622 59.531q2.4116 0 3.8068-0.96462 1.4125-0.96462 1.4125-3.4795 0-2.7044-1.9637-3.6862-1.0508-0.51676-2.8077-0.51676h-8.3716v8.6472zm-11.352-11.593h11.713q2.8939 0 4.7714 0.84405 3.5657 1.6192 3.5657 5.9772 0 2.2738-0.9474 3.7207-0.93017 1.4469-2.6183 2.3254 1.4814 0.60289 2.2221 1.5847 0.75792 0.98185 0.84405 3.1867l0.12058 3.3934q0.05168 1.4469 0.24116 2.1532 0.31006 1.2058 1.1024 1.5503v0.56844h-4.203q-0.17225-0.32728-0.27561-0.84405t-0.17225-1.9982l-0.20671-4.2202q-0.12058-2.4805-1.8431-3.3245-0.98185-0.46509-3.0834-0.46509h-7.8031v10.852h-3.4279z"/>
 </g>
</svg>
