<svg width="19.31mm" height="26.734mm" version="1.1" viewBox="0 0 19.31 26.734" xmlns="http://www.w3.org/2000/svg">
 <g transform="translate(-37.95 -27.557)" stroke-width=".26458" aria-label="ق">
  <path fill="white" d="m55.245 29.021-1.3436 2.4805-2.7905-1.4814 1.2919-2.4632zm-3.9619 1.5503-1.3091 2.4977-2.7905-1.4469 1.2747-2.4977zm5.9772 16.915q0 3.4106-3.2728 5.2021-2.9456 1.602-7.8203 1.602-3.8413 0-5.9428-1.378-2.2738-1.4986-2.2738-4.4442 0-2.0326 0.65457-4.2719 0.60289-2.0671 1.7225-4.1341l0.72347 0.31006q-0.49954 1.2058-0.84405 2.136-0.46509 1.2747-0.67179 2.1876-0.25838 1.1541-0.25838 2.2393 0 2.2393 1.8948 3.3073 1.757 0.98185 5.1849 0.98185 3.669 0 6.4251-1.2058 3.1867-1.3953 3.1867-3.7724 0-0.8785-0.0689-1.2575-0.05168-0.39618-0.20671-0.79237-0.65457 0.31006-1.3264 0.49954-0.65457 0.17225-1.3264 0.17225-1.5158 0-2.4632-0.68902-1.1541-0.82682-1.1541-2.4977 0-1.9465 0.99908-3.7207 1.1197-1.9982 2.6527-1.9982 2.0154 0 3.1867 2.7561 0.99908 2.3427 0.99908 5.426zm-2.7388-6.3906q-0.44786-1.068-0.63734-1.3264-0.48231-0.70624-1.2058-0.70624-0.82682 0-1.223 0.39618-0.37896 0.39618-0.37896 0.99908 0 0.53399 0.49954 0.84405 0.49954 0.31006 1.1369 0.31006 0.44786 0 0.82682-0.12058 0.39618-0.1378 0.98185-0.39618z"/>
 </g>
</svg>
