<svg width="29.669mm" height="36.689mm" version="1.1" viewBox="0 0 29.669 36.689" xmlns="http://www.w3.org/2000/svg">
 <g transform="translate(-46.415 -26.498)" stroke-width=".26458" aria-label="á¦">
  <path fill="white" d="m67.017 63.187q-1.2347 0-2.8222-0.42333-1.5522-0.38806-3.1044-1.27-1.5169-0.84666-2.6458-2.2578l2.0814-1.5522q1.0231 1.1994 2.7517 2.1519 1.7286 0.98778 3.7394 0.98778 2.2578 0 3.4572-0.67028 1.1994-0.635 1.6581-1.6581 0.49389-0.98778 0.49389-2.0814 0-0.67028-0.38806-1.3758-0.35278-0.70555-1.3758-1.1994-1.0231-0.45861-2.928-0.45861h-0.52916v-2.3636h0.67028q2.0814 0 3.4572-1.8697 1.3758-1.8697 1.3758-5.3975 0-3.563-1.5169-5.3975-1.5169-1.8697-3.9864-1.8697-2.0108 0-3.3161 1.2347-1.27 1.2347-1.8697 3.2103 0.14111 0.67028 0.17639 1.4111 0.07055 0.70555 0.07055 1.5169 0 3.3514-1.1642 5.5386-1.1289 2.1872-3.0339 3.2808-1.905 1.0583-4.2686 1.0583-1.2347 0-2.6105-0.38806-1.3406-0.42333-2.6458-1.3758-1.27-0.98778-2.3283-2.6811l2.2931-1.3053q0.38805 0.81139 1.1642 1.5875 0.77611 0.77611 1.8344 1.27 1.0936 0.49389 2.293 0.49389 2.3989 0 3.8453-2.0461 1.4464-2.0461 1.4464-5.468 0-3.563-1.4464-5.4328-1.4464-1.905-4.0217-1.905-1.0936 0-2.3636 0.56444-1.2347 0.52917-2.1167 1.8697l-2.2578-1.3053q1.3406-1.8344 3.175-2.6458 1.8697-0.84666 3.7042-0.84666 2.1167 0 3.9158 0.77611 1.7992 0.77611 2.9633 2.54 1.6581-1.9756 3.4925-2.6458 1.8697-0.67028 3.4572-0.67028 2.1167 0 3.9864 0.98778 1.905 0.9525 3.1044 3.1044 1.1994 2.1519 1.1994 5.6444 0 2.6106-0.9525 4.6567-0.9525 2.0461-2.54 3.2455 1.5169 0.70555 2.3283 1.905 0.84666 1.2347 0.84666 2.7164 0 1.0936-0.45861 2.2578-0.42333 1.1994-1.4464 2.2225-0.98778 1.0231-2.6811 1.6581-1.6581 0.67028-4.1628 0.67028zm-11.324-31.15q1.4111-1.1289 2.6458-2.5753 1.2347-1.4464 2.1872-2.9633h1.6228q0.59972 1.0231 1.4464 2.1519 0.88194 1.1289 1.7286 2.0461 0.88194 0.91722 1.4817 1.3406h-2.9986q-0.35278-0.38805-0.84666-1.0583-0.49389-0.70555-0.9525-1.4464-0.45861-0.74083-0.77611-1.27-0.56444 1.0231-1.1994 1.9756-0.59972 0.9525-1.3406 1.7992z"/>
 </g>
</svg>
