<svg width="17.019mm" height="25.339mm" version="1.1" viewBox="0 0 17.019 25.339" xmlns="http://www.w3.org/2000/svg">
 <g transform="translate(-57.573 -44.353)" fill="#fff" stroke-width=".26458" aria-label="0">
  <path d="m66.014 44.353q4.7887 0 6.9246 3.9446 1.6536 3.0489 1.6536 8.3543 0 5.0298-1.4986 8.3199-2.1704 4.7198-7.0969 4.7198-4.4442 0-6.6146-3.8585-1.8087-3.2212-1.8087-8.6472 0-4.203 1.0852-7.2175 2.0326-5.6155 7.3553-5.6155zm-0.03445 22.514q2.4116 0 3.8413-2.136 1.4297-2.136 1.4297-7.9582 0-4.203-1.0335-6.9074-1.0335-2.7216-4.0135-2.7216-2.7388 0-4.0135 2.5838-1.2575 2.5666-1.2575 7.5792 0 3.7724 0.8096 6.0634 1.2402 3.4968 4.2375 3.4968z"/>
 </g>
</svg>
