<svg width="27.693mm" height="32.35mm" version="1.1" viewBox="0 0 27.693 32.35" xmlns="http://www.w3.org/2000/svg">
 <g transform="translate(-42.344 -28.235)" stroke-width=".26458" aria-label="à¦">
  <path fill="white" d="m58.748 38.43q1.4464 0 2.3989 0.3175 0.98778 0.28222 1.6581 0.88194 0.67028 0.56444 1.0583 1.4111 0.38805 0.81139 0.38805 2.2578v17.286h-2.6458q-0.28222-1.0583-0.81139-1.7286-0.52917-0.67028-1.3053-0.98778-0.74083-0.35278-1.7992-0.35278-1.27 0-2.3636 0.14111-1.0936 0.14111-2.2931 0.3175-1.1642 0.14111-2.7164 0.14111-1.1994 0-2.5753-0.24694-1.3758-0.28222-2.6105-1.0231-1.2347-0.74083-2.0108-2.1872-0.77611-1.4817-0.77611-3.8805 0-0.84666 0.14111-1.7639 0.14111-0.9525 0.28222-1.7286l2.7164 0.38805q-0.14111 0.52917-0.28222 1.27-0.10583 0.74083-0.10583 1.7639 0 1.5522 0.45861 2.5047t1.2347 1.4464q0.77611 0.49389 1.7286 0.67028 0.9525 0.17639 1.9403 0.17639 1.7639 0 3.2103-0.28222 1.4817-0.3175 3.3161-0.3175 1.5169 0 2.6458 0.45861 1.1289 0.42333 1.905 1.4817v-12.594q0-1.3053-0.17639-1.8697-0.17639-0.56444-0.56444-0.91722-0.635-0.52917-1.9403-0.52917-1.27 0-2.4342 0.56444-1.1289 0.56444-2.0461 1.4464-0.88194 0.88194-1.4111 1.905-0.49389 0.98778-0.49389 1.8697 0 0.35278 0.14111 0.74083 0.14111 0.38806 0.59972 0.67028 0.45861 0.28222 1.3406 0.28222 0.38806 0 0.74083-0.03528t0.74083-0.07055l0.24694 2.4694q-0.35278 0.14111-0.9525 0.21167-0.56444 0.07056-1.3406 0.07056-1.7286 0-3.0339-1.0583-1.27-1.0583-1.27-3.2455 0-1.4111 0.70555-2.8575 0.74083-1.4817 2.0108-2.7164 1.27-1.2347 2.8928-1.9756 1.6581-0.77611 3.4572-0.77611zm11.289 1.8697q0 1.905-0.84666 3.2808-0.84666 1.3406-2.2578 2.2931-1.3758 0.9525-3.0339 1.6581v-2.7869q0.84666-0.38806 1.6228-0.9525 0.77611-0.56444 1.27-1.4111 0.49389-0.84666 0.49389-2.0108 0-0.88194-0.3175-1.5169-0.28222-0.67028-0.84666-1.1642-0.67028-0.56444-1.7639-0.91722-1.0583-0.38806-2.9633-0.635l-3.6689-0.49389q-2.1872-0.3175-3.563-1.0231-1.3758-0.70555-2.0461-1.905-0.635-1.1994-0.635-2.9986 0-0.3175 0.03528-0.74083 0.07056-0.42333 0.10583-0.74083l2.6106 0.14111q-0.03528 0.24694-0.07056 0.59972t-0.03528 0.635q0 0.70555 0.17639 1.27 0.17639 0.52916 0.52917 0.98778 0.38805 0.42333 0.98778 0.70555 0.635 0.24694 1.6228 0.38805l4.6214 0.635q1.5522 0.21167 2.6811 0.52916 1.1642 0.28222 2.0108 0.70555 0.84666 0.42333 1.4464 0.98778 0.88194 0.81139 1.3406 1.9756 0.49389 1.1289 0.49389 2.5047z"/>
 </g>
</svg>
