<svg width="30.057mm" height="28.681mm" version="1.1" viewBox="0 0 30.057 28.681" xmlns="http://www.w3.org/2000/svg">
 <g transform="translate(-27.399 -9.8283)" stroke-width=".26458" aria-label="ホ">
  <path fill="white" d="m44.367 9.8283h-3.3161c0.14111 0.52917 0.24694 1.7639 0.24694 2.5047v3.6336h-9.8072c-1.1289 0-2.0108-0.07056-2.9986-0.21167v2.9986c0.9525-0.10583 1.9403-0.14111 3.0339-0.14111h9.7719v15.91c0 0.9525-0.42333 1.3406-1.3758 1.3406-0.91722 0-2.5047-0.10583-4.0569-0.38806l0.24694 2.7869c1.4464 0.17639 3.5278 0.24694 5.0094 0.24694 2.1519 0 3.0339-0.9525 3.0339-2.7869v-17.11h9.3486c0.84666 0 1.905 0.03528 2.8575 0.10583v-2.928c-0.88194 0.10583-2.0461 0.17639-2.8928 0.17639h-9.3133v-3.6336c0-0.74083 0.14111-2.0108 0.21167-2.5047zm-7.7611 14.252-2.4694-1.1994c-1.3758 2.8575-4.3744 7.0555-6.738 9.2075l2.4342 1.6581c2.0108-2.1519 5.2917-6.6675 6.7733-9.6661zm14.746-1.1994-2.3989 1.3053c1.8697 2.2225 4.5155 6.5969 5.8914 9.3839l2.6105-1.4464c-1.4111-2.54-4.198-6.985-6.103-9.2428z"/>
 </g>
</svg>
