<svg width="17.639mm" height="25.647mm" version="1.1" viewBox="0 0 17.639 25.647" xmlns="http://www.w3.org/2000/svg">
 <g transform="translate(-65.323 -67.939)">
  <g stroke-width=".26458" aria-label="ꂃ">
   <path fill="white" d="m70.191 78.064q-1.7286 0-2.7517-0.70555-0.98778-0.74083-1.4464-1.9403-0.42333-1.2347-0.56444-2.6811-0.10583-1.4464-0.10583-2.8928v-1.905h2.4342v1.5875q0 2.3989 0.17639 3.8453 0.17639 1.4111 0.70555 2.0461 0.56444 0.59972 1.6933 0.59972 1.1994 0 1.905-0.9525t0.70555-3.2103v-3.9158h2.4342v3.9158q0 2.2578 0.70555 3.2103 0.70555 0.9525 1.8697 0.9525 1.1642 0 1.6933-0.59972 0.56444-0.635 0.74083-2.0461 0.17639-1.4464 0.17639-3.8453v-1.5875h2.3989v1.905q0 1.4464-0.10583 2.8928-0.10583 1.4464-0.56444 2.6811-0.45861 1.1994-1.4464 1.9403-0.9525 0.70555-2.7164 0.70555-1.4111 0-2.3636-0.52916-0.9525-0.56444-1.6228-1.5522-0.67028 0.98778-1.6228 1.5522-0.91722 0.52916-2.3283 0.52916zm2.8575 10.301v-3.9511h-3.6336v-1.905h3.6336v-3.3867h2.2225v3.3867h3.6336v1.905h-3.6336v3.9511zm1.0936 5.2211q-2.4694 0-4.1275-1.0231-1.6228-1.0231-2.5753-2.6811-0.91722-1.6581-1.3406-3.563l2.293-0.84666q0.42333 2.7517 1.7992 4.4097 1.3758 1.6228 3.9511 1.6228 2.4342 0 3.81-1.5875 1.3758-1.6228 1.8697-4.445l2.2578 0.84666q-0.77611 3.4925-2.7869 5.3975-1.9756 1.8697-5.1505 1.8697z"/>
  </g>
 </g>
</svg>
