<svg width="23.248mm" height="25.929mm" version="1.1" viewBox="0 0 23.248 25.929" xmlns="http://www.w3.org/2000/svg">
 <g transform="translate(-49.825 -44.444)" stroke-width=".26458" aria-label="ð“ƒ">
  <path fill="white" d="m61.467 70.373q-3.9158 0-6.5264-1.6228-2.5753-1.6228-3.8453-4.5508t-1.27-6.8439q0-3.8805 1.27-6.7733t3.8453-4.5155q2.6106-1.6228 6.5617-1.6228 3.7747 0 6.35 1.6228 2.5753 1.5875 3.8805 4.5155 1.3406 2.8928 1.3406 6.8086t-1.3406 6.8439q-1.3053 2.8928-3.8805 4.5155t-6.3853 1.6228zm0-2.7517q4.3039 0 6.2794-2.7164 1.9756-2.7517 1.9756-7.5142t-1.9756-7.4436q-1.9756-2.7164-6.2442-2.7164-4.2686 0-6.3147 2.7164-2.0108 2.6811-2.0108 7.4436t2.0108 7.5142q2.0108 2.7164 6.2794 2.7164zm0.17639-8.5019q-0.77611 0-1.3053-0.49389-0.52917-0.49389-0.52917-1.4817 0-1.0231 0.52917-1.4817 0.52916-0.49389 1.3053-0.49389 0.70555 0 1.2347 0.49389 0.56444 0.45861 0.56444 1.4817 0 0.98778-0.56444 1.4817-0.52916 0.49389-1.2347 0.49389z"/>
 </g>
</svg>
