<svg width="24.765mm" height="25.859mm" version="1.1" viewBox="0 0 24.765 25.859" xmlns="http://www.w3.org/2000/svg">
 <g transform="translate(-35.719 -51.261)">
  <g stroke-width=".26458" aria-label="ዑ">
   <path fill="white" d="m58.438 68.9q-1.5169 0-2.293-0.84666-0.77611-0.84666-0.77611-2.0461 0-0.24694 0-0.42333 0.03528-0.21167 0.07056-0.38805h-5.0447v-1.7639h9.1722q-0.07055 0.24694-0.17639 0.81139-0.10583 0.52916-0.10583 1.1642 0 0.9525 0.3175 1.7286 0.3175 0.74083 0.88194 1.1994-0.35278 0.24694-0.91722 0.42333-0.52916 0.14111-1.1289 0.14111zm-14.57 8.2197q-2.8575 0-4.6567-1.0936-1.7992-1.0936-2.6458-2.928-0.84666-1.8697-0.84666-4.1275v-9.4544q0-2.293 0.84666-4.1628t2.6458-2.9633q1.7992-1.1289 4.6567-1.1289 3.0339 0 4.8683 1.1642 1.8344 1.1289 2.6458 2.9986 0.84666 1.8344 0.84666 3.9158v9.5955q0 2.0814-0.84666 3.9511-0.81139 1.8697-2.6458 3.0692-1.8344 1.1642-4.8683 1.1642zm0.17639-1.7639q1.8697 0 2.8928-0.81139 1.0583-0.81139 1.4817-2.2225 0.42333-1.4464 0.42333-3.3161v-9.6308q0-1.8697-0.42333-3.2808-0.42333-1.4464-1.4817-2.2578-1.0231-0.81139-2.8928-0.81139-2.7517 0-3.8453 1.6581-1.0936 1.6228-1.0936 4.6567v9.7014q0 2.9986 1.0936 4.6567t3.8453 1.6581z"/>
  </g>
 </g>
</svg>
