<svg width="27.94mm" height="26.355mm" version="1.1" viewBox="0 0 27.94 26.355" xmlns="http://www.w3.org/2000/svg">
 <g transform="translate(-45.799 -57.999)" stroke-width=".26458" aria-label="Ф">
  <path fill="white" d="m70.38 71.176q0-1.757-0.53399-3.135-0.53399-1.3953-1.6364-2.3599-1.0852-0.96462-2.7733-1.4642-1.6881-0.51676-3.9791-0.51676v14.934q2.291 0 3.9791-0.49954 1.6881-0.51676 2.7733-1.4642 1.1024-0.96462 1.6364-2.3427 0.53399-1.3953 0.53399-3.1523zm-12.316 10.352q-2.8594 0-5.1332-0.65457-2.2738-0.67179-3.8585-1.9809t-2.4288-3.2384q-0.84405-1.9465-0.84405-4.4786 0-2.5321 0.84405-4.4614 0.84405-1.9465 2.4288-3.2556t3.8585-1.9637q2.2738-0.67179 5.1332-0.67179v-2.825h3.3934v2.825q2.8594 0 5.1332 0.67179 2.2738 0.65457 3.8585 1.9637 1.5847 1.3091 2.4288 3.2556 0.86127 1.9292 0.86127 4.4614 0 2.5321-0.86127 4.4786-0.84405 1.9292-2.4288 3.2384-1.5847 1.3091-3.8585 1.9809-2.2738 0.65457-5.1332 0.65457v2.825h-3.3934zm-8.9228-10.352q0 1.757 0.53399 3.1523 0.53399 1.378 1.6192 2.3427 1.1024 0.9474 2.7733 1.4642 1.6881 0.49954 3.9963 0.49954v-14.934q-2.3082 0-3.9963 0.51676-1.6709 0.49954-2.7733 1.4642-1.0852 0.96462-1.6192 2.3599-0.53399 1.378-0.53399 3.135z"/>
 </g>
</svg>
