<svg width="27.411mm" height="21.943mm" version="1.1" viewBox="0 0 27.411 21.943" xmlns="http://www.w3.org/2000/svg">
 <g transform="translate(-36.054 -73.157)">
  <g stroke-width=".26458" aria-label="क">
   <path fill="white" d="m63.465 75.662h-11.465v7.5847l-0.14111-0.3175q0.84666-0.91722 1.9403-1.4111 1.0936-0.49389 2.3283-0.49389 2.293 0 3.7394 1.4817 1.4464 1.4464 1.4464 4.1628 0 1.6228-0.52916 3.4572-0.52916 1.8344-1.7639 3.5983l-2.54-1.4464q0.88194-1.1289 1.4464-2.6105 0.56444-1.4817 0.56444-2.928 0-1.6581-0.70555-2.4694-0.67028-0.81139-1.905-0.81139-0.9525 0-1.9756 0.67028t-2.0814 2.0814l0.17639-0.88194v9.7719h-2.8575v-7.4083l0.49389 0.84666q-0.56444 0.49389-1.3758 1.0583-0.77611 0.56444-1.8344 0.9525-1.0231 0.38806-2.3989 0.38806-1.6581 0-3.1397-0.67028-1.4464-0.67028-2.3283-2.0108-0.88194-1.3758-0.88194-3.3867 0-1.905 0.88194-3.2808 0.88194-1.3758 2.4694-2.1167 1.5875-0.74083 3.6336-0.74083 0.81139 0 1.7992 0.14111 1.0231 0.10583 1.5522 0.21167l-0.21167 2.5753q-0.56444-0.14111-1.4464-0.24694-0.84666-0.10583-1.5169-0.10583-2.0461 0-3.175 0.91722-1.1289 0.91722-1.1289 2.5753 0 1.8697 1.0583 2.7869 1.0936 0.88194 2.5047 0.88194 1.7639 0 3.1044-0.9525 1.3758-0.9525 2.54-2.2225l-0.59972 1.905v-11.536h-13.088v-2.5047h27.411z"/>
  </g>
 </g>
</svg>
