<svg width="23.354mm" height="21.943mm" version="1.1" viewBox="0 0 23.354 21.943" xmlns="http://www.w3.org/2000/svg">
 <g transform="translate(-33.036 -27.978)" stroke-width=".26458" aria-label="ङ">
  <path fill="white" d="m45.665 42.089q-1.0231 0-2.0461 0.24694t-1.8344 0.635q-1.0583-0.635-1.9756-1.4464-0.88194-0.81139-1.4111-1.7992-0.52917-1.0231-0.52917-2.2225 0-0.98778 0.35278-1.6933t0.9525-1.1642q0.52916-0.42333 1.1642-0.67028 0.67028-0.24694 1.5169-0.35278 0.88194-0.10583 2.0461-0.10583h3.2808v-3.0339h-14.146v-2.5047h23.354v2.5047h-6.35v5.5386h-6.4911q-1.0936 0-1.5522 0.10583t-0.77611 0.35278q-0.24694 0.21167-0.38805 0.52916-0.14111 0.28222-0.14111 0.67028 0 0.84666 0.49389 1.4464 0.49389 0.56444 1.0583 1.0231 0.81139-0.28222 1.7286-0.42333 0.91722-0.17639 1.8344-0.17639 2.6106 0 4.3392 1.3406 1.7286 1.3053 1.7286 3.5983 0 1.5875-0.77611 2.8222-0.77611 1.2347-2.3283 1.9403-1.5169 0.67028-3.8453 0.67028-2.2931 0-4.3039-0.70555-1.9756-0.70555-3.6336-1.9756-1.6581-1.27-3.0692-2.8928l2.1519-1.7286q2.0108 2.3989 4.0922 3.563 2.1167 1.1289 4.7625 1.1289 2.0814 0 3.0692-0.70555 1.0231-0.74083 1.0231-2.0461 0-1.1994-0.88194-1.8344-0.84666-0.635-2.4694-0.635zm5.3975-4.0569q0-0.81139 0.52917-1.3758 0.52916-0.56444 1.3053-0.56444 0.77611 0 1.3053 0.56444 0.52917 0.56444 0.52917 1.3758 0 0.77611-0.52917 1.3758-0.52916 0.56444-1.3053 0.56444-0.77611 0-1.3053-0.56444-0.52917-0.59972-0.52917-1.3758z"/>
 </g>
</svg>
