<svg width="15.555mm" height="20.068mm" version="1.1" viewBox="0 0 15.555 20.068" xmlns="http://www.w3.org/2000/svg">
 <g transform="translate(-56.992 -33.008)" stroke-width=".26458" aria-label="ถ">
  <path fill="white" d="m72.547 52.8h-3.2384v-11.11q0-3.135-1.1197-4.3753-1.1024-1.2402-3.4279-1.2402-3.6346 0-4.3753 2.9628h3.2728v2.291q-1.5847 0.60289-2.3254 1.7225-0.74069 1.1197-0.74069 3.0834v0.63734q0.53399-0.2067 1.2402-0.2067 1.3436 0 2.3082 0.9474 0.96462 0.9474 0.96462 2.291t-0.96462 2.3082q-0.96462 0.96462-2.3082 0.96462-2.0498 0-3.2728-1.2402t-1.223-3.3762v-2.0843q0-3.824 3.0489-4.892h-3.3934v-0.12058q0-3.7724 2.0154-6.0634 2.0154-2.291 5.7533-2.291 4.0652 0 5.9256 2.0671 1.8603 2.0498 1.8603 6.6146zm-10.714-1.6536q0.53399 0 0.91295-0.37896 0.37896-0.39618 0.37896-0.96462 0-0.51676-0.39618-0.89572-0.37896-0.37896-0.89572-0.37896-0.53399 0-0.93017 0.37896-0.37896 0.37896-0.37896 0.89572 0 0.56844 0.37896 0.96462 0.37896 0.37896 0.93017 0.37896z"/>
 </g>
</svg>
