<svg width="13.677mm" height="20.877mm" version="1.1" viewBox="0 0 13.677 20.877" xmlns="http://www.w3.org/2000/svg">
 <g transform="translate(-43.375 -28.906)" stroke-width=".26458" aria-label="າ">
  <path fill="white" d="m47.079 32.248q1.0335 0.15503 1.6536 0.89572 0.63734 0.72347 0.63734 1.6536 0 1.068-0.8096 1.8603-0.79237 0.77514-1.8776 0.77514-1.378 0-2.3427-1.068-0.96462-1.068-0.96462-2.6699 0-1.9809 1.6536-3.3762 1.6536-1.4125 4.4097-1.4125 3.3073 0 5.4605 2.291 2.1532 2.291 2.1532 5.7188 0 2.825-1.068 6.4768t-2.7388 6.3906l-2.9972-1.223q1.7914-2.6872 2.7561-5.8739 0.98185-3.1867 0.98185-5.805 0-2.2738-1.2919-3.7035-1.2919-1.4469-3.2901-1.4469-1.3953 0-2.3254 0.51676zm-0.39618 3.5312q0.43064 0 0.72347-0.27561 0.31006-0.29283 0.31006-0.70624 0-0.41341-0.31006-0.70624-0.29283-0.29283-0.72347-0.29283-0.39618 0-0.68902 0.31006-0.29283 0.29283-0.29283 0.68902t0.29283 0.68902q0.29283 0.29283 0.68902 0.29283z"/>
 </g>
</svg>
